%TF.GenerationSoftware,KiCad,Pcbnew,7.0.9*%
%TF.CreationDate,2024-12-09T18:27:57-04:00*%
%TF.ProjectId,ESP 32 LM,45535020-3332-4204-9c4d-2e6b69636164,rev?*%
%TF.SameCoordinates,Original*%
%TF.FileFunction,Legend,Top*%
%TF.FilePolarity,Positive*%
%FSLAX46Y46*%
G04 Gerber Fmt 4.6, Leading zero omitted, Abs format (unit mm)*
G04 Created by KiCad (PCBNEW 7.0.9) date 2024-12-09 18:27:57*
%MOMM*%
%LPD*%
G01*
G04 APERTURE LIST*
%ADD10C,0.127350*%
%ADD11C,0.150000*%
%ADD12C,0.120200*%
%ADD13C,0.080000*%
%ADD14C,0.120000*%
%ADD15C,0.127000*%
%ADD16C,0.200000*%
G04 APERTURE END LIST*
D10*
X133543639Y-74861036D02*
X133301067Y-74861036D01*
X133301067Y-74861036D02*
X133301067Y-74351636D01*
X133931753Y-74521436D02*
X133931753Y-74861036D01*
X133713438Y-74521436D02*
X133713438Y-74788264D01*
X133713438Y-74788264D02*
X133737695Y-74836779D01*
X133737695Y-74836779D02*
X133786210Y-74861036D01*
X133786210Y-74861036D02*
X133858981Y-74861036D01*
X133858981Y-74861036D02*
X133907495Y-74836779D01*
X133907495Y-74836779D02*
X133931753Y-74812521D01*
X134174324Y-74861036D02*
X134174324Y-74521436D01*
X134174324Y-74351636D02*
X134150067Y-74375893D01*
X134150067Y-74375893D02*
X134174324Y-74400150D01*
X134174324Y-74400150D02*
X134198581Y-74375893D01*
X134198581Y-74375893D02*
X134174324Y-74351636D01*
X134174324Y-74351636D02*
X134174324Y-74400150D01*
X134392638Y-74836779D02*
X134441152Y-74861036D01*
X134441152Y-74861036D02*
X134538181Y-74861036D01*
X134538181Y-74861036D02*
X134586695Y-74836779D01*
X134586695Y-74836779D02*
X134610952Y-74788264D01*
X134610952Y-74788264D02*
X134610952Y-74764007D01*
X134610952Y-74764007D02*
X134586695Y-74715493D01*
X134586695Y-74715493D02*
X134538181Y-74691236D01*
X134538181Y-74691236D02*
X134465410Y-74691236D01*
X134465410Y-74691236D02*
X134416895Y-74666979D01*
X134416895Y-74666979D02*
X134392638Y-74618464D01*
X134392638Y-74618464D02*
X134392638Y-74594207D01*
X134392638Y-74594207D02*
X134416895Y-74545693D01*
X134416895Y-74545693D02*
X134465410Y-74521436D01*
X134465410Y-74521436D02*
X134538181Y-74521436D01*
X134538181Y-74521436D02*
X134586695Y-74545693D01*
X135217380Y-74594207D02*
X135387180Y-74594207D01*
X135459952Y-74861036D02*
X135217380Y-74861036D01*
X135217380Y-74861036D02*
X135217380Y-74351636D01*
X135217380Y-74351636D02*
X135459952Y-74351636D01*
X135678266Y-74861036D02*
X135678266Y-74521436D01*
X135678266Y-74569950D02*
X135702523Y-74545693D01*
X135702523Y-74545693D02*
X135751038Y-74521436D01*
X135751038Y-74521436D02*
X135823809Y-74521436D01*
X135823809Y-74521436D02*
X135872323Y-74545693D01*
X135872323Y-74545693D02*
X135896581Y-74594207D01*
X135896581Y-74594207D02*
X135896581Y-74861036D01*
X135896581Y-74594207D02*
X135920838Y-74545693D01*
X135920838Y-74545693D02*
X135969352Y-74521436D01*
X135969352Y-74521436D02*
X136042123Y-74521436D01*
X136042123Y-74521436D02*
X136090638Y-74545693D01*
X136090638Y-74545693D02*
X136114895Y-74594207D01*
X136114895Y-74594207D02*
X136114895Y-74861036D01*
X136357466Y-74861036D02*
X136357466Y-74521436D01*
X136357466Y-74351636D02*
X136333209Y-74375893D01*
X136333209Y-74375893D02*
X136357466Y-74400150D01*
X136357466Y-74400150D02*
X136381723Y-74375893D01*
X136381723Y-74375893D02*
X136357466Y-74351636D01*
X136357466Y-74351636D02*
X136357466Y-74400150D01*
X136672809Y-74861036D02*
X136624294Y-74836779D01*
X136624294Y-74836779D02*
X136600037Y-74788264D01*
X136600037Y-74788264D02*
X136600037Y-74351636D01*
X136866866Y-74861036D02*
X136866866Y-74521436D01*
X136866866Y-74351636D02*
X136842609Y-74375893D01*
X136842609Y-74375893D02*
X136866866Y-74400150D01*
X136866866Y-74400150D02*
X136891123Y-74375893D01*
X136891123Y-74375893D02*
X136866866Y-74351636D01*
X136866866Y-74351636D02*
X136866866Y-74400150D01*
X137182209Y-74861036D02*
X137133694Y-74836779D01*
X137133694Y-74836779D02*
X137109437Y-74812521D01*
X137109437Y-74812521D02*
X137085180Y-74764007D01*
X137085180Y-74764007D02*
X137085180Y-74618464D01*
X137085180Y-74618464D02*
X137109437Y-74569950D01*
X137109437Y-74569950D02*
X137133694Y-74545693D01*
X137133694Y-74545693D02*
X137182209Y-74521436D01*
X137182209Y-74521436D02*
X137254980Y-74521436D01*
X137254980Y-74521436D02*
X137303494Y-74545693D01*
X137303494Y-74545693D02*
X137327752Y-74569950D01*
X137327752Y-74569950D02*
X137352009Y-74618464D01*
X137352009Y-74618464D02*
X137352009Y-74764007D01*
X137352009Y-74764007D02*
X137327752Y-74812521D01*
X137327752Y-74812521D02*
X137303494Y-74836779D01*
X137303494Y-74836779D02*
X137254980Y-74861036D01*
X137254980Y-74861036D02*
X137182209Y-74861036D01*
X137958437Y-74861036D02*
X137958437Y-74351636D01*
X137958437Y-74351636D02*
X138128237Y-74715493D01*
X138128237Y-74715493D02*
X138298037Y-74351636D01*
X138298037Y-74351636D02*
X138298037Y-74861036D01*
X138613380Y-74861036D02*
X138564865Y-74836779D01*
X138564865Y-74836779D02*
X138540608Y-74812521D01*
X138540608Y-74812521D02*
X138516351Y-74764007D01*
X138516351Y-74764007D02*
X138516351Y-74618464D01*
X138516351Y-74618464D02*
X138540608Y-74569950D01*
X138540608Y-74569950D02*
X138564865Y-74545693D01*
X138564865Y-74545693D02*
X138613380Y-74521436D01*
X138613380Y-74521436D02*
X138686151Y-74521436D01*
X138686151Y-74521436D02*
X138734665Y-74545693D01*
X138734665Y-74545693D02*
X138758923Y-74569950D01*
X138758923Y-74569950D02*
X138783180Y-74618464D01*
X138783180Y-74618464D02*
X138783180Y-74764007D01*
X138783180Y-74764007D02*
X138758923Y-74812521D01*
X138758923Y-74812521D02*
X138734665Y-74836779D01*
X138734665Y-74836779D02*
X138686151Y-74861036D01*
X138686151Y-74861036D02*
X138613380Y-74861036D01*
X139074266Y-74861036D02*
X139025751Y-74836779D01*
X139025751Y-74836779D02*
X139001494Y-74788264D01*
X139001494Y-74788264D02*
X139001494Y-74351636D01*
X139268323Y-74861036D02*
X139268323Y-74521436D01*
X139268323Y-74351636D02*
X139244066Y-74375893D01*
X139244066Y-74375893D02*
X139268323Y-74400150D01*
X139268323Y-74400150D02*
X139292580Y-74375893D01*
X139292580Y-74375893D02*
X139268323Y-74351636D01*
X139268323Y-74351636D02*
X139268323Y-74400150D01*
X139510894Y-74521436D02*
X139510894Y-74861036D01*
X139510894Y-74569950D02*
X139535151Y-74545693D01*
X139535151Y-74545693D02*
X139583666Y-74521436D01*
X139583666Y-74521436D02*
X139656437Y-74521436D01*
X139656437Y-74521436D02*
X139704951Y-74545693D01*
X139704951Y-74545693D02*
X139729209Y-74594207D01*
X139729209Y-74594207D02*
X139729209Y-74861036D01*
X140190095Y-74861036D02*
X140190095Y-74594207D01*
X140190095Y-74594207D02*
X140165837Y-74545693D01*
X140165837Y-74545693D02*
X140117323Y-74521436D01*
X140117323Y-74521436D02*
X140020295Y-74521436D01*
X140020295Y-74521436D02*
X139971780Y-74545693D01*
X140190095Y-74836779D02*
X140141580Y-74861036D01*
X140141580Y-74861036D02*
X140020295Y-74861036D01*
X140020295Y-74861036D02*
X139971780Y-74836779D01*
X139971780Y-74836779D02*
X139947523Y-74788264D01*
X139947523Y-74788264D02*
X139947523Y-74739750D01*
X139947523Y-74739750D02*
X139971780Y-74691236D01*
X139971780Y-74691236D02*
X140020295Y-74666979D01*
X140020295Y-74666979D02*
X140141580Y-74666979D01*
X140141580Y-74666979D02*
X140190095Y-74642721D01*
D11*
X130135333Y-49094819D02*
X129802000Y-48618628D01*
X129563905Y-49094819D02*
X129563905Y-48094819D01*
X129563905Y-48094819D02*
X129944857Y-48094819D01*
X129944857Y-48094819D02*
X130040095Y-48142438D01*
X130040095Y-48142438D02*
X130087714Y-48190057D01*
X130087714Y-48190057D02*
X130135333Y-48285295D01*
X130135333Y-48285295D02*
X130135333Y-48428152D01*
X130135333Y-48428152D02*
X130087714Y-48523390D01*
X130087714Y-48523390D02*
X130040095Y-48571009D01*
X130040095Y-48571009D02*
X129944857Y-48618628D01*
X129944857Y-48618628D02*
X129563905Y-48618628D01*
X131040095Y-48094819D02*
X130563905Y-48094819D01*
X130563905Y-48094819D02*
X130516286Y-48571009D01*
X130516286Y-48571009D02*
X130563905Y-48523390D01*
X130563905Y-48523390D02*
X130659143Y-48475771D01*
X130659143Y-48475771D02*
X130897238Y-48475771D01*
X130897238Y-48475771D02*
X130992476Y-48523390D01*
X130992476Y-48523390D02*
X131040095Y-48571009D01*
X131040095Y-48571009D02*
X131087714Y-48666247D01*
X131087714Y-48666247D02*
X131087714Y-48904342D01*
X131087714Y-48904342D02*
X131040095Y-48999580D01*
X131040095Y-48999580D02*
X130992476Y-49047200D01*
X130992476Y-49047200D02*
X130897238Y-49094819D01*
X130897238Y-49094819D02*
X130659143Y-49094819D01*
X130659143Y-49094819D02*
X130563905Y-49047200D01*
X130563905Y-49047200D02*
X130516286Y-48999580D01*
X102957333Y-72208819D02*
X102624000Y-71732628D01*
X102385905Y-72208819D02*
X102385905Y-71208819D01*
X102385905Y-71208819D02*
X102766857Y-71208819D01*
X102766857Y-71208819D02*
X102862095Y-71256438D01*
X102862095Y-71256438D02*
X102909714Y-71304057D01*
X102909714Y-71304057D02*
X102957333Y-71399295D01*
X102957333Y-71399295D02*
X102957333Y-71542152D01*
X102957333Y-71542152D02*
X102909714Y-71637390D01*
X102909714Y-71637390D02*
X102862095Y-71685009D01*
X102862095Y-71685009D02*
X102766857Y-71732628D01*
X102766857Y-71732628D02*
X102385905Y-71732628D01*
X103814476Y-71542152D02*
X103814476Y-72208819D01*
X103576381Y-71161200D02*
X103338286Y-71875485D01*
X103338286Y-71875485D02*
X103957333Y-71875485D01*
X114927142Y-73003580D02*
X114879523Y-73051200D01*
X114879523Y-73051200D02*
X114736666Y-73098819D01*
X114736666Y-73098819D02*
X114641428Y-73098819D01*
X114641428Y-73098819D02*
X114498571Y-73051200D01*
X114498571Y-73051200D02*
X114403333Y-72955961D01*
X114403333Y-72955961D02*
X114355714Y-72860723D01*
X114355714Y-72860723D02*
X114308095Y-72670247D01*
X114308095Y-72670247D02*
X114308095Y-72527390D01*
X114308095Y-72527390D02*
X114355714Y-72336914D01*
X114355714Y-72336914D02*
X114403333Y-72241676D01*
X114403333Y-72241676D02*
X114498571Y-72146438D01*
X114498571Y-72146438D02*
X114641428Y-72098819D01*
X114641428Y-72098819D02*
X114736666Y-72098819D01*
X114736666Y-72098819D02*
X114879523Y-72146438D01*
X114879523Y-72146438D02*
X114927142Y-72194057D01*
X115879523Y-73098819D02*
X115308095Y-73098819D01*
X115593809Y-73098819D02*
X115593809Y-72098819D01*
X115593809Y-72098819D02*
X115498571Y-72241676D01*
X115498571Y-72241676D02*
X115403333Y-72336914D01*
X115403333Y-72336914D02*
X115308095Y-72384533D01*
X116498571Y-72098819D02*
X116593809Y-72098819D01*
X116593809Y-72098819D02*
X116689047Y-72146438D01*
X116689047Y-72146438D02*
X116736666Y-72194057D01*
X116736666Y-72194057D02*
X116784285Y-72289295D01*
X116784285Y-72289295D02*
X116831904Y-72479771D01*
X116831904Y-72479771D02*
X116831904Y-72717866D01*
X116831904Y-72717866D02*
X116784285Y-72908342D01*
X116784285Y-72908342D02*
X116736666Y-73003580D01*
X116736666Y-73003580D02*
X116689047Y-73051200D01*
X116689047Y-73051200D02*
X116593809Y-73098819D01*
X116593809Y-73098819D02*
X116498571Y-73098819D01*
X116498571Y-73098819D02*
X116403333Y-73051200D01*
X116403333Y-73051200D02*
X116355714Y-73003580D01*
X116355714Y-73003580D02*
X116308095Y-72908342D01*
X116308095Y-72908342D02*
X116260476Y-72717866D01*
X116260476Y-72717866D02*
X116260476Y-72479771D01*
X116260476Y-72479771D02*
X116308095Y-72289295D01*
X116308095Y-72289295D02*
X116355714Y-72194057D01*
X116355714Y-72194057D02*
X116403333Y-72146438D01*
X116403333Y-72146438D02*
X116498571Y-72098819D01*
X117943333Y-48873580D02*
X117895714Y-48921200D01*
X117895714Y-48921200D02*
X117752857Y-48968819D01*
X117752857Y-48968819D02*
X117657619Y-48968819D01*
X117657619Y-48968819D02*
X117514762Y-48921200D01*
X117514762Y-48921200D02*
X117419524Y-48825961D01*
X117419524Y-48825961D02*
X117371905Y-48730723D01*
X117371905Y-48730723D02*
X117324286Y-48540247D01*
X117324286Y-48540247D02*
X117324286Y-48397390D01*
X117324286Y-48397390D02*
X117371905Y-48206914D01*
X117371905Y-48206914D02*
X117419524Y-48111676D01*
X117419524Y-48111676D02*
X117514762Y-48016438D01*
X117514762Y-48016438D02*
X117657619Y-47968819D01*
X117657619Y-47968819D02*
X117752857Y-47968819D01*
X117752857Y-47968819D02*
X117895714Y-48016438D01*
X117895714Y-48016438D02*
X117943333Y-48064057D01*
X118800476Y-48302152D02*
X118800476Y-48968819D01*
X118562381Y-47921200D02*
X118324286Y-48635485D01*
X118324286Y-48635485D02*
X118943333Y-48635485D01*
X129119333Y-70209580D02*
X129071714Y-70257200D01*
X129071714Y-70257200D02*
X128928857Y-70304819D01*
X128928857Y-70304819D02*
X128833619Y-70304819D01*
X128833619Y-70304819D02*
X128690762Y-70257200D01*
X128690762Y-70257200D02*
X128595524Y-70161961D01*
X128595524Y-70161961D02*
X128547905Y-70066723D01*
X128547905Y-70066723D02*
X128500286Y-69876247D01*
X128500286Y-69876247D02*
X128500286Y-69733390D01*
X128500286Y-69733390D02*
X128547905Y-69542914D01*
X128547905Y-69542914D02*
X128595524Y-69447676D01*
X128595524Y-69447676D02*
X128690762Y-69352438D01*
X128690762Y-69352438D02*
X128833619Y-69304819D01*
X128833619Y-69304819D02*
X128928857Y-69304819D01*
X128928857Y-69304819D02*
X129071714Y-69352438D01*
X129071714Y-69352438D02*
X129119333Y-69400057D01*
X130071714Y-70304819D02*
X129500286Y-70304819D01*
X129786000Y-70304819D02*
X129786000Y-69304819D01*
X129786000Y-69304819D02*
X129690762Y-69447676D01*
X129690762Y-69447676D02*
X129595524Y-69542914D01*
X129595524Y-69542914D02*
X129500286Y-69590533D01*
X118659833Y-60811580D02*
X118612214Y-60859200D01*
X118612214Y-60859200D02*
X118469357Y-60906819D01*
X118469357Y-60906819D02*
X118374119Y-60906819D01*
X118374119Y-60906819D02*
X118231262Y-60859200D01*
X118231262Y-60859200D02*
X118136024Y-60763961D01*
X118136024Y-60763961D02*
X118088405Y-60668723D01*
X118088405Y-60668723D02*
X118040786Y-60478247D01*
X118040786Y-60478247D02*
X118040786Y-60335390D01*
X118040786Y-60335390D02*
X118088405Y-60144914D01*
X118088405Y-60144914D02*
X118136024Y-60049676D01*
X118136024Y-60049676D02*
X118231262Y-59954438D01*
X118231262Y-59954438D02*
X118374119Y-59906819D01*
X118374119Y-59906819D02*
X118469357Y-59906819D01*
X118469357Y-59906819D02*
X118612214Y-59954438D01*
X118612214Y-59954438D02*
X118659833Y-60002057D01*
X119040786Y-60002057D02*
X119088405Y-59954438D01*
X119088405Y-59954438D02*
X119183643Y-59906819D01*
X119183643Y-59906819D02*
X119421738Y-59906819D01*
X119421738Y-59906819D02*
X119516976Y-59954438D01*
X119516976Y-59954438D02*
X119564595Y-60002057D01*
X119564595Y-60002057D02*
X119612214Y-60097295D01*
X119612214Y-60097295D02*
X119612214Y-60192533D01*
X119612214Y-60192533D02*
X119564595Y-60335390D01*
X119564595Y-60335390D02*
X118993167Y-60906819D01*
X118993167Y-60906819D02*
X119612214Y-60906819D01*
X92202095Y-42634819D02*
X92202095Y-43444342D01*
X92202095Y-43444342D02*
X92249714Y-43539580D01*
X92249714Y-43539580D02*
X92297333Y-43587200D01*
X92297333Y-43587200D02*
X92392571Y-43634819D01*
X92392571Y-43634819D02*
X92583047Y-43634819D01*
X92583047Y-43634819D02*
X92678285Y-43587200D01*
X92678285Y-43587200D02*
X92725904Y-43539580D01*
X92725904Y-43539580D02*
X92773523Y-43444342D01*
X92773523Y-43444342D02*
X92773523Y-42634819D01*
X93154476Y-42634819D02*
X93773523Y-42634819D01*
X93773523Y-42634819D02*
X93440190Y-43015771D01*
X93440190Y-43015771D02*
X93583047Y-43015771D01*
X93583047Y-43015771D02*
X93678285Y-43063390D01*
X93678285Y-43063390D02*
X93725904Y-43111009D01*
X93725904Y-43111009D02*
X93773523Y-43206247D01*
X93773523Y-43206247D02*
X93773523Y-43444342D01*
X93773523Y-43444342D02*
X93725904Y-43539580D01*
X93725904Y-43539580D02*
X93678285Y-43587200D01*
X93678285Y-43587200D02*
X93583047Y-43634819D01*
X93583047Y-43634819D02*
X93297333Y-43634819D01*
X93297333Y-43634819D02*
X93202095Y-43587200D01*
X93202095Y-43587200D02*
X93154476Y-43539580D01*
X129540095Y-52540819D02*
X129540095Y-53350342D01*
X129540095Y-53350342D02*
X129587714Y-53445580D01*
X129587714Y-53445580D02*
X129635333Y-53493200D01*
X129635333Y-53493200D02*
X129730571Y-53540819D01*
X129730571Y-53540819D02*
X129921047Y-53540819D01*
X129921047Y-53540819D02*
X130016285Y-53493200D01*
X130016285Y-53493200D02*
X130063904Y-53445580D01*
X130063904Y-53445580D02*
X130111523Y-53350342D01*
X130111523Y-53350342D02*
X130111523Y-52540819D01*
X131111523Y-53540819D02*
X130540095Y-53540819D01*
X130825809Y-53540819D02*
X130825809Y-52540819D01*
X130825809Y-52540819D02*
X130730571Y-52683676D01*
X130730571Y-52683676D02*
X130635333Y-52778914D01*
X130635333Y-52778914D02*
X130540095Y-52826533D01*
X119570667Y-45365200D02*
X119713524Y-45412819D01*
X119713524Y-45412819D02*
X119951619Y-45412819D01*
X119951619Y-45412819D02*
X120046857Y-45365200D01*
X120046857Y-45365200D02*
X120094476Y-45317580D01*
X120094476Y-45317580D02*
X120142095Y-45222342D01*
X120142095Y-45222342D02*
X120142095Y-45127104D01*
X120142095Y-45127104D02*
X120094476Y-45031866D01*
X120094476Y-45031866D02*
X120046857Y-44984247D01*
X120046857Y-44984247D02*
X119951619Y-44936628D01*
X119951619Y-44936628D02*
X119761143Y-44889009D01*
X119761143Y-44889009D02*
X119665905Y-44841390D01*
X119665905Y-44841390D02*
X119618286Y-44793771D01*
X119618286Y-44793771D02*
X119570667Y-44698533D01*
X119570667Y-44698533D02*
X119570667Y-44603295D01*
X119570667Y-44603295D02*
X119618286Y-44508057D01*
X119618286Y-44508057D02*
X119665905Y-44460438D01*
X119665905Y-44460438D02*
X119761143Y-44412819D01*
X119761143Y-44412819D02*
X119999238Y-44412819D01*
X119999238Y-44412819D02*
X120142095Y-44460438D01*
X120475429Y-44412819D02*
X120713524Y-45412819D01*
X120713524Y-45412819D02*
X120904000Y-44698533D01*
X120904000Y-44698533D02*
X121094476Y-45412819D01*
X121094476Y-45412819D02*
X121332572Y-44412819D01*
X121665905Y-44508057D02*
X121713524Y-44460438D01*
X121713524Y-44460438D02*
X121808762Y-44412819D01*
X121808762Y-44412819D02*
X122046857Y-44412819D01*
X122046857Y-44412819D02*
X122142095Y-44460438D01*
X122142095Y-44460438D02*
X122189714Y-44508057D01*
X122189714Y-44508057D02*
X122237333Y-44603295D01*
X122237333Y-44603295D02*
X122237333Y-44698533D01*
X122237333Y-44698533D02*
X122189714Y-44841390D01*
X122189714Y-44841390D02*
X121618286Y-45412819D01*
X121618286Y-45412819D02*
X122237333Y-45412819D01*
X131508667Y-45619200D02*
X131651524Y-45666819D01*
X131651524Y-45666819D02*
X131889619Y-45666819D01*
X131889619Y-45666819D02*
X131984857Y-45619200D01*
X131984857Y-45619200D02*
X132032476Y-45571580D01*
X132032476Y-45571580D02*
X132080095Y-45476342D01*
X132080095Y-45476342D02*
X132080095Y-45381104D01*
X132080095Y-45381104D02*
X132032476Y-45285866D01*
X132032476Y-45285866D02*
X131984857Y-45238247D01*
X131984857Y-45238247D02*
X131889619Y-45190628D01*
X131889619Y-45190628D02*
X131699143Y-45143009D01*
X131699143Y-45143009D02*
X131603905Y-45095390D01*
X131603905Y-45095390D02*
X131556286Y-45047771D01*
X131556286Y-45047771D02*
X131508667Y-44952533D01*
X131508667Y-44952533D02*
X131508667Y-44857295D01*
X131508667Y-44857295D02*
X131556286Y-44762057D01*
X131556286Y-44762057D02*
X131603905Y-44714438D01*
X131603905Y-44714438D02*
X131699143Y-44666819D01*
X131699143Y-44666819D02*
X131937238Y-44666819D01*
X131937238Y-44666819D02*
X132080095Y-44714438D01*
X132413429Y-44666819D02*
X132651524Y-45666819D01*
X132651524Y-45666819D02*
X132842000Y-44952533D01*
X132842000Y-44952533D02*
X133032476Y-45666819D01*
X133032476Y-45666819D02*
X133270572Y-44666819D01*
X134175333Y-45666819D02*
X133603905Y-45666819D01*
X133889619Y-45666819D02*
X133889619Y-44666819D01*
X133889619Y-44666819D02*
X133794381Y-44809676D01*
X133794381Y-44809676D02*
X133699143Y-44904914D01*
X133699143Y-44904914D02*
X133603905Y-44952533D01*
X117181333Y-76400819D02*
X116848000Y-75924628D01*
X116609905Y-76400819D02*
X116609905Y-75400819D01*
X116609905Y-75400819D02*
X116990857Y-75400819D01*
X116990857Y-75400819D02*
X117086095Y-75448438D01*
X117086095Y-75448438D02*
X117133714Y-75496057D01*
X117133714Y-75496057D02*
X117181333Y-75591295D01*
X117181333Y-75591295D02*
X117181333Y-75734152D01*
X117181333Y-75734152D02*
X117133714Y-75829390D01*
X117133714Y-75829390D02*
X117086095Y-75877009D01*
X117086095Y-75877009D02*
X116990857Y-75924628D01*
X116990857Y-75924628D02*
X116609905Y-75924628D01*
X117514667Y-75400819D02*
X118133714Y-75400819D01*
X118133714Y-75400819D02*
X117800381Y-75781771D01*
X117800381Y-75781771D02*
X117943238Y-75781771D01*
X117943238Y-75781771D02*
X118038476Y-75829390D01*
X118038476Y-75829390D02*
X118086095Y-75877009D01*
X118086095Y-75877009D02*
X118133714Y-75972247D01*
X118133714Y-75972247D02*
X118133714Y-76210342D01*
X118133714Y-76210342D02*
X118086095Y-76305580D01*
X118086095Y-76305580D02*
X118038476Y-76353200D01*
X118038476Y-76353200D02*
X117943238Y-76400819D01*
X117943238Y-76400819D02*
X117657524Y-76400819D01*
X117657524Y-76400819D02*
X117562286Y-76353200D01*
X117562286Y-76353200D02*
X117514667Y-76305580D01*
X137455833Y-53888819D02*
X137122500Y-53412628D01*
X136884405Y-53888819D02*
X136884405Y-52888819D01*
X136884405Y-52888819D02*
X137265357Y-52888819D01*
X137265357Y-52888819D02*
X137360595Y-52936438D01*
X137360595Y-52936438D02*
X137408214Y-52984057D01*
X137408214Y-52984057D02*
X137455833Y-53079295D01*
X137455833Y-53079295D02*
X137455833Y-53222152D01*
X137455833Y-53222152D02*
X137408214Y-53317390D01*
X137408214Y-53317390D02*
X137360595Y-53365009D01*
X137360595Y-53365009D02*
X137265357Y-53412628D01*
X137265357Y-53412628D02*
X136884405Y-53412628D01*
X137836786Y-52984057D02*
X137884405Y-52936438D01*
X137884405Y-52936438D02*
X137979643Y-52888819D01*
X137979643Y-52888819D02*
X138217738Y-52888819D01*
X138217738Y-52888819D02*
X138312976Y-52936438D01*
X138312976Y-52936438D02*
X138360595Y-52984057D01*
X138360595Y-52984057D02*
X138408214Y-53079295D01*
X138408214Y-53079295D02*
X138408214Y-53174533D01*
X138408214Y-53174533D02*
X138360595Y-53317390D01*
X138360595Y-53317390D02*
X137789167Y-53888819D01*
X137789167Y-53888819D02*
X138408214Y-53888819D01*
X136231333Y-50586819D02*
X135898000Y-50110628D01*
X135659905Y-50586819D02*
X135659905Y-49586819D01*
X135659905Y-49586819D02*
X136040857Y-49586819D01*
X136040857Y-49586819D02*
X136136095Y-49634438D01*
X136136095Y-49634438D02*
X136183714Y-49682057D01*
X136183714Y-49682057D02*
X136231333Y-49777295D01*
X136231333Y-49777295D02*
X136231333Y-49920152D01*
X136231333Y-49920152D02*
X136183714Y-50015390D01*
X136183714Y-50015390D02*
X136136095Y-50063009D01*
X136136095Y-50063009D02*
X136040857Y-50110628D01*
X136040857Y-50110628D02*
X135659905Y-50110628D01*
X137183714Y-50586819D02*
X136612286Y-50586819D01*
X136898000Y-50586819D02*
X136898000Y-49586819D01*
X136898000Y-49586819D02*
X136802762Y-49729676D01*
X136802762Y-49729676D02*
X136707524Y-49824914D01*
X136707524Y-49824914D02*
X136612286Y-49872533D01*
X89861666Y-45198819D02*
X89861666Y-45913104D01*
X89861666Y-45913104D02*
X89814047Y-46055961D01*
X89814047Y-46055961D02*
X89718809Y-46151200D01*
X89718809Y-46151200D02*
X89575952Y-46198819D01*
X89575952Y-46198819D02*
X89480714Y-46198819D01*
X90290238Y-45294057D02*
X90337857Y-45246438D01*
X90337857Y-45246438D02*
X90433095Y-45198819D01*
X90433095Y-45198819D02*
X90671190Y-45198819D01*
X90671190Y-45198819D02*
X90766428Y-45246438D01*
X90766428Y-45246438D02*
X90814047Y-45294057D01*
X90814047Y-45294057D02*
X90861666Y-45389295D01*
X90861666Y-45389295D02*
X90861666Y-45484533D01*
X90861666Y-45484533D02*
X90814047Y-45627390D01*
X90814047Y-45627390D02*
X90242619Y-46198819D01*
X90242619Y-46198819D02*
X90861666Y-46198819D01*
X136318666Y-58890819D02*
X136318666Y-59605104D01*
X136318666Y-59605104D02*
X136271047Y-59747961D01*
X136271047Y-59747961D02*
X136175809Y-59843200D01*
X136175809Y-59843200D02*
X136032952Y-59890819D01*
X136032952Y-59890819D02*
X135937714Y-59890819D01*
X137318666Y-59890819D02*
X136747238Y-59890819D01*
X137032952Y-59890819D02*
X137032952Y-58890819D01*
X137032952Y-58890819D02*
X136937714Y-59033676D01*
X136937714Y-59033676D02*
X136842476Y-59128914D01*
X136842476Y-59128914D02*
X136747238Y-59176533D01*
X121435905Y-69288819D02*
X121435905Y-68288819D01*
X121435905Y-68288819D02*
X121674000Y-68288819D01*
X121674000Y-68288819D02*
X121816857Y-68336438D01*
X121816857Y-68336438D02*
X121912095Y-68431676D01*
X121912095Y-68431676D02*
X121959714Y-68526914D01*
X121959714Y-68526914D02*
X122007333Y-68717390D01*
X122007333Y-68717390D02*
X122007333Y-68860247D01*
X122007333Y-68860247D02*
X121959714Y-69050723D01*
X121959714Y-69050723D02*
X121912095Y-69145961D01*
X121912095Y-69145961D02*
X121816857Y-69241200D01*
X121816857Y-69241200D02*
X121674000Y-69288819D01*
X121674000Y-69288819D02*
X121435905Y-69288819D01*
X122864476Y-68288819D02*
X122674000Y-68288819D01*
X122674000Y-68288819D02*
X122578762Y-68336438D01*
X122578762Y-68336438D02*
X122531143Y-68384057D01*
X122531143Y-68384057D02*
X122435905Y-68526914D01*
X122435905Y-68526914D02*
X122388286Y-68717390D01*
X122388286Y-68717390D02*
X122388286Y-69098342D01*
X122388286Y-69098342D02*
X122435905Y-69193580D01*
X122435905Y-69193580D02*
X122483524Y-69241200D01*
X122483524Y-69241200D02*
X122578762Y-69288819D01*
X122578762Y-69288819D02*
X122769238Y-69288819D01*
X122769238Y-69288819D02*
X122864476Y-69241200D01*
X122864476Y-69241200D02*
X122912095Y-69193580D01*
X122912095Y-69193580D02*
X122959714Y-69098342D01*
X122959714Y-69098342D02*
X122959714Y-68860247D01*
X122959714Y-68860247D02*
X122912095Y-68765009D01*
X122912095Y-68765009D02*
X122864476Y-68717390D01*
X122864476Y-68717390D02*
X122769238Y-68669771D01*
X122769238Y-68669771D02*
X122578762Y-68669771D01*
X122578762Y-68669771D02*
X122483524Y-68717390D01*
X122483524Y-68717390D02*
X122435905Y-68765009D01*
X122435905Y-68765009D02*
X122388286Y-68860247D01*
X122451905Y-76400819D02*
X122451905Y-75400819D01*
X122451905Y-75400819D02*
X122690000Y-75400819D01*
X122690000Y-75400819D02*
X122832857Y-75448438D01*
X122832857Y-75448438D02*
X122928095Y-75543676D01*
X122928095Y-75543676D02*
X122975714Y-75638914D01*
X122975714Y-75638914D02*
X123023333Y-75829390D01*
X123023333Y-75829390D02*
X123023333Y-75972247D01*
X123023333Y-75972247D02*
X122975714Y-76162723D01*
X122975714Y-76162723D02*
X122928095Y-76257961D01*
X122928095Y-76257961D02*
X122832857Y-76353200D01*
X122832857Y-76353200D02*
X122690000Y-76400819D01*
X122690000Y-76400819D02*
X122451905Y-76400819D01*
X123928095Y-75400819D02*
X123451905Y-75400819D01*
X123451905Y-75400819D02*
X123404286Y-75877009D01*
X123404286Y-75877009D02*
X123451905Y-75829390D01*
X123451905Y-75829390D02*
X123547143Y-75781771D01*
X123547143Y-75781771D02*
X123785238Y-75781771D01*
X123785238Y-75781771D02*
X123880476Y-75829390D01*
X123880476Y-75829390D02*
X123928095Y-75877009D01*
X123928095Y-75877009D02*
X123975714Y-75972247D01*
X123975714Y-75972247D02*
X123975714Y-76210342D01*
X123975714Y-76210342D02*
X123928095Y-76305580D01*
X123928095Y-76305580D02*
X123880476Y-76353200D01*
X123880476Y-76353200D02*
X123785238Y-76400819D01*
X123785238Y-76400819D02*
X123547143Y-76400819D01*
X123547143Y-76400819D02*
X123451905Y-76353200D01*
X123451905Y-76353200D02*
X123404286Y-76305580D01*
D12*
X131725124Y-59144176D02*
X131725124Y-58663376D01*
X131725124Y-58663376D02*
X131839600Y-58663376D01*
X131839600Y-58663376D02*
X131908286Y-58686271D01*
X131908286Y-58686271D02*
X131954076Y-58732061D01*
X131954076Y-58732061D02*
X131976971Y-58777852D01*
X131976971Y-58777852D02*
X131999867Y-58869433D01*
X131999867Y-58869433D02*
X131999867Y-58938119D01*
X131999867Y-58938119D02*
X131976971Y-59029700D01*
X131976971Y-59029700D02*
X131954076Y-59075490D01*
X131954076Y-59075490D02*
X131908286Y-59121281D01*
X131908286Y-59121281D02*
X131839600Y-59144176D01*
X131839600Y-59144176D02*
X131725124Y-59144176D01*
X132411981Y-58823642D02*
X132411981Y-59144176D01*
X132297505Y-58640481D02*
X132183028Y-58983909D01*
X132183028Y-58983909D02*
X132480667Y-58983909D01*
D13*
X127271809Y-64405878D02*
X127271809Y-64085878D01*
X127271809Y-64085878D02*
X127347999Y-64085878D01*
X127347999Y-64085878D02*
X127393714Y-64101116D01*
X127393714Y-64101116D02*
X127424190Y-64131592D01*
X127424190Y-64131592D02*
X127439428Y-64162068D01*
X127439428Y-64162068D02*
X127454666Y-64223020D01*
X127454666Y-64223020D02*
X127454666Y-64268735D01*
X127454666Y-64268735D02*
X127439428Y-64329687D01*
X127439428Y-64329687D02*
X127424190Y-64360163D01*
X127424190Y-64360163D02*
X127393714Y-64390640D01*
X127393714Y-64390640D02*
X127347999Y-64405878D01*
X127347999Y-64405878D02*
X127271809Y-64405878D01*
X127561333Y-64085878D02*
X127759428Y-64085878D01*
X127759428Y-64085878D02*
X127652761Y-64207782D01*
X127652761Y-64207782D02*
X127698476Y-64207782D01*
X127698476Y-64207782D02*
X127728952Y-64223020D01*
X127728952Y-64223020D02*
X127744190Y-64238259D01*
X127744190Y-64238259D02*
X127759428Y-64268735D01*
X127759428Y-64268735D02*
X127759428Y-64344925D01*
X127759428Y-64344925D02*
X127744190Y-64375401D01*
X127744190Y-64375401D02*
X127728952Y-64390640D01*
X127728952Y-64390640D02*
X127698476Y-64405878D01*
X127698476Y-64405878D02*
X127607047Y-64405878D01*
X127607047Y-64405878D02*
X127576571Y-64390640D01*
X127576571Y-64390640D02*
X127561333Y-64375401D01*
X127271809Y-67453878D02*
X127271809Y-67133878D01*
X127271809Y-67133878D02*
X127347999Y-67133878D01*
X127347999Y-67133878D02*
X127393714Y-67149116D01*
X127393714Y-67149116D02*
X127424190Y-67179592D01*
X127424190Y-67179592D02*
X127439428Y-67210068D01*
X127439428Y-67210068D02*
X127454666Y-67271020D01*
X127454666Y-67271020D02*
X127454666Y-67316735D01*
X127454666Y-67316735D02*
X127439428Y-67377687D01*
X127439428Y-67377687D02*
X127424190Y-67408163D01*
X127424190Y-67408163D02*
X127393714Y-67438640D01*
X127393714Y-67438640D02*
X127347999Y-67453878D01*
X127347999Y-67453878D02*
X127271809Y-67453878D01*
X127576571Y-67164354D02*
X127591809Y-67149116D01*
X127591809Y-67149116D02*
X127622285Y-67133878D01*
X127622285Y-67133878D02*
X127698476Y-67133878D01*
X127698476Y-67133878D02*
X127728952Y-67149116D01*
X127728952Y-67149116D02*
X127744190Y-67164354D01*
X127744190Y-67164354D02*
X127759428Y-67194830D01*
X127759428Y-67194830D02*
X127759428Y-67225306D01*
X127759428Y-67225306D02*
X127744190Y-67271020D01*
X127744190Y-67271020D02*
X127561333Y-67453878D01*
X127561333Y-67453878D02*
X127759428Y-67453878D01*
X127271809Y-62627878D02*
X127271809Y-62307878D01*
X127271809Y-62307878D02*
X127347999Y-62307878D01*
X127347999Y-62307878D02*
X127393714Y-62323116D01*
X127393714Y-62323116D02*
X127424190Y-62353592D01*
X127424190Y-62353592D02*
X127439428Y-62384068D01*
X127439428Y-62384068D02*
X127454666Y-62445020D01*
X127454666Y-62445020D02*
X127454666Y-62490735D01*
X127454666Y-62490735D02*
X127439428Y-62551687D01*
X127439428Y-62551687D02*
X127424190Y-62582163D01*
X127424190Y-62582163D02*
X127393714Y-62612640D01*
X127393714Y-62612640D02*
X127347999Y-62627878D01*
X127347999Y-62627878D02*
X127271809Y-62627878D01*
X127759428Y-62627878D02*
X127576571Y-62627878D01*
X127667999Y-62627878D02*
X127667999Y-62307878D01*
X127667999Y-62307878D02*
X127637523Y-62353592D01*
X127637523Y-62353592D02*
X127607047Y-62384068D01*
X127607047Y-62384068D02*
X127576571Y-62399306D01*
D11*
X109847142Y-73257580D02*
X109799523Y-73305200D01*
X109799523Y-73305200D02*
X109656666Y-73352819D01*
X109656666Y-73352819D02*
X109561428Y-73352819D01*
X109561428Y-73352819D02*
X109418571Y-73305200D01*
X109418571Y-73305200D02*
X109323333Y-73209961D01*
X109323333Y-73209961D02*
X109275714Y-73114723D01*
X109275714Y-73114723D02*
X109228095Y-72924247D01*
X109228095Y-72924247D02*
X109228095Y-72781390D01*
X109228095Y-72781390D02*
X109275714Y-72590914D01*
X109275714Y-72590914D02*
X109323333Y-72495676D01*
X109323333Y-72495676D02*
X109418571Y-72400438D01*
X109418571Y-72400438D02*
X109561428Y-72352819D01*
X109561428Y-72352819D02*
X109656666Y-72352819D01*
X109656666Y-72352819D02*
X109799523Y-72400438D01*
X109799523Y-72400438D02*
X109847142Y-72448057D01*
X110799523Y-73352819D02*
X110228095Y-73352819D01*
X110513809Y-73352819D02*
X110513809Y-72352819D01*
X110513809Y-72352819D02*
X110418571Y-72495676D01*
X110418571Y-72495676D02*
X110323333Y-72590914D01*
X110323333Y-72590914D02*
X110228095Y-72638533D01*
X111751904Y-73352819D02*
X111180476Y-73352819D01*
X111466190Y-73352819D02*
X111466190Y-72352819D01*
X111466190Y-72352819D02*
X111370952Y-72495676D01*
X111370952Y-72495676D02*
X111275714Y-72590914D01*
X111275714Y-72590914D02*
X111180476Y-72638533D01*
X110323333Y-69955580D02*
X110275714Y-70003200D01*
X110275714Y-70003200D02*
X110132857Y-70050819D01*
X110132857Y-70050819D02*
X110037619Y-70050819D01*
X110037619Y-70050819D02*
X109894762Y-70003200D01*
X109894762Y-70003200D02*
X109799524Y-69907961D01*
X109799524Y-69907961D02*
X109751905Y-69812723D01*
X109751905Y-69812723D02*
X109704286Y-69622247D01*
X109704286Y-69622247D02*
X109704286Y-69479390D01*
X109704286Y-69479390D02*
X109751905Y-69288914D01*
X109751905Y-69288914D02*
X109799524Y-69193676D01*
X109799524Y-69193676D02*
X109894762Y-69098438D01*
X109894762Y-69098438D02*
X110037619Y-69050819D01*
X110037619Y-69050819D02*
X110132857Y-69050819D01*
X110132857Y-69050819D02*
X110275714Y-69098438D01*
X110275714Y-69098438D02*
X110323333Y-69146057D01*
X110799524Y-70050819D02*
X110990000Y-70050819D01*
X110990000Y-70050819D02*
X111085238Y-70003200D01*
X111085238Y-70003200D02*
X111132857Y-69955580D01*
X111132857Y-69955580D02*
X111228095Y-69812723D01*
X111228095Y-69812723D02*
X111275714Y-69622247D01*
X111275714Y-69622247D02*
X111275714Y-69241295D01*
X111275714Y-69241295D02*
X111228095Y-69146057D01*
X111228095Y-69146057D02*
X111180476Y-69098438D01*
X111180476Y-69098438D02*
X111085238Y-69050819D01*
X111085238Y-69050819D02*
X110894762Y-69050819D01*
X110894762Y-69050819D02*
X110799524Y-69098438D01*
X110799524Y-69098438D02*
X110751905Y-69146057D01*
X110751905Y-69146057D02*
X110704286Y-69241295D01*
X110704286Y-69241295D02*
X110704286Y-69479390D01*
X110704286Y-69479390D02*
X110751905Y-69574628D01*
X110751905Y-69574628D02*
X110799524Y-69622247D01*
X110799524Y-69622247D02*
X110894762Y-69669866D01*
X110894762Y-69669866D02*
X111085238Y-69669866D01*
X111085238Y-69669866D02*
X111180476Y-69622247D01*
X111180476Y-69622247D02*
X111228095Y-69574628D01*
X111228095Y-69574628D02*
X111275714Y-69479390D01*
X126325333Y-45317580D02*
X126277714Y-45365200D01*
X126277714Y-45365200D02*
X126134857Y-45412819D01*
X126134857Y-45412819D02*
X126039619Y-45412819D01*
X126039619Y-45412819D02*
X125896762Y-45365200D01*
X125896762Y-45365200D02*
X125801524Y-45269961D01*
X125801524Y-45269961D02*
X125753905Y-45174723D01*
X125753905Y-45174723D02*
X125706286Y-44984247D01*
X125706286Y-44984247D02*
X125706286Y-44841390D01*
X125706286Y-44841390D02*
X125753905Y-44650914D01*
X125753905Y-44650914D02*
X125801524Y-44555676D01*
X125801524Y-44555676D02*
X125896762Y-44460438D01*
X125896762Y-44460438D02*
X126039619Y-44412819D01*
X126039619Y-44412819D02*
X126134857Y-44412819D01*
X126134857Y-44412819D02*
X126277714Y-44460438D01*
X126277714Y-44460438D02*
X126325333Y-44508057D01*
X126658667Y-44412819D02*
X127325333Y-44412819D01*
X127325333Y-44412819D02*
X126896762Y-45412819D01*
X136597580Y-42838666D02*
X136645200Y-42886285D01*
X136645200Y-42886285D02*
X136692819Y-43029142D01*
X136692819Y-43029142D02*
X136692819Y-43124380D01*
X136692819Y-43124380D02*
X136645200Y-43267237D01*
X136645200Y-43267237D02*
X136549961Y-43362475D01*
X136549961Y-43362475D02*
X136454723Y-43410094D01*
X136454723Y-43410094D02*
X136264247Y-43457713D01*
X136264247Y-43457713D02*
X136121390Y-43457713D01*
X136121390Y-43457713D02*
X135930914Y-43410094D01*
X135930914Y-43410094D02*
X135835676Y-43362475D01*
X135835676Y-43362475D02*
X135740438Y-43267237D01*
X135740438Y-43267237D02*
X135692819Y-43124380D01*
X135692819Y-43124380D02*
X135692819Y-43029142D01*
X135692819Y-43029142D02*
X135740438Y-42886285D01*
X135740438Y-42886285D02*
X135788057Y-42838666D01*
X135692819Y-41981523D02*
X135692819Y-42171999D01*
X135692819Y-42171999D02*
X135740438Y-42267237D01*
X135740438Y-42267237D02*
X135788057Y-42314856D01*
X135788057Y-42314856D02*
X135930914Y-42410094D01*
X135930914Y-42410094D02*
X136121390Y-42457713D01*
X136121390Y-42457713D02*
X136502342Y-42457713D01*
X136502342Y-42457713D02*
X136597580Y-42410094D01*
X136597580Y-42410094D02*
X136645200Y-42362475D01*
X136645200Y-42362475D02*
X136692819Y-42267237D01*
X136692819Y-42267237D02*
X136692819Y-42076761D01*
X136692819Y-42076761D02*
X136645200Y-41981523D01*
X136645200Y-41981523D02*
X136597580Y-41933904D01*
X136597580Y-41933904D02*
X136502342Y-41886285D01*
X136502342Y-41886285D02*
X136264247Y-41886285D01*
X136264247Y-41886285D02*
X136169009Y-41933904D01*
X136169009Y-41933904D02*
X136121390Y-41981523D01*
X136121390Y-41981523D02*
X136073771Y-42076761D01*
X136073771Y-42076761D02*
X136073771Y-42267237D01*
X136073771Y-42267237D02*
X136121390Y-42362475D01*
X136121390Y-42362475D02*
X136169009Y-42410094D01*
X136169009Y-42410094D02*
X136264247Y-42457713D01*
X119421833Y-53445580D02*
X119374214Y-53493200D01*
X119374214Y-53493200D02*
X119231357Y-53540819D01*
X119231357Y-53540819D02*
X119136119Y-53540819D01*
X119136119Y-53540819D02*
X118993262Y-53493200D01*
X118993262Y-53493200D02*
X118898024Y-53397961D01*
X118898024Y-53397961D02*
X118850405Y-53302723D01*
X118850405Y-53302723D02*
X118802786Y-53112247D01*
X118802786Y-53112247D02*
X118802786Y-52969390D01*
X118802786Y-52969390D02*
X118850405Y-52778914D01*
X118850405Y-52778914D02*
X118898024Y-52683676D01*
X118898024Y-52683676D02*
X118993262Y-52588438D01*
X118993262Y-52588438D02*
X119136119Y-52540819D01*
X119136119Y-52540819D02*
X119231357Y-52540819D01*
X119231357Y-52540819D02*
X119374214Y-52588438D01*
X119374214Y-52588438D02*
X119421833Y-52636057D01*
X120326595Y-52540819D02*
X119850405Y-52540819D01*
X119850405Y-52540819D02*
X119802786Y-53017009D01*
X119802786Y-53017009D02*
X119850405Y-52969390D01*
X119850405Y-52969390D02*
X119945643Y-52921771D01*
X119945643Y-52921771D02*
X120183738Y-52921771D01*
X120183738Y-52921771D02*
X120278976Y-52969390D01*
X120278976Y-52969390D02*
X120326595Y-53017009D01*
X120326595Y-53017009D02*
X120374214Y-53112247D01*
X120374214Y-53112247D02*
X120374214Y-53350342D01*
X120374214Y-53350342D02*
X120326595Y-53445580D01*
X120326595Y-53445580D02*
X120278976Y-53493200D01*
X120278976Y-53493200D02*
X120183738Y-53540819D01*
X120183738Y-53540819D02*
X119945643Y-53540819D01*
X119945643Y-53540819D02*
X119850405Y-53493200D01*
X119850405Y-53493200D02*
X119802786Y-53445580D01*
X122977833Y-59795580D02*
X122930214Y-59843200D01*
X122930214Y-59843200D02*
X122787357Y-59890819D01*
X122787357Y-59890819D02*
X122692119Y-59890819D01*
X122692119Y-59890819D02*
X122549262Y-59843200D01*
X122549262Y-59843200D02*
X122454024Y-59747961D01*
X122454024Y-59747961D02*
X122406405Y-59652723D01*
X122406405Y-59652723D02*
X122358786Y-59462247D01*
X122358786Y-59462247D02*
X122358786Y-59319390D01*
X122358786Y-59319390D02*
X122406405Y-59128914D01*
X122406405Y-59128914D02*
X122454024Y-59033676D01*
X122454024Y-59033676D02*
X122549262Y-58938438D01*
X122549262Y-58938438D02*
X122692119Y-58890819D01*
X122692119Y-58890819D02*
X122787357Y-58890819D01*
X122787357Y-58890819D02*
X122930214Y-58938438D01*
X122930214Y-58938438D02*
X122977833Y-58986057D01*
X123311167Y-58890819D02*
X123930214Y-58890819D01*
X123930214Y-58890819D02*
X123596881Y-59271771D01*
X123596881Y-59271771D02*
X123739738Y-59271771D01*
X123739738Y-59271771D02*
X123834976Y-59319390D01*
X123834976Y-59319390D02*
X123882595Y-59367009D01*
X123882595Y-59367009D02*
X123930214Y-59462247D01*
X123930214Y-59462247D02*
X123930214Y-59700342D01*
X123930214Y-59700342D02*
X123882595Y-59795580D01*
X123882595Y-59795580D02*
X123834976Y-59843200D01*
X123834976Y-59843200D02*
X123739738Y-59890819D01*
X123739738Y-59890819D02*
X123454024Y-59890819D01*
X123454024Y-59890819D02*
X123358786Y-59843200D01*
X123358786Y-59843200D02*
X123311167Y-59795580D01*
D14*
%TO.C,R5*%
X130529064Y-47725000D02*
X130074936Y-47725000D01*
X130529064Y-46255000D02*
X130074936Y-46255000D01*
%TO.C,R4*%
X103351064Y-70839000D02*
X102896936Y-70839000D01*
X103351064Y-69369000D02*
X102896936Y-69369000D01*
%TO.C,C10*%
X114914000Y-70053252D02*
X114914000Y-68630748D01*
X116734000Y-70053252D02*
X116734000Y-68630748D01*
%TO.C,C4*%
X122377252Y-49170000D02*
X120954748Y-49170000D01*
X122377252Y-47350000D02*
X120954748Y-47350000D01*
%TO.C,C1*%
X130196000Y-72186748D02*
X130196000Y-73609252D01*
X128376000Y-72186748D02*
X128376000Y-73609252D01*
%TO.C,C2*%
X119736500Y-56692748D02*
X119736500Y-58115252D01*
X117916500Y-56692748D02*
X117916500Y-58115252D01*
D15*
%TO.C,U3*%
X113267000Y-66036000D02*
X112022000Y-66036000D01*
X113267000Y-65306000D02*
X113267000Y-66036000D01*
X95267000Y-66036000D02*
X96512000Y-66036000D01*
X95267000Y-65306000D02*
X95267000Y-66036000D01*
D16*
X94167000Y-48026000D02*
G75*
G03*
X94167000Y-48026000I-100000J0D01*
G01*
D15*
X95267000Y-47256000D02*
X95267000Y-40536000D01*
X113267000Y-40536000D02*
X113267000Y-47256000D01*
X95267000Y-40536000D02*
X113267000Y-40536000D01*
D16*
%TO.C,U1*%
X125356500Y-50796000D02*
G75*
G03*
X125356500Y-50796000I-100000J0D01*
G01*
D15*
X128504000Y-56338500D02*
X128504000Y-49833500D01*
X132009000Y-56338500D02*
X128504000Y-56338500D01*
X132009000Y-49833500D02*
X132009000Y-56338500D01*
X128504000Y-49833500D02*
X132009000Y-49833500D01*
D16*
%TO.C,SW2*%
X118412000Y-41318000D02*
G75*
G03*
X118412000Y-41318000I-100000J0D01*
G01*
D15*
X123512000Y-42918000D02*
X123512000Y-41918000D01*
X119312000Y-42918000D02*
X119312000Y-41918000D01*
X123512000Y-44038000D02*
X119312000Y-44038000D01*
X119312000Y-40798000D02*
X123512000Y-40798000D01*
D16*
%TO.C,SW1*%
X129080000Y-41318000D02*
G75*
G03*
X129080000Y-41318000I-100000J0D01*
G01*
D15*
X134180000Y-42918000D02*
X134180000Y-41918000D01*
X129980000Y-42918000D02*
X129980000Y-41918000D01*
X134180000Y-44038000D02*
X129980000Y-44038000D01*
X129980000Y-40798000D02*
X134180000Y-40798000D01*
D14*
%TO.C,R3*%
X117364742Y-73899500D02*
X117839258Y-73899500D01*
X117364742Y-74944500D02*
X117839258Y-74944500D01*
%TO.C,R2*%
X137385242Y-54341500D02*
X137859758Y-54341500D01*
X137385242Y-55386500D02*
X137859758Y-55386500D01*
%TO.C,R1*%
X137385242Y-51039500D02*
X137859758Y-51039500D01*
X137385242Y-52084500D02*
X137859758Y-52084500D01*
%TO.C,J2*%
X90195000Y-47184000D02*
X91525000Y-47184000D01*
X88865000Y-49784000D02*
X88865000Y-67624000D01*
X88865000Y-67624000D02*
X91525000Y-67624000D01*
X91525000Y-49784000D02*
X91525000Y-67624000D01*
X88865000Y-49784000D02*
X91525000Y-49784000D01*
X91525000Y-47184000D02*
X91525000Y-48514000D01*
D16*
%TO.C,J1*%
X132160500Y-68450000D02*
G75*
G03*
X132160500Y-68450000I-100000J0D01*
G01*
D15*
X140660500Y-69720000D02*
X140660500Y-60780000D01*
X140660500Y-69720000D02*
X139230500Y-69720000D01*
X135210500Y-69720000D02*
X136890500Y-69720000D01*
X140660500Y-60780000D02*
X139230500Y-60780000D01*
X135210500Y-60780000D02*
X136890500Y-60780000D01*
D14*
%TO.C,D6*%
X125824000Y-71838000D02*
X125824000Y-70688000D01*
X118524000Y-71838000D02*
X125824000Y-71838000D01*
X118524000Y-66338000D02*
X125824000Y-66338000D01*
%TO.C,D5*%
X122390000Y-75157000D02*
X124675000Y-75157000D01*
X124675000Y-75157000D02*
X124675000Y-73687000D01*
X124675000Y-73687000D02*
X122390000Y-73687000D01*
D16*
%TO.C,D4*%
X125878000Y-59944000D02*
G75*
G03*
X125878000Y-59944000I-100000J0D01*
G01*
D15*
X127353000Y-59094000D02*
X130203000Y-59094000D01*
X130203000Y-60794000D02*
X127353000Y-60794000D01*
%TO.C,D3*%
X130394000Y-64782000D02*
X129194000Y-64782000D01*
X129194000Y-63742000D02*
X130394000Y-63742000D01*
D16*
X128394000Y-64262000D02*
G75*
G03*
X128394000Y-64262000I-100000J0D01*
G01*
D15*
%TO.C,D2*%
X130394000Y-67830000D02*
X129194000Y-67830000D01*
X129194000Y-66790000D02*
X130394000Y-66790000D01*
D16*
X128394000Y-67310000D02*
G75*
G03*
X128394000Y-67310000I-100000J0D01*
G01*
D15*
%TO.C,D1*%
X130394000Y-63004000D02*
X129194000Y-63004000D01*
X129194000Y-61964000D02*
X130394000Y-61964000D01*
D16*
X128394000Y-62484000D02*
G75*
G03*
X128394000Y-62484000I-100000J0D01*
G01*
D14*
%TO.C,C11*%
X110349420Y-70864000D02*
X110630580Y-70864000D01*
X110349420Y-71884000D02*
X110630580Y-71884000D01*
%TO.C,C9*%
X110349420Y-67562000D02*
X110630580Y-67562000D01*
X110349420Y-68582000D02*
X110630580Y-68582000D01*
%TO.C,C7*%
X126236000Y-42812580D02*
X126236000Y-42531420D01*
X127256000Y-42812580D02*
X127256000Y-42531420D01*
%TO.C,C6*%
X137158000Y-42812580D02*
X137158000Y-42531420D01*
X138178000Y-42812580D02*
X138178000Y-42531420D01*
%TO.C,C5*%
X122523080Y-53596000D02*
X122241920Y-53596000D01*
X122523080Y-52576000D02*
X122241920Y-52576000D01*
%TO.C,C3*%
X123654500Y-56996420D02*
X123654500Y-57277580D01*
X122634500Y-56996420D02*
X122634500Y-57277580D01*
%TD*%
M02*
