M48
; DRILL file {KiCad 7.0.9} date Mon Dec  9 18:28:08 2024
; FORMAT={-:-/ absolute / inch / decimal}
; #@! TF.CreationDate,2024-12-09T18:28:08-04:00
; #@! TF.GenerationSoftware,Kicad,Pcbnew,7.0.9
; #@! TF.FileFunction,Plated,1,2,PTH
FMAT,2
INCH
; #@! TA.AperFunction,Plated,PTH,ComponentDrill
T1C0.0079
; #@! TA.AperFunction,Plated,PTH,ViaDrill
T2C0.0157
; #@! TA.AperFunction,Plated,PTH,ComponentDrill
T3C0.0236
; #@! TA.AperFunction,Plated,PTH,ComponentDrill
T4C0.0394
%
G90
G05
T1
X3.9908Y-2.1672
X3.9908Y-2.2223
X4.0184Y-2.1396
X4.0184Y-2.1947
X4.0184Y-2.2498
X4.0459Y-2.1672
X4.0459Y-2.2223
X4.0735Y-2.1396
X4.0735Y-2.1947
X4.0735Y-2.2498
X4.1011Y-2.1672
X4.1011Y-2.2223
T2
X3.55Y-2.83
X3.64Y-2.22
X3.65Y-2.01
X3.65Y-2.28
X3.65Y-2.37
X3.65Y-2.43
X3.67Y-2.48
X3.67Y-2.83
X3.68Y-1.89
X3.84Y-1.95
X3.89Y-1.99
X3.9Y-2.16
X3.9Y-2.68
X3.93Y-2.29
X3.98Y-2.33
X4.03Y-2.4
X4.06Y-2.44
X4.11Y-2.68
X4.13Y-2.52
X4.15Y-2.93
X4.17Y-2.19
X4.22Y-2.72
X4.41Y-2.98
X4.43Y-2.87
X4.46Y-2.71
X4.56Y-1.98
X4.62Y-1.66
X4.63Y-2.62
X4.65Y-2.5
X4.67Y-1.87
X4.69Y-2.07
X4.74Y-2.01
X4.76Y-2.29
X4.81Y-2.86
X4.86Y-1.79
X4.9Y-2.16
X4.9Y-2.37
X4.91Y-2.88
X4.92Y-2.02
X4.92Y-2.27
X4.93Y-1.61
X4.98Y-2.95
X5.0Y-1.92
X5.02Y-2.51
X5.03Y-2.44
X5.05Y-1.67
X5.06Y-1.61
X5.11Y-2.7
X5.17Y-2.7
X5.18Y-2.43
X5.18Y-2.5
X5.18Y-2.65
X5.23Y-2.85
X5.23Y-3.06
X5.27Y-1.9
X5.35Y-1.62
X5.39Y-1.79
X5.42Y-1.97
X5.43Y-2.22
X5.48Y-1.63
X5.48Y-1.9
X5.51Y-2.85
X5.51Y-3.07
T4
X3.551Y-1.91
X3.551Y-2.01
X3.551Y-2.11
X3.551Y-2.21
X3.551Y-2.31
X3.551Y-2.41
X3.551Y-2.51
X3.551Y-2.61
T3
G00X5.2496Y-2.3986
M15
G01X5.2929Y-2.3986
M16
G05
G00X5.2496Y-2.7392
M15
G01X5.2929Y-2.7392
M16
G05
G00X5.4197Y-2.3986
M15
G01X5.4512Y-2.3986
M16
G05
G00X5.4197Y-2.7392
M15
G01X5.4512Y-2.7392
M16
G05
T0
M30
