%TF.GenerationSoftware,KiCad,Pcbnew,7.0.9*%
%TF.CreationDate,2024-12-09T18:27:57-04:00*%
%TF.ProjectId,ESP 32 LM,45535020-3332-4204-9c4d-2e6b69636164,rev?*%
%TF.SameCoordinates,Original*%
%TF.FileFunction,Copper,L1,Top*%
%TF.FilePolarity,Positive*%
%FSLAX46Y46*%
G04 Gerber Fmt 4.6, Leading zero omitted, Abs format (unit mm)*
G04 Created by KiCad (PCBNEW 7.0.9) date 2024-12-09 18:27:57*
%MOMM*%
%LPD*%
G01*
G04 APERTURE LIST*
G04 Aperture macros list*
%AMRoundRect*
0 Rectangle with rounded corners*
0 $1 Rounding radius*
0 $2 $3 $4 $5 $6 $7 $8 $9 X,Y pos of 4 corners*
0 Add a 4 corners polygon primitive as box body*
4,1,4,$2,$3,$4,$5,$6,$7,$8,$9,$2,$3,0*
0 Add four circle primitives for the rounded corners*
1,1,$1+$1,$2,$3*
1,1,$1+$1,$4,$5*
1,1,$1+$1,$6,$7*
1,1,$1+$1,$8,$9*
0 Add four rect primitives between the rounded corners*
20,1,$1+$1,$2,$3,$4,$5,0*
20,1,$1+$1,$4,$5,$6,$7,0*
20,1,$1+$1,$6,$7,$8,$9,0*
20,1,$1+$1,$8,$9,$2,$3,0*%
G04 Aperture macros list end*
%TA.AperFunction,SMDPad,CuDef*%
%ADD10RoundRect,0.250000X0.262500X0.450000X-0.262500X0.450000X-0.262500X-0.450000X0.262500X-0.450000X0*%
%TD*%
%TA.AperFunction,SMDPad,CuDef*%
%ADD11RoundRect,0.250000X0.650000X-0.325000X0.650000X0.325000X-0.650000X0.325000X-0.650000X-0.325000X0*%
%TD*%
%TA.AperFunction,SMDPad,CuDef*%
%ADD12RoundRect,0.250000X0.325000X0.650000X-0.325000X0.650000X-0.325000X-0.650000X0.325000X-0.650000X0*%
%TD*%
%TA.AperFunction,SMDPad,CuDef*%
%ADD13RoundRect,0.250000X-0.650000X0.325000X-0.650000X-0.325000X0.650000X-0.325000X0.650000X0.325000X0*%
%TD*%
%TA.AperFunction,SMDPad,CuDef*%
%ADD14R,0.900000X1.500000*%
%TD*%
%TA.AperFunction,SMDPad,CuDef*%
%ADD15R,1.500000X0.900000*%
%TD*%
%TA.AperFunction,ComponentPad*%
%ADD16C,0.400000*%
%TD*%
%TA.AperFunction,SMDPad,CuDef*%
%ADD17R,0.900000X0.900000*%
%TD*%
%TA.AperFunction,SMDPad,CuDef*%
%ADD18RoundRect,0.098250X-0.556750X-1.521750X0.556750X-1.521750X0.556750X1.521750X-0.556750X1.521750X0*%
%TD*%
%TA.AperFunction,SMDPad,CuDef*%
%ADD19RoundRect,0.069750X-0.585250X-0.395250X0.585250X-0.395250X0.585250X0.395250X-0.585250X0.395250X0*%
%TD*%
%TA.AperFunction,SMDPad,CuDef*%
%ADD20R,1.050000X0.650000*%
%TD*%
%TA.AperFunction,SMDPad,CuDef*%
%ADD21RoundRect,0.200000X-0.200000X-0.275000X0.200000X-0.275000X0.200000X0.275000X-0.200000X0.275000X0*%
%TD*%
%TA.AperFunction,ComponentPad*%
%ADD22O,1.700000X1.700000*%
%TD*%
%TA.AperFunction,ComponentPad*%
%ADD23R,1.700000X1.700000*%
%TD*%
%TA.AperFunction,ComponentPad*%
%ADD24O,1.700000X0.900000*%
%TD*%
%TA.AperFunction,ComponentPad*%
%ADD25O,2.000000X0.900000*%
%TD*%
%TA.AperFunction,SMDPad,CuDef*%
%ADD26R,1.140000X0.600000*%
%TD*%
%TA.AperFunction,SMDPad,CuDef*%
%ADD27R,1.140000X0.300000*%
%TD*%
%TA.AperFunction,SMDPad,CuDef*%
%ADD28R,1.500000X1.000000*%
%TD*%
%TA.AperFunction,SMDPad,CuDef*%
%ADD29RoundRect,0.218750X0.218750X0.256250X-0.218750X0.256250X-0.218750X-0.256250X0.218750X-0.256250X0*%
%TD*%
%TA.AperFunction,SMDPad,CuDef*%
%ADD30R,1.210000X0.730000*%
%TD*%
%TA.AperFunction,SMDPad,CuDef*%
%ADD31R,0.480000X0.400000*%
%TD*%
%TA.AperFunction,SMDPad,CuDef*%
%ADD32RoundRect,0.225000X-0.225000X-0.250000X0.225000X-0.250000X0.225000X0.250000X-0.225000X0.250000X0*%
%TD*%
%TA.AperFunction,SMDPad,CuDef*%
%ADD33RoundRect,0.225000X0.250000X-0.225000X0.250000X0.225000X-0.250000X0.225000X-0.250000X-0.225000X0*%
%TD*%
%TA.AperFunction,SMDPad,CuDef*%
%ADD34RoundRect,0.225000X0.225000X0.250000X-0.225000X0.250000X-0.225000X-0.250000X0.225000X-0.250000X0*%
%TD*%
%TA.AperFunction,SMDPad,CuDef*%
%ADD35RoundRect,0.225000X-0.250000X0.225000X-0.250000X-0.225000X0.250000X-0.225000X0.250000X0.225000X0*%
%TD*%
%TA.AperFunction,ViaPad*%
%ADD36C,0.800000*%
%TD*%
%TA.AperFunction,Conductor*%
%ADD37C,0.250000*%
%TD*%
%TA.AperFunction,Conductor*%
%ADD38C,0.200000*%
%TD*%
G04 APERTURE END LIST*
D10*
%TO.P,R5,1*%
%TO.N,GPIO0*%
X131214500Y-46990000D03*
%TO.P,R5,2*%
%TO.N,ESP_3V3*%
X129389500Y-46990000D03*
%TD*%
%TO.P,R4,1*%
%TO.N,CHIP_PU*%
X104036500Y-70104000D03*
%TO.P,R4,2*%
%TO.N,ESP_3V3*%
X102211500Y-70104000D03*
%TD*%
D11*
%TO.P,C10,1*%
%TO.N,ESP_3V3*%
X115824000Y-70817000D03*
%TO.P,C10,2*%
%TO.N,GND*%
X115824000Y-67867000D03*
%TD*%
D12*
%TO.P,C4,1*%
%TO.N,ESP_3V3*%
X123141000Y-48260000D03*
%TO.P,C4,2*%
%TO.N,GND*%
X120191000Y-48260000D03*
%TD*%
D13*
%TO.P,C1,1*%
%TO.N,VCC_5V*%
X129286000Y-71423000D03*
%TO.P,C1,2*%
%TO.N,GND*%
X129286000Y-74373000D03*
%TD*%
%TO.P,C2,1*%
%TO.N,VCC_5V*%
X118826500Y-55929000D03*
%TO.P,C2,2*%
%TO.N,GND*%
X118826500Y-58879000D03*
%TD*%
D14*
%TO.P,U3,26,IO45*%
%TO.N,unconnected-(U3-IO45-Pad26)*%
X111252000Y-65786000D03*
%TO.P,U3,25,IO48*%
%TO.N,unconnected-(U3-IO48-Pad25)*%
X109982000Y-65786000D03*
%TO.P,U3,24,IO47*%
%TO.N,unconnected-(U3-IO47-Pad24)*%
X108712000Y-65786000D03*
%TO.P,U3,23,IO21*%
%TO.N,unconnected-(U3-IO21-Pad23)*%
X107442000Y-65786000D03*
%TO.P,U3,22,IO14*%
%TO.N,unconnected-(U3-IO14-Pad22)*%
X106172000Y-65786000D03*
%TO.P,U3,21,IO13*%
%TO.N,BL*%
X104902000Y-65786000D03*
%TO.P,U3,20,IO12*%
%TO.N,RST*%
X103632000Y-65786000D03*
%TO.P,U3,19,IO11*%
%TO.N,DC*%
X102362000Y-65786000D03*
%TO.P,U3,18,IO10*%
%TO.N,CS*%
X101092000Y-65786000D03*
%TO.P,U3,17,IO9*%
%TO.N,CLK*%
X99822000Y-65786000D03*
%TO.P,U3,16,IO46*%
%TO.N,unconnected-(U3-IO46-Pad16)*%
X98552000Y-65786000D03*
D15*
%TO.P,U3,40,GND*%
%TO.N,GND*%
X113017000Y-48026000D03*
%TO.P,U3,39,IO1*%
%TO.N,unconnected-(U3-IO1-Pad39)*%
X113017000Y-49296000D03*
%TO.P,U3,38,IO2*%
%TO.N,unconnected-(U3-IO2-Pad38)*%
X113017000Y-50566000D03*
%TO.P,U3,37,TXD0*%
%TO.N,unconnected-(U3-TXD0-Pad37)*%
X113017000Y-51836000D03*
%TO.P,U3,36,RXD0*%
%TO.N,unconnected-(U3-RXD0-Pad36)*%
X113017000Y-53106000D03*
%TO.P,U3,35,IO42*%
%TO.N,unconnected-(U3-IO42-Pad35)*%
X113017000Y-54376000D03*
%TO.P,U3,34,IO41*%
%TO.N,unconnected-(U3-IO41-Pad34)*%
X113017000Y-55646000D03*
%TO.P,U3,33,IO40*%
%TO.N,unconnected-(U3-IO40-Pad33)*%
X113017000Y-56916000D03*
%TO.P,U3,32,IO39*%
%TO.N,unconnected-(U3-IO39-Pad32)*%
X113017000Y-58186000D03*
%TO.P,U3,31,IO38*%
%TO.N,unconnected-(U3-IO38-Pad31)*%
X113017000Y-59456000D03*
%TO.P,U3,30,IO37*%
%TO.N,unconnected-(U3-IO37-Pad30)*%
X113017000Y-60726000D03*
%TO.P,U3,29,IO36*%
%TO.N,unconnected-(U3-IO36-Pad29)*%
X113017000Y-61996000D03*
%TO.P,U3,28,IO35*%
%TO.N,unconnected-(U3-IO35-Pad28)*%
X113017000Y-63266000D03*
%TO.P,U3,27,IO0*%
%TO.N,GPIO0*%
X113017000Y-64536000D03*
D14*
%TO.P,U3,15,IO3*%
%TO.N,unconnected-(U3-IO3-Pad15)*%
X97282000Y-65786000D03*
D15*
%TO.P,U3,14,IO20*%
%TO.N,D+*%
X95517000Y-64536000D03*
%TO.P,U3,13,IO19*%
%TO.N,D-*%
X95517000Y-63266000D03*
%TO.P,U3,12,IO8*%
%TO.N,DIN*%
X95517000Y-61996000D03*
%TO.P,U3,11,IO18*%
%TO.N,unconnected-(U3-IO18-Pad11)*%
X95517000Y-60726000D03*
%TO.P,U3,10,IO17*%
%TO.N,unconnected-(U3-IO17-Pad10)*%
X95517000Y-59456000D03*
%TO.P,U3,9,IO16*%
%TO.N,unconnected-(U3-IO16-Pad9)*%
X95517000Y-58186000D03*
%TO.P,U3,8,IO15*%
%TO.N,unconnected-(U3-IO15-Pad8)*%
X95517000Y-56916000D03*
%TO.P,U3,7,IO7*%
%TO.N,unconnected-(U3-IO7-Pad7)*%
X95517000Y-55646000D03*
%TO.P,U3,6,IO6*%
%TO.N,unconnected-(U3-IO6-Pad6)*%
X95517000Y-54376000D03*
%TO.P,U3,5,IO5*%
%TO.N,unconnected-(U3-IO5-Pad5)*%
X95517000Y-53106000D03*
%TO.P,U3,4,IO4*%
%TO.N,unconnected-(U3-IO4-Pad4)*%
X95517000Y-51836000D03*
%TO.P,U3,3,EN*%
%TO.N,CHIP_PU*%
X95517000Y-50566000D03*
%TO.P,U3,2,3V3*%
%TO.N,ESP_3V3*%
X95517000Y-49296000D03*
D16*
%TO.P,U3,41_21*%
%TO.N,N/C*%
X103467000Y-57146000D03*
%TO.P,U3,41_20*%
X102067000Y-57146000D03*
%TO.P,U3,41_19*%
X103467000Y-55746000D03*
%TO.P,U3,41_18*%
X102067000Y-55746000D03*
%TO.P,U3,41_17*%
X103467000Y-54346000D03*
%TO.P,U3,41_16*%
X102067000Y-54346000D03*
%TO.P,U3,41_15*%
X104167000Y-56446000D03*
%TO.P,U3,41_14*%
X102767000Y-56446000D03*
%TO.P,U3,41_13*%
X101367000Y-56446000D03*
%TO.P,U3,41_12*%
X104167000Y-55046000D03*
%TO.P,U3,41_11*%
X101367000Y-55046000D03*
%TO.P,U3,41_10*%
X102767000Y-55046000D03*
D17*
%TO.P,U3,41_9,GND*%
%TO.N,GND*%
X104167000Y-54346000D03*
%TO.P,U3,41_8,GND*%
X102767000Y-54346000D03*
%TO.P,U3,41_7,GND*%
X101367000Y-54346000D03*
%TO.P,U3,41_6,GND*%
X104167000Y-57146000D03*
%TO.P,U3,41_5,GND*%
X102767000Y-57146000D03*
%TO.P,U3,41_4,GND*%
X101367000Y-57146000D03*
%TO.P,U3,41_3,GND*%
X104167000Y-55746000D03*
%TO.P,U3,41_2,GND*%
X101367000Y-55746000D03*
D15*
%TO.P,U3,1,GND*%
X95517000Y-48026000D03*
D17*
%TO.P,U3,41_1,GND*%
X102767000Y-55746000D03*
%TD*%
D18*
%TO.P,U1,4*%
%TO.N,N/C*%
X133601500Y-53086000D03*
D19*
%TO.P,U1,3,VIN*%
%TO.N,VCC_5V*%
X126911500Y-55376000D03*
%TO.P,U1,2,VOUT*%
%TO.N,ESP_3V3*%
X126911500Y-53086000D03*
%TO.P,U1,1,GND/ADJ*%
%TO.N,GND*%
X126911500Y-50796000D03*
%TD*%
D20*
%TO.P,SW2,4*%
%TO.N,CHIP_PU*%
X123487000Y-43493000D03*
%TO.P,SW2,3*%
X119337000Y-43493000D03*
%TO.P,SW2,2*%
%TO.N,GND*%
X123487000Y-41343000D03*
%TO.P,SW2,1*%
X119337000Y-41343000D03*
%TD*%
%TO.P,SW1,4*%
%TO.N,GPIO0*%
X134155000Y-43493000D03*
%TO.P,SW1,3*%
X130005000Y-43493000D03*
%TO.P,SW1,2*%
%TO.N,GND*%
X134155000Y-41343000D03*
%TO.P,SW1,1*%
X130005000Y-41343000D03*
%TD*%
D21*
%TO.P,R3,2*%
%TO.N,Net-(D5-A)*%
X118427000Y-74422000D03*
%TO.P,R3,1*%
%TO.N,ESP_3V3*%
X116777000Y-74422000D03*
%TD*%
%TO.P,R2,2*%
%TO.N,GND*%
X138447500Y-54864000D03*
%TO.P,R2,1*%
%TO.N,Net-(J1-CC2)*%
X136797500Y-54864000D03*
%TD*%
%TO.P,R1,2*%
%TO.N,GND*%
X138447500Y-51562000D03*
%TO.P,R1,1*%
%TO.N,Net-(J1-CC1)*%
X136797500Y-51562000D03*
%TD*%
D22*
%TO.P,J2,8,Pin_8*%
%TO.N,BL*%
X90195000Y-66294000D03*
%TO.P,J2,7,Pin_7*%
%TO.N,RST*%
X90195000Y-63754000D03*
%TO.P,J2,6,Pin_6*%
%TO.N,DC*%
X90195000Y-61214000D03*
%TO.P,J2,5,Pin_5*%
%TO.N,CS*%
X90195000Y-58674000D03*
%TO.P,J2,4,Pin_4*%
%TO.N,CLK*%
X90195000Y-56134000D03*
%TO.P,J2,3,Pin_3*%
%TO.N,DIN*%
X90195000Y-53594000D03*
%TO.P,J2,2,Pin_2*%
%TO.N,GND*%
X90195000Y-51054000D03*
D23*
%TO.P,J2,1,Pin_1*%
%TO.N,ESP_3V3*%
X90195000Y-48514000D03*
%TD*%
D24*
%TO.P,J1,S4,SHIELD*%
%TO.N,GND*%
X138060500Y-60925000D03*
%TO.P,J1,S3,SHIELD*%
X138060500Y-69575000D03*
D25*
%TO.P,J1,S2,SHIELD*%
X133890500Y-60925000D03*
%TO.P,J1,S1,SHIELD*%
X133890500Y-69575000D03*
D26*
%TO.P,J1,B1_A12,GND*%
X133310500Y-62050000D03*
%TO.P,J1,B4_A9,VBUS*%
%TO.N,Net-(D1-Pad2)*%
X133310500Y-62850000D03*
D27*
%TO.P,J1,B5,CC2*%
%TO.N,Net-(J1-CC2)*%
X133310500Y-63500000D03*
%TO.P,J1,A8,SBU1*%
%TO.N,unconnected-(J1-SBU1-PadA8)*%
X133310500Y-64000000D03*
%TO.P,J1,B6,DP2*%
%TO.N,D+*%
X133310500Y-64500000D03*
%TO.P,J1,A7,DN1*%
%TO.N,D-*%
X133310500Y-65000000D03*
%TO.P,J1,B8,SBU2*%
%TO.N,unconnected-(J1-SBU2-PadB8)*%
X133310500Y-67000000D03*
%TO.P,J1,A5,CC1*%
%TO.N,Net-(J1-CC1)*%
X133310500Y-66500000D03*
%TO.P,J1,B7,DN2*%
%TO.N,D-*%
X133310500Y-66000000D03*
%TO.P,J1,A6,DP1*%
%TO.N,D+*%
X133310500Y-65500000D03*
D26*
%TO.P,J1,A4_B9,VBUS*%
%TO.N,Net-(D1-Pad2)*%
X133310500Y-67650000D03*
%TO.P,J1,A1_B12,GND*%
%TO.N,GND*%
X133310500Y-68450000D03*
%TD*%
D28*
%TO.P,D6,4,DOUT*%
%TO.N,unconnected-(D6-DOUT-Pad4)*%
X119724000Y-70688000D03*
%TO.P,D6,3,VDD*%
%TO.N,ESP_3V3*%
X119724000Y-67488000D03*
%TO.P,D6,2,DIN*%
%TO.N,RGB*%
X124624000Y-67488000D03*
%TO.P,D6,1,VSS*%
%TO.N,GND*%
X124624000Y-70688000D03*
%TD*%
D29*
%TO.P,D5,2,A*%
%TO.N,Net-(D5-A)*%
X122402500Y-74422000D03*
%TO.P,D5,1,K*%
%TO.N,GND*%
X123977500Y-74422000D03*
%TD*%
D30*
%TO.P,D4,A*%
%TO.N,Net-(D1-Pad2)*%
X130458000Y-59944000D03*
%TO.P,D4,C*%
%TO.N,VCC_5V*%
X127098000Y-59944000D03*
%TD*%
D31*
%TO.P,D3,2*%
%TO.N,D+*%
X130454000Y-64262000D03*
%TO.P,D3,1*%
%TO.N,GND*%
X129134000Y-64262000D03*
%TD*%
%TO.P,D2,2*%
%TO.N,D-*%
X130454000Y-67310000D03*
%TO.P,D2,1*%
%TO.N,GND*%
X129134000Y-67310000D03*
%TD*%
%TO.P,D1,2*%
%TO.N,Net-(D1-Pad2)*%
X130454000Y-62484000D03*
%TO.P,D1,1*%
%TO.N,GND*%
X129134000Y-62484000D03*
%TD*%
D32*
%TO.P,C11,2*%
%TO.N,GND*%
X111265000Y-71374000D03*
%TO.P,C11,1*%
%TO.N,CHIP_PU*%
X109715000Y-71374000D03*
%TD*%
%TO.P,C9,2*%
%TO.N,GND*%
X111265000Y-68072000D03*
%TO.P,C9,1*%
%TO.N,ESP_3V3*%
X109715000Y-68072000D03*
%TD*%
D33*
%TO.P,C7,2*%
%TO.N,GND*%
X126746000Y-41897000D03*
%TO.P,C7,1*%
%TO.N,CHIP_PU*%
X126746000Y-43447000D03*
%TD*%
%TO.P,C6,2*%
%TO.N,GND*%
X137668000Y-41897000D03*
%TO.P,C6,1*%
%TO.N,GPIO0*%
X137668000Y-43447000D03*
%TD*%
D34*
%TO.P,C5,2*%
%TO.N,GND*%
X121607500Y-53086000D03*
%TO.P,C5,1*%
%TO.N,ESP_3V3*%
X123157500Y-53086000D03*
%TD*%
D35*
%TO.P,C3,2*%
%TO.N,GND*%
X123144500Y-57912000D03*
%TO.P,C3,1*%
%TO.N,VCC_5V*%
X123144500Y-56362000D03*
%TD*%
D36*
%TO.N,GND*%
X139954000Y-77978000D03*
X132842000Y-77724000D03*
X139954000Y-72390000D03*
X132842000Y-72390000D03*
X99060000Y-68072000D03*
X123444000Y-45466000D03*
X136906000Y-45466000D03*
X139192000Y-48260000D03*
X133858000Y-48260000D03*
X112014000Y-75692000D03*
X118110000Y-63500000D03*
X105410000Y-74422000D03*
X93218000Y-71882000D03*
X90170000Y-71882000D03*
X105918000Y-55626000D03*
X99060000Y-54864000D03*
X131318000Y-68580000D03*
X131572000Y-61722000D03*
X137668000Y-50038000D03*
X137922000Y-56388000D03*
X127508000Y-63754000D03*
X127762000Y-61976000D03*
%TO.N,Net-(D1-Pad2)*%
X131572000Y-67310000D03*
X131572000Y-63500000D03*
%TO.N,BL*%
X104902000Y-64008000D03*
X93218000Y-62992000D03*
%TO.N,RST*%
X92710000Y-61722000D03*
X103124000Y-61976000D03*
%TO.N,DC*%
X102362000Y-60960000D03*
X92710000Y-60198000D03*
%TO.N,CS*%
X101092000Y-59182000D03*
X92710000Y-57912000D03*
%TO.N,CLK*%
X99822000Y-58166000D03*
X92456000Y-56388000D03*
%TO.N,GND*%
X92710000Y-51054000D03*
%TO.N,ESP_3V3*%
X124460000Y-54864000D03*
X124460000Y-60198000D03*
%TO.N,GND*%
X113284000Y-68834000D03*
X129794000Y-68580000D03*
X122174000Y-72644000D03*
X126492000Y-74930000D03*
X124714000Y-73152000D03*
X112522000Y-72898000D03*
X117602000Y-66548000D03*
X120904000Y-58166000D03*
X124968000Y-57658000D03*
X119126000Y-52578000D03*
X124968000Y-51308000D03*
X118618000Y-47498000D03*
X139192000Y-41402000D03*
X135890000Y-41148000D03*
X128524000Y-40894000D03*
X128270000Y-42418000D03*
X125222000Y-40894000D03*
X117348000Y-42164000D03*
X93472000Y-48006000D03*
%TO.N,CHIP_PU*%
X107188000Y-69088000D03*
%TO.N,GPIO0*%
X127000000Y-48768000D03*
X120396000Y-51054000D03*
%TO.N,ESP_3V3*%
X97536000Y-49530000D03*
X104394000Y-68072000D03*
%TO.N,CHIP_PU*%
X98806000Y-50546000D03*
X115824000Y-50292000D03*
%TD*%
D37*
%TO.N,GND*%
X105798000Y-55746000D02*
X105918000Y-55626000D01*
X104167000Y-55746000D02*
X105798000Y-55746000D01*
X99942000Y-55746000D02*
X99060000Y-54864000D01*
X101367000Y-55746000D02*
X99942000Y-55746000D01*
X127749000Y-41897000D02*
X126746000Y-41897000D01*
X128270000Y-42418000D02*
X127749000Y-41897000D01*
X131448000Y-68450000D02*
X131318000Y-68580000D01*
X133310500Y-68450000D02*
X131448000Y-68450000D01*
X131900000Y-62050000D02*
X131572000Y-61722000D01*
X133310500Y-62050000D02*
X131900000Y-62050000D01*
%TO.N,Net-(J1-CC1)*%
X136797500Y-52469500D02*
X136797500Y-51562000D01*
X137668000Y-53340000D02*
X136797500Y-52469500D01*
X136398000Y-59690000D02*
X139954000Y-56134000D01*
X139192000Y-53340000D02*
X137668000Y-53340000D01*
X136398000Y-64770000D02*
X136398000Y-59690000D01*
X134668000Y-66500000D02*
X136398000Y-64770000D01*
X139954000Y-56134000D02*
X139954000Y-54102000D01*
X139954000Y-54102000D02*
X139192000Y-53340000D01*
X133310500Y-66500000D02*
X134668000Y-66500000D01*
%TO.N,Net-(J1-CC2)*%
X134112000Y-57549500D02*
X136797500Y-54864000D01*
X134112000Y-57912000D02*
X134112000Y-57549500D01*
X135636000Y-62992000D02*
X135636000Y-59436000D01*
X135128000Y-63500000D02*
X135636000Y-62992000D01*
X135636000Y-59436000D02*
X134112000Y-57912000D01*
X133310500Y-63500000D02*
X135128000Y-63500000D01*
%TO.N,GND*%
X138447500Y-50817500D02*
X138447500Y-51562000D01*
X137668000Y-50038000D02*
X138447500Y-50817500D01*
X138447500Y-55862500D02*
X137922000Y-56388000D01*
X138447500Y-54864000D02*
X138447500Y-55862500D01*
X128016000Y-64262000D02*
X127508000Y-63754000D01*
X129134000Y-64262000D02*
X128016000Y-64262000D01*
X128270000Y-62484000D02*
X127762000Y-61976000D01*
X129134000Y-62484000D02*
X128270000Y-62484000D01*
%TO.N,Net-(D1-Pad2)*%
X131912000Y-67650000D02*
X133310500Y-67650000D01*
X131572000Y-67310000D02*
X131912000Y-67650000D01*
X130922000Y-62850000D02*
X131572000Y-63500000D01*
X130820000Y-62850000D02*
X130922000Y-62850000D01*
%TO.N,BL*%
X93218000Y-63271000D02*
X90195000Y-66294000D01*
X93218000Y-62992000D02*
X93218000Y-63271000D01*
%TO.N,RST*%
X103632000Y-62484000D02*
X103632000Y-65786000D01*
X103124000Y-61976000D02*
X103632000Y-62484000D01*
%TO.N,BL*%
X104902000Y-64008000D02*
X104902000Y-65786000D01*
%TO.N,RST*%
X90678000Y-63754000D02*
X90195000Y-63754000D01*
X92710000Y-61722000D02*
X90678000Y-63754000D01*
%TO.N,DC*%
X102362000Y-60960000D02*
X102362000Y-65786000D01*
%TO.N,CS*%
X101092000Y-59182000D02*
X101092000Y-65786000D01*
%TO.N,DC*%
X92710000Y-60198000D02*
X91694000Y-61214000D01*
X91694000Y-61214000D02*
X90195000Y-61214000D01*
%TO.N,CS*%
X92710000Y-57912000D02*
X91948000Y-58674000D01*
X91948000Y-58674000D02*
X90195000Y-58674000D01*
%TO.N,CLK*%
X99822000Y-58166000D02*
X99822000Y-65786000D01*
X92202000Y-56134000D02*
X92456000Y-56388000D01*
X90195000Y-56134000D02*
X92202000Y-56134000D01*
%TO.N,DIN*%
X93726000Y-61722000D02*
X94000000Y-61996000D01*
X94000000Y-61996000D02*
X95517000Y-61996000D01*
X93726000Y-54864000D02*
X93726000Y-61722000D01*
X90195000Y-53594000D02*
X92456000Y-53594000D01*
X92456000Y-53594000D02*
X93726000Y-54864000D01*
%TO.N,GND*%
X90195000Y-51054000D02*
X92710000Y-51054000D01*
%TO.N,ESP_3V3*%
X124460000Y-54864000D02*
X124460000Y-54388500D01*
X124460000Y-54388500D02*
X123157500Y-53086000D01*
X119724000Y-67488000D02*
X119724000Y-64934000D01*
X119724000Y-64934000D02*
X124460000Y-60198000D01*
%TO.N,GND*%
X112522000Y-68072000D02*
X113284000Y-68834000D01*
X111265000Y-68072000D02*
X112522000Y-68072000D01*
X129134000Y-67920000D02*
X129794000Y-68580000D01*
X129134000Y-67310000D02*
X129134000Y-67920000D01*
X124130000Y-70688000D02*
X122174000Y-72644000D01*
X124624000Y-70688000D02*
X124130000Y-70688000D01*
X127049000Y-74373000D02*
X126492000Y-74930000D01*
X129286000Y-74373000D02*
X127049000Y-74373000D01*
X123977500Y-73888500D02*
X124714000Y-73152000D01*
X123977500Y-74422000D02*
X123977500Y-73888500D01*
X111265000Y-71641000D02*
X112522000Y-72898000D01*
X111265000Y-71374000D02*
X111265000Y-71641000D01*
X116283000Y-67867000D02*
X117602000Y-66548000D01*
X115824000Y-67867000D02*
X116283000Y-67867000D01*
X120191000Y-58879000D02*
X120904000Y-58166000D01*
X118826500Y-58879000D02*
X120191000Y-58879000D01*
X124714000Y-57912000D02*
X124968000Y-57658000D01*
X123144500Y-57912000D02*
X124714000Y-57912000D01*
X119634000Y-53086000D02*
X119126000Y-52578000D01*
X121607500Y-53086000D02*
X119634000Y-53086000D01*
X125480000Y-50796000D02*
X124968000Y-51308000D01*
X126911500Y-50796000D02*
X125480000Y-50796000D01*
X119380000Y-48260000D02*
X118618000Y-47498000D01*
X120191000Y-48260000D02*
X119380000Y-48260000D01*
X138697000Y-41897000D02*
X139192000Y-41402000D01*
X137668000Y-41897000D02*
X138697000Y-41897000D01*
X135695000Y-41343000D02*
X135890000Y-41148000D01*
X134155000Y-41343000D02*
X135695000Y-41343000D01*
X128973000Y-41343000D02*
X130005000Y-41343000D01*
X128524000Y-40894000D02*
X128973000Y-41343000D01*
X124773000Y-41343000D02*
X125222000Y-40894000D01*
X123487000Y-41343000D02*
X124773000Y-41343000D01*
X118169000Y-41343000D02*
X117348000Y-42164000D01*
X119337000Y-41343000D02*
X118169000Y-41343000D01*
X95517000Y-48026000D02*
X113017000Y-48026000D01*
X93472000Y-48006000D02*
X95497000Y-48006000D01*
X95497000Y-48006000D02*
X95517000Y-48026000D01*
%TO.N,CHIP_PU*%
X106172000Y-70104000D02*
X107188000Y-69088000D01*
X104036500Y-70104000D02*
X106172000Y-70104000D01*
%TO.N,GPIO0*%
X129436500Y-48768000D02*
X131214500Y-46990000D01*
X127000000Y-48768000D02*
X129436500Y-48768000D01*
X117602000Y-51054000D02*
X120396000Y-51054000D01*
X116332000Y-52324000D02*
X117602000Y-51054000D01*
X116332000Y-62221000D02*
X116332000Y-52324000D01*
X114017000Y-64536000D02*
X116332000Y-62221000D01*
X113017000Y-64536000D02*
X114017000Y-64536000D01*
%TO.N,Net-(D1-Pad2)*%
X130458000Y-62480000D02*
X130454000Y-62484000D01*
X130458000Y-59944000D02*
X130458000Y-62480000D01*
%TO.N,GPIO0*%
X131214500Y-44702500D02*
X130005000Y-43493000D01*
X131214500Y-46990000D02*
X131214500Y-44702500D01*
%TO.N,ESP_3V3*%
X124411000Y-46990000D02*
X123141000Y-48260000D01*
X129389500Y-46990000D02*
X124411000Y-46990000D01*
X95751000Y-49530000D02*
X95517000Y-49296000D01*
X97536000Y-49530000D02*
X95751000Y-49530000D01*
X102211500Y-70104000D02*
X104243500Y-68072000D01*
X104243500Y-68072000D02*
X109715000Y-68072000D01*
%TO.N,VCC_5V*%
X125995993Y-61046007D02*
X127098000Y-59944000D01*
X125995993Y-69032993D02*
X125995993Y-61046007D01*
X128386000Y-71423000D02*
X125995993Y-69032993D01*
X129286000Y-71423000D02*
X128386000Y-71423000D01*
X127098000Y-59944000D02*
X127098000Y-57534500D01*
X127098000Y-57534500D02*
X125925500Y-56362000D01*
X123144500Y-56362000D02*
X125925500Y-56362000D01*
X125925500Y-56362000D02*
X126911500Y-55376000D01*
X122711500Y-55929000D02*
X123144500Y-56362000D01*
X118826500Y-55929000D02*
X122711500Y-55929000D01*
%TO.N,CHIP_PU*%
X98806000Y-50546000D02*
X98786000Y-50566000D01*
X98786000Y-50566000D02*
X95517000Y-50566000D01*
X117094000Y-44958000D02*
X117094000Y-49022000D01*
X118559000Y-43493000D02*
X117094000Y-44958000D01*
X117094000Y-49022000D02*
X115824000Y-50292000D01*
X119337000Y-43493000D02*
X118559000Y-43493000D01*
%TO.N,ESP_3V3*%
X90977000Y-49296000D02*
X95517000Y-49296000D01*
X90195000Y-48514000D02*
X90977000Y-49296000D01*
X123141000Y-48260000D02*
X123141000Y-53069500D01*
X123141000Y-53069500D02*
X123157500Y-53086000D01*
X126911500Y-53086000D02*
X123157500Y-53086000D01*
%TO.N,GPIO0*%
X137622000Y-43493000D02*
X137668000Y-43447000D01*
X134155000Y-43493000D02*
X137622000Y-43493000D01*
X130005000Y-43493000D02*
X134155000Y-43493000D01*
%TO.N,CHIP_PU*%
X126700000Y-43493000D02*
X126746000Y-43447000D01*
X123487000Y-43493000D02*
X126700000Y-43493000D01*
X119337000Y-43493000D02*
X123487000Y-43493000D01*
X105156000Y-71374000D02*
X104036500Y-70254500D01*
X109715000Y-71374000D02*
X105156000Y-71374000D01*
X104036500Y-70254500D02*
X104036500Y-70104000D01*
%TO.N,ESP_3V3*%
X119153000Y-67488000D02*
X119724000Y-67488000D01*
X115824000Y-70817000D02*
X119153000Y-67488000D01*
X112460000Y-70817000D02*
X109715000Y-68072000D01*
X115824000Y-70817000D02*
X112460000Y-70817000D01*
X116777000Y-71770000D02*
X115824000Y-70817000D01*
X116777000Y-74422000D02*
X116777000Y-71770000D01*
%TO.N,Net-(D5-A)*%
X122402500Y-74422000D02*
X118427000Y-74422000D01*
%TO.N,Net-(D1-Pad2)*%
X130820000Y-62850000D02*
X133310500Y-62850000D01*
X130454000Y-62484000D02*
X130820000Y-62850000D01*
D38*
%TO.N,D-*%
X95217000Y-63266000D02*
X95517000Y-63266000D01*
X94807000Y-63676000D02*
X95217000Y-63266000D01*
X94247800Y-63676000D02*
X94807000Y-63676000D01*
X92993000Y-64930800D02*
X94247800Y-63676000D01*
X92993000Y-66895200D02*
X92993000Y-64930800D01*
X104300800Y-78203000D02*
X92993000Y-66895200D01*
X131797000Y-76039200D02*
X129633200Y-78203000D01*
X131797000Y-69940171D02*
X131797000Y-76039200D01*
X131227829Y-69371000D02*
X131797000Y-69940171D01*
X126870993Y-67878793D02*
X128363200Y-69371000D01*
X126870993Y-67249207D02*
X126870993Y-67878793D01*
X128363200Y-69371000D02*
X131227829Y-69371000D01*
X128794999Y-66011000D02*
X128109200Y-66011000D01*
X130093999Y-67310000D02*
X128794999Y-66011000D01*
X130454000Y-67310000D02*
X130093999Y-67310000D01*
%TO.N,D+*%
X95217000Y-64536000D02*
X95517000Y-64536000D01*
X94807000Y-64126000D02*
X95217000Y-64536000D01*
%TO.N,D-*%
X129633200Y-78203000D02*
X104300800Y-78203000D01*
%TO.N,D+*%
X94434200Y-64126000D02*
X94807000Y-64126000D01*
X93443000Y-65117200D02*
X94434200Y-64126000D01*
X93443000Y-66708800D02*
X93443000Y-65117200D01*
X104487200Y-77753000D02*
X93443000Y-66708800D01*
%TO.N,D-*%
X128109200Y-66011000D02*
X126870993Y-67249207D01*
%TO.N,D+*%
X129446800Y-77753000D02*
X104487200Y-77753000D01*
X131347000Y-75852800D02*
X129446800Y-77753000D01*
X131347000Y-70126571D02*
X131347000Y-75852800D01*
X131041429Y-69821000D02*
X131347000Y-70126571D01*
X128176800Y-69821000D02*
X131041429Y-69821000D01*
X126420993Y-67062807D02*
X126420993Y-68065193D01*
X127922800Y-65561000D02*
X126420993Y-67062807D01*
X130454000Y-64262000D02*
X130093999Y-64262000D01*
X130093999Y-64262000D02*
X128794999Y-65561000D01*
X128794999Y-65561000D02*
X127922800Y-65561000D01*
X126420993Y-68065193D02*
X128176800Y-69821000D01*
%TO.N,D-*%
X131764000Y-66000000D02*
X130454000Y-67310000D01*
X133310500Y-66000000D02*
X131764000Y-66000000D01*
%TO.N,D+*%
X131431500Y-64262000D02*
X130454000Y-64262000D01*
X132080000Y-64910500D02*
X131431500Y-64262000D01*
%TO.N,D-*%
X134620000Y-65532000D02*
X134152000Y-66000000D01*
X134152000Y-66000000D02*
X133310500Y-66000000D01*
X134130500Y-65000000D02*
X134620000Y-65489500D01*
X134620000Y-65489500D02*
X134620000Y-65532000D01*
X133310500Y-65000000D02*
X134130500Y-65000000D01*
%TO.N,D+*%
X132556000Y-65500000D02*
X133310500Y-65500000D01*
X132490500Y-64500000D02*
X132080000Y-64910500D01*
X132080000Y-64910500D02*
X132080000Y-65024000D01*
X133310500Y-64500000D02*
X132490500Y-64500000D01*
X132080000Y-65024000D02*
X132556000Y-65500000D01*
%TD*%
%TA.AperFunction,Conductor*%
%TO.N,GND*%
G36*
X116468500Y-48711547D02*
G01*
X116448815Y-48778586D01*
X116432181Y-48799228D01*
X115876228Y-49355181D01*
X115814905Y-49388666D01*
X115788547Y-49391500D01*
X115729354Y-49391500D01*
X115699343Y-49397879D01*
X115544197Y-49430855D01*
X115544192Y-49430857D01*
X115371270Y-49507848D01*
X115371265Y-49507851D01*
X115218129Y-49619111D01*
X115091466Y-49759785D01*
X114996821Y-49923715D01*
X114996818Y-49923722D01*
X114949898Y-50068128D01*
X114938326Y-50103744D01*
X114918540Y-50292000D01*
X114938326Y-50480256D01*
X114938327Y-50480259D01*
X114996818Y-50660277D01*
X114996821Y-50660284D01*
X115091467Y-50824216D01*
X115172559Y-50914277D01*
X115218129Y-50964888D01*
X115371265Y-51076148D01*
X115371270Y-51076151D01*
X115544192Y-51153142D01*
X115544197Y-51153144D01*
X115729354Y-51192500D01*
X115729355Y-51192500D01*
X115918644Y-51192500D01*
X115918646Y-51192500D01*
X116103803Y-51153144D01*
X116276730Y-51076151D01*
X116429871Y-50964888D01*
X116556533Y-50824216D01*
X116651179Y-50660284D01*
X116709674Y-50480256D01*
X116727321Y-50312344D01*
X116753904Y-50247734D01*
X116762951Y-50237638D01*
X117477788Y-49522801D01*
X117490042Y-49512986D01*
X117489859Y-49512764D01*
X117495866Y-49507792D01*
X117495877Y-49507786D01*
X117526775Y-49474882D01*
X117543227Y-49457364D01*
X117553671Y-49446918D01*
X117564120Y-49436471D01*
X117568379Y-49430978D01*
X117572152Y-49426561D01*
X117604062Y-49392582D01*
X117613713Y-49375024D01*
X117624396Y-49358761D01*
X117636673Y-49342936D01*
X117655185Y-49300153D01*
X117657738Y-49294941D01*
X117680197Y-49254092D01*
X117685180Y-49234680D01*
X117691481Y-49216280D01*
X117699437Y-49197896D01*
X117706729Y-49151852D01*
X117707906Y-49146171D01*
X117719500Y-49101019D01*
X117719500Y-49080983D01*
X117721027Y-49061582D01*
X117724160Y-49041804D01*
X117719775Y-48995415D01*
X117719500Y-48989577D01*
X117719500Y-48510000D01*
X119116001Y-48510000D01*
X119116001Y-48959986D01*
X119126494Y-49062697D01*
X119181641Y-49229119D01*
X119181643Y-49229124D01*
X119273684Y-49378345D01*
X119397654Y-49502315D01*
X119546875Y-49594356D01*
X119546880Y-49594358D01*
X119713302Y-49649505D01*
X119713309Y-49649506D01*
X119816019Y-49659999D01*
X119940999Y-49659999D01*
X119941000Y-49659998D01*
X119941000Y-48510000D01*
X120441000Y-48510000D01*
X120441000Y-49659999D01*
X120565972Y-49659999D01*
X120565986Y-49659998D01*
X120668697Y-49649505D01*
X120835119Y-49594358D01*
X120835124Y-49594356D01*
X120984345Y-49502315D01*
X121108315Y-49378345D01*
X121200356Y-49229124D01*
X121200358Y-49229119D01*
X121255505Y-49062697D01*
X121255506Y-49062690D01*
X121265999Y-48959986D01*
X121266000Y-48959973D01*
X121266000Y-48510000D01*
X120441000Y-48510000D01*
X119941000Y-48510000D01*
X119116001Y-48510000D01*
X117719500Y-48510000D01*
X117719500Y-48010000D01*
X119116000Y-48010000D01*
X119941000Y-48010000D01*
X119941000Y-46860000D01*
X120441000Y-46860000D01*
X120441000Y-48010000D01*
X121265999Y-48010000D01*
X121265999Y-47560028D01*
X121265998Y-47560013D01*
X121255505Y-47457302D01*
X121200358Y-47290880D01*
X121200356Y-47290875D01*
X121108315Y-47141654D01*
X120984345Y-47017684D01*
X120835124Y-46925643D01*
X120835119Y-46925641D01*
X120668697Y-46870494D01*
X120668690Y-46870493D01*
X120565986Y-46860000D01*
X120441000Y-46860000D01*
X119941000Y-46860000D01*
X119816027Y-46860000D01*
X119816012Y-46860001D01*
X119713302Y-46870494D01*
X119546880Y-46925641D01*
X119546875Y-46925643D01*
X119397654Y-47017684D01*
X119273684Y-47141654D01*
X119181643Y-47290875D01*
X119181641Y-47290880D01*
X119126494Y-47457302D01*
X119126493Y-47457309D01*
X119116000Y-47560013D01*
X119116000Y-48010000D01*
X117719500Y-48010000D01*
X117719500Y-46736000D01*
X123780408Y-46736000D01*
X123723447Y-46792961D01*
X123685513Y-46830895D01*
X123624190Y-46864379D01*
X123585230Y-46866571D01*
X123516011Y-46859500D01*
X122765998Y-46859500D01*
X122765980Y-46859501D01*
X122663203Y-46870000D01*
X122663200Y-46870001D01*
X122496668Y-46925185D01*
X122496663Y-46925187D01*
X122347342Y-47017289D01*
X122223289Y-47141342D01*
X122131187Y-47290663D01*
X122131185Y-47290668D01*
X122116855Y-47333913D01*
X122076001Y-47457203D01*
X122076001Y-47457204D01*
X122076000Y-47457204D01*
X122065500Y-47559983D01*
X122065500Y-48960001D01*
X122065501Y-48960018D01*
X122076000Y-49062796D01*
X122076001Y-49062799D01*
X122131185Y-49229331D01*
X122131187Y-49229336D01*
X122153906Y-49266170D01*
X122223288Y-49378656D01*
X122347344Y-49502712D01*
X122456597Y-49570099D01*
X122503321Y-49622047D01*
X122515500Y-49675638D01*
X122515500Y-52175625D01*
X122495815Y-52242664D01*
X122479181Y-52263306D01*
X122469827Y-52272660D01*
X122408504Y-52306145D01*
X122338812Y-52301161D01*
X122294465Y-52272660D01*
X122285232Y-52263427D01*
X122285228Y-52263424D01*
X122140992Y-52174457D01*
X122140981Y-52174452D01*
X121980106Y-52121144D01*
X121880822Y-52111000D01*
X121857500Y-52111000D01*
X121857500Y-54060999D01*
X121880808Y-54060999D01*
X121880822Y-54060998D01*
X121980107Y-54050855D01*
X122140981Y-53997547D01*
X122140992Y-53997542D01*
X122285231Y-53908573D01*
X122294459Y-53899345D01*
X122355779Y-53865856D01*
X122425471Y-53870835D01*
X122469827Y-53899339D01*
X122479455Y-53908967D01*
X122479459Y-53908970D01*
X122623794Y-53997998D01*
X122623797Y-53997999D01*
X122623803Y-53998003D01*
X122784792Y-54051349D01*
X122884155Y-54061500D01*
X123197046Y-54061499D01*
X123264085Y-54081183D01*
X123284727Y-54097818D01*
X123591303Y-54404394D01*
X123624788Y-54465717D01*
X123621553Y-54530393D01*
X123583666Y-54646998D01*
X123574326Y-54675744D01*
X123554540Y-54864000D01*
X123574326Y-55052256D01*
X123574327Y-55052259D01*
X123632818Y-55232277D01*
X123632820Y-55232281D01*
X123632821Y-55232284D01*
X123632822Y-55232285D01*
X123633444Y-55233363D01*
X123633613Y-55234063D01*
X123635462Y-55238214D01*
X123634702Y-55238552D01*
X123649911Y-55301264D01*
X123627054Y-55367290D01*
X123572130Y-55410476D01*
X123513449Y-55418713D01*
X123442852Y-55411500D01*
X123442845Y-55411500D01*
X123107343Y-55411500D01*
X123040304Y-55391815D01*
X123033084Y-55386710D01*
X123032433Y-55386325D01*
X122989668Y-55367818D01*
X122984422Y-55365248D01*
X122943593Y-55342803D01*
X122943592Y-55342802D01*
X122924193Y-55337822D01*
X122905781Y-55331518D01*
X122887398Y-55323562D01*
X122887392Y-55323560D01*
X122841374Y-55316272D01*
X122835652Y-55315087D01*
X122790521Y-55303500D01*
X122790519Y-55303500D01*
X122770484Y-55303500D01*
X122751086Y-55301973D01*
X122743662Y-55300797D01*
X122731305Y-55298840D01*
X122731304Y-55298840D01*
X122684916Y-55303225D01*
X122679078Y-55303500D01*
X120242138Y-55303500D01*
X120175099Y-55283815D01*
X120136599Y-55244597D01*
X120069212Y-55135344D01*
X119945156Y-55011288D01*
X119795834Y-54919186D01*
X119629297Y-54864001D01*
X119629295Y-54864000D01*
X119526510Y-54853500D01*
X118126498Y-54853500D01*
X118126481Y-54853501D01*
X118023703Y-54864000D01*
X118023700Y-54864001D01*
X117857168Y-54919185D01*
X117857163Y-54919187D01*
X117707842Y-55011289D01*
X117583789Y-55135342D01*
X117491687Y-55284663D01*
X117491685Y-55284668D01*
X117472421Y-55342803D01*
X117436501Y-55451203D01*
X117436501Y-55451204D01*
X117436500Y-55451204D01*
X117426000Y-55553983D01*
X117426000Y-56304001D01*
X117426001Y-56304019D01*
X117436500Y-56406796D01*
X117436501Y-56406799D01*
X117483447Y-56548471D01*
X117491686Y-56573334D01*
X117583788Y-56722656D01*
X117707844Y-56846712D01*
X117857166Y-56938814D01*
X118023703Y-56993999D01*
X118126491Y-57004500D01*
X119526508Y-57004499D01*
X119629297Y-56993999D01*
X119795834Y-56938814D01*
X119945156Y-56846712D01*
X120069212Y-56722656D01*
X120136599Y-56613402D01*
X120188547Y-56566679D01*
X120242138Y-56554500D01*
X122048764Y-56554500D01*
X122115803Y-56574185D01*
X122161558Y-56626989D01*
X122172122Y-56665899D01*
X122179150Y-56734707D01*
X122179151Y-56734710D01*
X122232496Y-56895694D01*
X122232501Y-56895705D01*
X122321529Y-57040040D01*
X122321532Y-57040044D01*
X122331160Y-57049672D01*
X122364645Y-57110995D01*
X122359661Y-57180687D01*
X122331163Y-57225031D01*
X122321928Y-57234265D01*
X122321924Y-57234271D01*
X122232957Y-57378507D01*
X122232952Y-57378518D01*
X122179644Y-57539393D01*
X122169500Y-57638677D01*
X122169500Y-57662000D01*
X124119499Y-57662000D01*
X124119499Y-57638692D01*
X124119498Y-57638677D01*
X124109355Y-57539392D01*
X124056047Y-57378518D01*
X124056042Y-57378507D01*
X123967075Y-57234271D01*
X123967072Y-57234267D01*
X123957839Y-57225034D01*
X123924354Y-57163711D01*
X123929338Y-57094019D01*
X123957843Y-57049668D01*
X123967468Y-57040044D01*
X123967470Y-57040039D01*
X123971781Y-57034590D01*
X124028803Y-56994213D01*
X124069048Y-56987500D01*
X125615048Y-56987500D01*
X125682087Y-57007185D01*
X125702729Y-57023819D01*
X126436181Y-57757271D01*
X126469666Y-57818594D01*
X126472500Y-57844952D01*
X126472500Y-58966371D01*
X126452815Y-59033410D01*
X126400011Y-59079165D01*
X126391833Y-59082553D01*
X126250671Y-59135202D01*
X126250664Y-59135206D01*
X126135455Y-59221452D01*
X126135452Y-59221455D01*
X126049206Y-59336664D01*
X126049202Y-59336671D01*
X125998908Y-59471517D01*
X125992501Y-59531116D01*
X125992501Y-59531123D01*
X125992500Y-59531135D01*
X125992500Y-60113546D01*
X125972815Y-60180585D01*
X125956181Y-60201227D01*
X125612201Y-60545206D01*
X125599944Y-60555027D01*
X125600127Y-60555248D01*
X125594116Y-60560220D01*
X125546765Y-60610643D01*
X125525882Y-60631526D01*
X125525870Y-60631539D01*
X125521614Y-60637024D01*
X125517830Y-60641454D01*
X125507555Y-60652395D01*
X125447316Y-60687792D01*
X125377502Y-60685002D01*
X125320279Y-60644911D01*
X125293815Y-60580247D01*
X125299228Y-60529199D01*
X125345674Y-60386256D01*
X125365460Y-60198000D01*
X125345674Y-60009744D01*
X125287179Y-59829716D01*
X125192533Y-59665784D01*
X125065871Y-59525112D01*
X125065870Y-59525111D01*
X124912734Y-59413851D01*
X124912729Y-59413848D01*
X124739807Y-59336857D01*
X124739802Y-59336855D01*
X124594001Y-59305865D01*
X124554646Y-59297500D01*
X124365354Y-59297500D01*
X124332897Y-59304398D01*
X124180197Y-59336855D01*
X124180192Y-59336857D01*
X124007270Y-59413848D01*
X124007265Y-59413851D01*
X123854129Y-59525111D01*
X123727466Y-59665785D01*
X123632821Y-59829715D01*
X123632818Y-59829722D01*
X123585615Y-59975000D01*
X123574326Y-60009744D01*
X123560504Y-60141256D01*
X123556679Y-60177649D01*
X123530094Y-60242263D01*
X123521039Y-60252368D01*
X119340208Y-64433199D01*
X119327951Y-64443020D01*
X119328134Y-64443241D01*
X119322123Y-64448213D01*
X119274772Y-64498636D01*
X119253889Y-64519519D01*
X119253877Y-64519532D01*
X119249621Y-64525017D01*
X119245837Y-64529447D01*
X119213937Y-64563418D01*
X119213936Y-64563420D01*
X119204284Y-64580976D01*
X119193610Y-64597226D01*
X119181329Y-64613061D01*
X119181324Y-64613068D01*
X119162815Y-64655838D01*
X119160245Y-64661084D01*
X119137803Y-64701906D01*
X119132822Y-64721307D01*
X119126521Y-64739710D01*
X119118562Y-64758102D01*
X119118561Y-64758105D01*
X119111271Y-64804127D01*
X119110087Y-64809846D01*
X119098501Y-64854972D01*
X119098500Y-64854982D01*
X119098500Y-64875016D01*
X119096973Y-64894415D01*
X119093840Y-64914194D01*
X119093840Y-64914195D01*
X119098225Y-64960583D01*
X119098500Y-64966421D01*
X119098500Y-66363500D01*
X119078815Y-66430539D01*
X119026011Y-66476294D01*
X118974502Y-66487500D01*
X118926131Y-66487500D01*
X118926123Y-66487501D01*
X118866516Y-66493908D01*
X118731671Y-66544202D01*
X118731664Y-66544206D01*
X118616455Y-66630452D01*
X118616452Y-66630455D01*
X118530206Y-66745664D01*
X118530202Y-66745671D01*
X118479908Y-66880517D01*
X118478330Y-66895199D01*
X118473501Y-66940123D01*
X118473500Y-66940135D01*
X118473500Y-67231546D01*
X118453815Y-67298585D01*
X118437181Y-67319227D01*
X117435681Y-68320727D01*
X117374358Y-68354212D01*
X117304666Y-68349228D01*
X117248733Y-68307356D01*
X117224316Y-68241892D01*
X117224000Y-68233046D01*
X117224000Y-68117000D01*
X116074000Y-68117000D01*
X116074000Y-68941999D01*
X116515047Y-68941999D01*
X116582086Y-68961684D01*
X116627841Y-69014488D01*
X116637785Y-69083646D01*
X116608760Y-69147202D01*
X116602728Y-69153680D01*
X116051226Y-69705181D01*
X115989903Y-69738666D01*
X115963545Y-69741500D01*
X115123998Y-69741500D01*
X115123980Y-69741501D01*
X115021203Y-69752000D01*
X115021200Y-69752001D01*
X114854668Y-69807185D01*
X114854663Y-69807187D01*
X114705342Y-69899289D01*
X114581289Y-70023342D01*
X114581288Y-70023344D01*
X114531810Y-70103562D01*
X114513901Y-70132597D01*
X114461953Y-70179321D01*
X114408362Y-70191500D01*
X112770453Y-70191500D01*
X112703414Y-70171815D01*
X112682772Y-70155181D01*
X111724808Y-69197217D01*
X111691323Y-69135894D01*
X111696307Y-69066202D01*
X111738179Y-69010269D01*
X111773486Y-68991830D01*
X111798479Y-68983548D01*
X111798492Y-68983542D01*
X111942728Y-68894575D01*
X111942732Y-68894572D01*
X112062572Y-68774732D01*
X112062575Y-68774728D01*
X112151542Y-68630492D01*
X112151547Y-68630481D01*
X112204855Y-68469606D01*
X112214999Y-68370322D01*
X112215000Y-68370309D01*
X112215000Y-68322000D01*
X111139000Y-68322000D01*
X111071961Y-68302315D01*
X111026206Y-68249511D01*
X111015000Y-68198000D01*
X111015000Y-68117000D01*
X114424001Y-68117000D01*
X114424001Y-68241986D01*
X114434494Y-68344697D01*
X114489641Y-68511119D01*
X114489643Y-68511124D01*
X114581684Y-68660345D01*
X114705654Y-68784315D01*
X114854875Y-68876356D01*
X114854880Y-68876358D01*
X115021302Y-68931505D01*
X115021309Y-68931506D01*
X115124019Y-68941999D01*
X115573999Y-68941999D01*
X115574000Y-68941998D01*
X115574000Y-68117000D01*
X114424001Y-68117000D01*
X111015000Y-68117000D01*
X111015000Y-67946000D01*
X111034685Y-67878961D01*
X111087489Y-67833206D01*
X111139000Y-67822000D01*
X112214999Y-67822000D01*
X112214999Y-67773692D01*
X112214998Y-67773677D01*
X112204855Y-67674392D01*
X112185837Y-67617000D01*
X114424000Y-67617000D01*
X115574000Y-67617000D01*
X115574000Y-66792000D01*
X116074000Y-66792000D01*
X116074000Y-67617000D01*
X117223999Y-67617000D01*
X117223999Y-67492028D01*
X117223998Y-67492013D01*
X117213505Y-67389302D01*
X117158358Y-67222880D01*
X117158356Y-67222875D01*
X117066315Y-67073654D01*
X116942345Y-66949684D01*
X116793124Y-66857643D01*
X116793119Y-66857641D01*
X116626697Y-66802494D01*
X116626690Y-66802493D01*
X116523986Y-66792000D01*
X116074000Y-66792000D01*
X115574000Y-66792000D01*
X115124028Y-66792000D01*
X115124012Y-66792001D01*
X115021302Y-66802494D01*
X114854880Y-66857641D01*
X114854875Y-66857643D01*
X114705654Y-66949684D01*
X114581684Y-67073654D01*
X114489643Y-67222875D01*
X114489641Y-67222880D01*
X114434494Y-67389302D01*
X114434493Y-67389309D01*
X114424000Y-67492013D01*
X114424000Y-67617000D01*
X112185837Y-67617000D01*
X112151547Y-67513518D01*
X112151542Y-67513507D01*
X112062575Y-67369271D01*
X112062572Y-67369267D01*
X111942733Y-67249428D01*
X111886728Y-67214884D01*
X111840004Y-67162936D01*
X111828781Y-67093973D01*
X111856625Y-67029891D01*
X111908493Y-66993163D01*
X111944326Y-66979798D01*
X111944326Y-66979797D01*
X111944331Y-66979796D01*
X112059546Y-66893546D01*
X112145796Y-66778331D01*
X112196091Y-66643483D01*
X112202500Y-66583873D01*
X112202499Y-65610498D01*
X112222183Y-65543460D01*
X112274987Y-65497705D01*
X112326494Y-65486499D01*
X113814872Y-65486499D01*
X113874483Y-65480091D01*
X114009331Y-65429796D01*
X114124546Y-65343546D01*
X114210796Y-65228331D01*
X114233675Y-65166987D01*
X114275543Y-65111055D01*
X114304211Y-65095026D01*
X114320732Y-65088486D01*
X114358449Y-65061082D01*
X114363305Y-65057892D01*
X114403420Y-65034170D01*
X114417589Y-65019999D01*
X114432379Y-65007368D01*
X114448587Y-64995594D01*
X114478299Y-64959676D01*
X114482212Y-64955376D01*
X116715788Y-62721801D01*
X116728042Y-62711986D01*
X116727859Y-62711764D01*
X116733866Y-62706792D01*
X116733877Y-62706786D01*
X116764775Y-62673882D01*
X116781227Y-62656364D01*
X116791671Y-62645918D01*
X116802120Y-62635471D01*
X116806379Y-62629978D01*
X116810152Y-62625561D01*
X116842062Y-62591582D01*
X116851713Y-62574024D01*
X116862396Y-62557761D01*
X116874673Y-62541936D01*
X116893185Y-62499153D01*
X116895738Y-62493941D01*
X116918197Y-62453092D01*
X116923180Y-62433680D01*
X116929481Y-62415280D01*
X116937437Y-62396896D01*
X116944729Y-62350852D01*
X116945906Y-62345171D01*
X116957500Y-62300019D01*
X116957500Y-62279983D01*
X116959027Y-62260582D01*
X116962160Y-62240804D01*
X116957775Y-62194415D01*
X116957500Y-62188577D01*
X116957500Y-59129000D01*
X117426501Y-59129000D01*
X117426501Y-59253986D01*
X117436994Y-59356697D01*
X117492141Y-59523119D01*
X117492143Y-59523124D01*
X117584184Y-59672345D01*
X117708154Y-59796315D01*
X117857375Y-59888356D01*
X117857380Y-59888358D01*
X118023802Y-59943505D01*
X118023809Y-59943506D01*
X118126519Y-59953999D01*
X118576499Y-59953999D01*
X118576500Y-59953998D01*
X118576500Y-59129000D01*
X119076500Y-59129000D01*
X119076500Y-59953999D01*
X119526472Y-59953999D01*
X119526486Y-59953998D01*
X119629197Y-59943505D01*
X119795619Y-59888358D01*
X119795624Y-59888356D01*
X119944845Y-59796315D01*
X120068815Y-59672345D01*
X120160856Y-59523124D01*
X120160858Y-59523119D01*
X120216005Y-59356697D01*
X120216006Y-59356690D01*
X120226499Y-59253986D01*
X120226500Y-59253973D01*
X120226500Y-59129000D01*
X119076500Y-59129000D01*
X118576500Y-59129000D01*
X117426501Y-59129000D01*
X116957500Y-59129000D01*
X116957500Y-58629000D01*
X117426500Y-58629000D01*
X118576500Y-58629000D01*
X118576500Y-57804000D01*
X119076500Y-57804000D01*
X119076500Y-58629000D01*
X120226499Y-58629000D01*
X120226499Y-58504028D01*
X120226498Y-58504013D01*
X120216005Y-58401302D01*
X120160858Y-58234880D01*
X120160856Y-58234875D01*
X120115906Y-58162000D01*
X122169501Y-58162000D01*
X122169501Y-58185322D01*
X122179644Y-58284607D01*
X122232952Y-58445481D01*
X122232957Y-58445492D01*
X122321924Y-58589728D01*
X122321927Y-58589732D01*
X122441767Y-58709572D01*
X122441771Y-58709575D01*
X122586007Y-58798542D01*
X122586018Y-58798547D01*
X122746893Y-58851855D01*
X122846183Y-58861999D01*
X122894499Y-58861998D01*
X122894500Y-58861998D01*
X122894500Y-58162000D01*
X123394500Y-58162000D01*
X123394500Y-58861999D01*
X123442808Y-58861999D01*
X123442822Y-58861998D01*
X123542107Y-58851855D01*
X123702981Y-58798547D01*
X123702992Y-58798542D01*
X123847228Y-58709575D01*
X123847232Y-58709572D01*
X123967072Y-58589732D01*
X123967075Y-58589728D01*
X124056042Y-58445492D01*
X124056047Y-58445481D01*
X124109355Y-58284606D01*
X124119499Y-58185322D01*
X124119500Y-58185309D01*
X124119500Y-58162000D01*
X123394500Y-58162000D01*
X122894500Y-58162000D01*
X122169501Y-58162000D01*
X120115906Y-58162000D01*
X120068815Y-58085654D01*
X119944845Y-57961684D01*
X119795624Y-57869643D01*
X119795619Y-57869641D01*
X119629197Y-57814494D01*
X119629190Y-57814493D01*
X119526486Y-57804000D01*
X119076500Y-57804000D01*
X118576500Y-57804000D01*
X118126528Y-57804000D01*
X118126512Y-57804001D01*
X118023802Y-57814494D01*
X117857380Y-57869641D01*
X117857375Y-57869643D01*
X117708154Y-57961684D01*
X117584184Y-58085654D01*
X117492143Y-58234875D01*
X117492141Y-58234880D01*
X117436994Y-58401302D01*
X117436993Y-58401309D01*
X117426500Y-58504013D01*
X117426500Y-58629000D01*
X116957500Y-58629000D01*
X116957500Y-53336000D01*
X120657501Y-53336000D01*
X120657501Y-53384322D01*
X120667644Y-53483607D01*
X120720952Y-53644481D01*
X120720957Y-53644492D01*
X120809924Y-53788728D01*
X120809927Y-53788732D01*
X120929767Y-53908572D01*
X120929771Y-53908575D01*
X121074007Y-53997542D01*
X121074018Y-53997547D01*
X121234893Y-54050855D01*
X121334183Y-54060999D01*
X121357500Y-54060998D01*
X121357500Y-53336000D01*
X120657501Y-53336000D01*
X116957500Y-53336000D01*
X116957500Y-52836000D01*
X120657500Y-52836000D01*
X121357500Y-52836000D01*
X121357500Y-52110999D01*
X121334193Y-52111000D01*
X121334174Y-52111001D01*
X121234892Y-52121144D01*
X121074018Y-52174452D01*
X121074007Y-52174457D01*
X120929771Y-52263424D01*
X120929767Y-52263427D01*
X120809927Y-52383267D01*
X120809924Y-52383271D01*
X120720957Y-52527507D01*
X120720952Y-52527518D01*
X120667644Y-52688393D01*
X120657500Y-52787677D01*
X120657500Y-52836000D01*
X116957500Y-52836000D01*
X116957500Y-52634452D01*
X116977185Y-52567413D01*
X116993819Y-52546771D01*
X117824772Y-51715819D01*
X117886095Y-51682334D01*
X117912453Y-51679500D01*
X119692252Y-51679500D01*
X119759291Y-51699185D01*
X119784400Y-51720526D01*
X119790126Y-51726885D01*
X119790130Y-51726889D01*
X119943265Y-51838148D01*
X119943270Y-51838151D01*
X120116192Y-51915142D01*
X120116197Y-51915144D01*
X120301354Y-51954500D01*
X120301355Y-51954500D01*
X120490644Y-51954500D01*
X120490646Y-51954500D01*
X120675803Y-51915144D01*
X120848730Y-51838151D01*
X121001871Y-51726888D01*
X121128533Y-51586216D01*
X121223179Y-51422284D01*
X121281674Y-51242256D01*
X121301460Y-51054000D01*
X121281674Y-50865744D01*
X121223179Y-50685716D01*
X121128533Y-50521784D01*
X121001871Y-50381112D01*
X121001870Y-50381111D01*
X120848734Y-50269851D01*
X120848729Y-50269848D01*
X120675807Y-50192857D01*
X120675802Y-50192855D01*
X120530001Y-50161865D01*
X120490646Y-50153500D01*
X120301354Y-50153500D01*
X120268897Y-50160398D01*
X120116197Y-50192855D01*
X120116192Y-50192857D01*
X119943270Y-50269848D01*
X119943265Y-50269851D01*
X119790130Y-50381110D01*
X119790129Y-50381112D01*
X119784400Y-50387474D01*
X119724913Y-50424121D01*
X119692252Y-50428500D01*
X117684737Y-50428500D01*
X117669120Y-50426776D01*
X117669093Y-50427062D01*
X117661331Y-50426327D01*
X117592203Y-50428500D01*
X117562650Y-50428500D01*
X117561929Y-50428590D01*
X117555757Y-50429369D01*
X117549945Y-50429826D01*
X117503373Y-50431290D01*
X117503372Y-50431290D01*
X117484129Y-50436881D01*
X117465079Y-50440825D01*
X117445211Y-50443334D01*
X117445209Y-50443335D01*
X117401884Y-50460488D01*
X117396357Y-50462380D01*
X117351610Y-50475381D01*
X117351609Y-50475382D01*
X117334367Y-50485579D01*
X117316899Y-50494137D01*
X117298269Y-50501513D01*
X117298267Y-50501514D01*
X117260576Y-50528898D01*
X117255694Y-50532105D01*
X117215579Y-50555830D01*
X117201408Y-50570000D01*
X117186623Y-50582628D01*
X117171786Y-50593409D01*
X117170412Y-50594407D01*
X117140709Y-50630310D01*
X117136777Y-50634631D01*
X115948208Y-51823199D01*
X115935951Y-51833020D01*
X115936134Y-51833241D01*
X115930123Y-51838213D01*
X115882772Y-51888636D01*
X115861889Y-51909519D01*
X115861877Y-51909532D01*
X115857621Y-51915017D01*
X115853837Y-51919447D01*
X115821937Y-51953418D01*
X115821936Y-51953420D01*
X115812284Y-51970976D01*
X115801610Y-51987226D01*
X115789329Y-52003061D01*
X115789324Y-52003068D01*
X115770815Y-52045838D01*
X115768245Y-52051084D01*
X115745803Y-52091906D01*
X115740822Y-52111307D01*
X115734521Y-52129710D01*
X115726562Y-52148102D01*
X115726561Y-52148105D01*
X115719271Y-52194127D01*
X115718087Y-52199846D01*
X115706501Y-52244972D01*
X115706500Y-52244982D01*
X115706500Y-52265016D01*
X115704973Y-52284415D01*
X115701840Y-52304194D01*
X115701840Y-52304195D01*
X115706225Y-52350583D01*
X115706500Y-52356421D01*
X115706500Y-61910546D01*
X115686815Y-61977585D01*
X115670181Y-61998227D01*
X114479180Y-63189228D01*
X114417857Y-63222713D01*
X114348165Y-63217729D01*
X114292232Y-63175857D01*
X114267815Y-63110393D01*
X114267499Y-63101547D01*
X114267499Y-62768129D01*
X114267498Y-62768123D01*
X114267497Y-62768116D01*
X114261091Y-62708517D01*
X114248340Y-62674332D01*
X114243357Y-62604642D01*
X114248340Y-62587669D01*
X114261091Y-62553483D01*
X114267500Y-62493873D01*
X114267499Y-61498128D01*
X114261091Y-61438517D01*
X114248340Y-61404332D01*
X114243357Y-61334642D01*
X114248340Y-61317669D01*
X114261091Y-61283483D01*
X114267500Y-61223873D01*
X114267499Y-60228128D01*
X114261091Y-60168517D01*
X114248340Y-60134332D01*
X114243357Y-60064642D01*
X114248340Y-60047669D01*
X114261091Y-60013483D01*
X114267500Y-59953873D01*
X114267499Y-58958128D01*
X114261091Y-58898517D01*
X114248340Y-58864332D01*
X114243357Y-58794642D01*
X114248340Y-58777669D01*
X114261091Y-58743483D01*
X114267500Y-58683873D01*
X114267499Y-57688128D01*
X114261091Y-57628517D01*
X114248340Y-57594332D01*
X114243357Y-57524642D01*
X114248340Y-57507669D01*
X114261091Y-57473483D01*
X114267500Y-57413873D01*
X114267499Y-56418128D01*
X114261091Y-56358517D01*
X114248340Y-56324332D01*
X114243357Y-56254642D01*
X114248340Y-56237669D01*
X114261091Y-56203483D01*
X114267500Y-56143873D01*
X114267499Y-55148128D01*
X114261091Y-55088517D01*
X114248340Y-55054332D01*
X114243357Y-54984642D01*
X114248340Y-54967669D01*
X114261091Y-54933483D01*
X114267500Y-54873873D01*
X114267499Y-53878128D01*
X114261091Y-53818517D01*
X114248340Y-53784332D01*
X114243357Y-53714642D01*
X114248340Y-53697669D01*
X114261091Y-53663483D01*
X114267500Y-53603873D01*
X114267499Y-52608128D01*
X114261091Y-52548517D01*
X114248340Y-52514332D01*
X114243357Y-52444642D01*
X114248340Y-52427669D01*
X114261091Y-52393483D01*
X114267500Y-52333873D01*
X114267499Y-51338128D01*
X114261091Y-51278517D01*
X114248340Y-51244332D01*
X114243357Y-51174642D01*
X114248340Y-51157669D01*
X114261091Y-51123483D01*
X114267500Y-51063873D01*
X114267499Y-50068128D01*
X114261091Y-50008517D01*
X114248340Y-49974332D01*
X114243357Y-49904642D01*
X114248340Y-49887669D01*
X114261091Y-49853483D01*
X114267500Y-49793873D01*
X114267499Y-48798128D01*
X114261091Y-48738517D01*
X114248073Y-48703616D01*
X114243090Y-48633926D01*
X114248075Y-48616949D01*
X114260597Y-48583375D01*
X114260598Y-48583372D01*
X114266999Y-48523844D01*
X114267000Y-48523827D01*
X114267000Y-48276000D01*
X111767000Y-48276000D01*
X111767000Y-48523844D01*
X111773401Y-48583372D01*
X111773403Y-48583379D01*
X111785925Y-48616952D01*
X111790909Y-48686643D01*
X111785925Y-48703617D01*
X111772909Y-48738514D01*
X111772908Y-48738516D01*
X111766934Y-48794087D01*
X111766501Y-48798123D01*
X111766500Y-48798135D01*
X111766500Y-49793870D01*
X111766501Y-49793876D01*
X111772908Y-49853481D01*
X111785659Y-49887669D01*
X111790642Y-49957361D01*
X111785659Y-49974331D01*
X111772908Y-50008518D01*
X111767507Y-50058760D01*
X111766501Y-50068123D01*
X111766500Y-50068135D01*
X111766500Y-51063870D01*
X111766501Y-51063876D01*
X111772908Y-51123481D01*
X111785659Y-51157669D01*
X111790642Y-51227361D01*
X111785659Y-51244331D01*
X111772908Y-51278518D01*
X111766501Y-51338114D01*
X111766501Y-51338123D01*
X111766500Y-51338135D01*
X111766500Y-52333870D01*
X111766501Y-52333876D01*
X111772908Y-52393481D01*
X111785659Y-52427669D01*
X111790642Y-52497361D01*
X111785659Y-52514331D01*
X111772908Y-52548518D01*
X111768733Y-52587358D01*
X111766501Y-52608123D01*
X111766500Y-52608135D01*
X111766500Y-53603870D01*
X111766501Y-53603876D01*
X111772908Y-53663481D01*
X111785659Y-53697669D01*
X111790642Y-53767361D01*
X111785659Y-53784331D01*
X111772908Y-53818518D01*
X111766506Y-53878067D01*
X111766501Y-53878123D01*
X111766500Y-53878135D01*
X111766500Y-54873870D01*
X111766501Y-54873876D01*
X111772908Y-54933481D01*
X111785659Y-54967669D01*
X111790642Y-55037361D01*
X111785659Y-55054331D01*
X111772908Y-55088518D01*
X111766501Y-55148116D01*
X111766501Y-55148123D01*
X111766500Y-55148135D01*
X111766500Y-56143870D01*
X111766501Y-56143876D01*
X111772908Y-56203481D01*
X111785659Y-56237669D01*
X111790642Y-56307361D01*
X111785659Y-56324331D01*
X111772908Y-56358518D01*
X111766501Y-56418116D01*
X111766501Y-56418123D01*
X111766500Y-56418135D01*
X111766500Y-57413870D01*
X111766501Y-57413876D01*
X111772908Y-57473481D01*
X111785659Y-57507669D01*
X111790642Y-57577361D01*
X111785659Y-57594331D01*
X111772908Y-57628518D01*
X111766501Y-57688116D01*
X111766501Y-57688123D01*
X111766500Y-57688135D01*
X111766500Y-58683870D01*
X111766501Y-58683876D01*
X111772908Y-58743481D01*
X111785659Y-58777669D01*
X111790642Y-58847361D01*
X111785659Y-58864331D01*
X111772908Y-58898518D01*
X111766501Y-58958116D01*
X111766501Y-58958123D01*
X111766500Y-58958135D01*
X111766500Y-59953870D01*
X111766501Y-59953876D01*
X111772908Y-60013481D01*
X111785659Y-60047669D01*
X111790642Y-60117361D01*
X111785659Y-60134331D01*
X111772908Y-60168518D01*
X111766501Y-60228116D01*
X111766501Y-60228123D01*
X111766500Y-60228135D01*
X111766500Y-61223870D01*
X111766501Y-61223876D01*
X111772908Y-61283481D01*
X111785659Y-61317669D01*
X111790642Y-61387361D01*
X111785659Y-61404331D01*
X111772908Y-61438518D01*
X111766501Y-61498116D01*
X111766501Y-61498123D01*
X111766500Y-61498135D01*
X111766500Y-62493870D01*
X111766501Y-62493876D01*
X111772908Y-62553481D01*
X111785659Y-62587669D01*
X111790642Y-62657361D01*
X111785659Y-62674331D01*
X111772908Y-62708518D01*
X111766501Y-62768116D01*
X111766501Y-62768123D01*
X111766500Y-62768135D01*
X111766500Y-63763870D01*
X111766501Y-63763876D01*
X111772908Y-63823481D01*
X111785659Y-63857669D01*
X111790642Y-63927361D01*
X111785659Y-63944331D01*
X111772908Y-63978518D01*
X111766501Y-64038116D01*
X111766501Y-64038123D01*
X111766500Y-64038135D01*
X111766500Y-64411500D01*
X111746815Y-64478539D01*
X111694011Y-64524294D01*
X111642500Y-64535500D01*
X110754129Y-64535500D01*
X110754123Y-64535501D01*
X110694518Y-64541908D01*
X110660331Y-64554659D01*
X110590639Y-64559642D01*
X110573669Y-64554659D01*
X110539480Y-64541908D01*
X110539482Y-64541908D01*
X110479883Y-64535501D01*
X110479881Y-64535500D01*
X110479873Y-64535500D01*
X110479864Y-64535500D01*
X109484129Y-64535500D01*
X109484123Y-64535501D01*
X109424518Y-64541908D01*
X109390331Y-64554659D01*
X109320639Y-64559642D01*
X109303669Y-64554659D01*
X109269480Y-64541908D01*
X109269482Y-64541908D01*
X109209883Y-64535501D01*
X109209881Y-64535500D01*
X109209873Y-64535500D01*
X109209864Y-64535500D01*
X108214129Y-64535500D01*
X108214123Y-64535501D01*
X108154518Y-64541908D01*
X108120331Y-64554659D01*
X108050639Y-64559642D01*
X108033669Y-64554659D01*
X107999480Y-64541908D01*
X107999482Y-64541908D01*
X107939883Y-64535501D01*
X107939881Y-64535500D01*
X107939873Y-64535500D01*
X107939864Y-64535500D01*
X106944129Y-64535500D01*
X106944123Y-64535501D01*
X106884518Y-64541908D01*
X106850331Y-64554659D01*
X106780639Y-64559642D01*
X106763669Y-64554659D01*
X106729480Y-64541908D01*
X106729482Y-64541908D01*
X106669883Y-64535501D01*
X106669881Y-64535500D01*
X106669873Y-64535500D01*
X106669865Y-64535500D01*
X105848117Y-64535500D01*
X105781078Y-64515815D01*
X105735323Y-64463011D01*
X105725379Y-64393853D01*
X105730182Y-64373194D01*
X105787674Y-64196256D01*
X105807460Y-64008000D01*
X105787674Y-63819744D01*
X105729179Y-63639716D01*
X105634533Y-63475784D01*
X105507871Y-63335112D01*
X105495554Y-63326163D01*
X105354734Y-63223851D01*
X105354729Y-63223848D01*
X105181807Y-63146857D01*
X105181802Y-63146855D01*
X105036001Y-63115865D01*
X104996646Y-63107500D01*
X104807354Y-63107500D01*
X104774897Y-63114398D01*
X104622197Y-63146855D01*
X104622192Y-63146857D01*
X104449270Y-63223848D01*
X104443637Y-63227101D01*
X104442145Y-63224517D01*
X104388483Y-63243617D01*
X104320441Y-63227739D01*
X104271785Y-63177595D01*
X104257500Y-63119814D01*
X104257500Y-62566737D01*
X104259224Y-62551123D01*
X104258938Y-62551096D01*
X104259672Y-62543333D01*
X104257500Y-62474202D01*
X104257500Y-62444651D01*
X104257500Y-62444650D01*
X104256629Y-62437759D01*
X104256172Y-62431945D01*
X104254709Y-62385374D01*
X104254709Y-62385372D01*
X104249120Y-62366137D01*
X104245174Y-62347084D01*
X104244931Y-62345158D01*
X104242664Y-62327208D01*
X104225501Y-62283859D01*
X104223614Y-62278346D01*
X104216104Y-62252498D01*
X104210617Y-62233610D01*
X104210616Y-62233608D01*
X104200421Y-62216369D01*
X104191860Y-62198893D01*
X104188936Y-62191507D01*
X104184486Y-62180268D01*
X104184486Y-62180267D01*
X104174474Y-62166488D01*
X104157083Y-62142550D01*
X104153900Y-62137705D01*
X104130170Y-62097579D01*
X104130165Y-62097573D01*
X104116005Y-62083413D01*
X104103370Y-62068620D01*
X104091593Y-62052412D01*
X104071330Y-62035649D01*
X104032222Y-61977750D01*
X104027050Y-61953071D01*
X104009674Y-61787744D01*
X103951179Y-61607716D01*
X103856533Y-61443784D01*
X103729871Y-61303112D01*
X103702854Y-61283483D01*
X103576734Y-61191851D01*
X103576729Y-61191848D01*
X103403807Y-61114857D01*
X103403802Y-61114855D01*
X103363729Y-61106338D01*
X103302248Y-61073146D01*
X103268471Y-61011983D01*
X103266190Y-60972084D01*
X103267460Y-60960003D01*
X103267460Y-60960002D01*
X103266741Y-60953160D01*
X103247674Y-60771744D01*
X103189179Y-60591716D01*
X103094533Y-60427784D01*
X102967871Y-60287112D01*
X102967870Y-60287111D01*
X102814734Y-60175851D01*
X102814729Y-60175848D01*
X102641807Y-60098857D01*
X102641802Y-60098855D01*
X102480837Y-60064642D01*
X102456646Y-60059500D01*
X102267354Y-60059500D01*
X102257338Y-60061629D01*
X102082197Y-60098855D01*
X102082192Y-60098857D01*
X101909270Y-60175848D01*
X101903637Y-60179101D01*
X101902145Y-60176517D01*
X101848483Y-60195617D01*
X101780441Y-60179739D01*
X101731785Y-60129595D01*
X101717500Y-60071814D01*
X101717500Y-59880687D01*
X101737185Y-59813648D01*
X101749350Y-59797715D01*
X101767891Y-59777122D01*
X101824533Y-59714216D01*
X101919179Y-59550284D01*
X101977674Y-59370256D01*
X101997460Y-59182000D01*
X101977674Y-58993744D01*
X101919179Y-58813716D01*
X101824533Y-58649784D01*
X101697871Y-58509112D01*
X101697870Y-58509111D01*
X101544734Y-58397851D01*
X101544729Y-58397848D01*
X101371807Y-58320857D01*
X101371802Y-58320855D01*
X101199614Y-58284256D01*
X101138132Y-58251064D01*
X101104356Y-58189901D01*
X101109008Y-58120186D01*
X101117000Y-58107685D01*
X101117000Y-57396000D01*
X100397698Y-57396000D01*
X100378886Y-57406271D01*
X100309195Y-57401284D01*
X100279645Y-57385420D01*
X100274730Y-57381849D01*
X100274729Y-57381848D01*
X100101807Y-57304857D01*
X100101802Y-57304855D01*
X99944112Y-57271338D01*
X99916646Y-57265500D01*
X99727354Y-57265500D01*
X99699888Y-57271338D01*
X99542197Y-57304855D01*
X99542192Y-57304857D01*
X99369270Y-57381848D01*
X99369265Y-57381851D01*
X99216129Y-57493111D01*
X99089466Y-57633785D01*
X98994821Y-57797715D01*
X98994818Y-57797722D01*
X98936327Y-57977740D01*
X98936326Y-57977744D01*
X98916540Y-58166000D01*
X98936326Y-58354256D01*
X98936327Y-58354259D01*
X98994818Y-58534277D01*
X98994821Y-58534284D01*
X99089467Y-58698216D01*
X99130224Y-58743481D01*
X99164650Y-58781715D01*
X99194880Y-58844706D01*
X99196500Y-58864687D01*
X99196500Y-64413218D01*
X99176815Y-64480257D01*
X99124011Y-64526012D01*
X99059250Y-64536508D01*
X99055975Y-64536156D01*
X99049873Y-64535500D01*
X99049870Y-64535500D01*
X98054129Y-64535500D01*
X98054123Y-64535501D01*
X97994518Y-64541908D01*
X97960331Y-64554659D01*
X97890639Y-64559642D01*
X97873669Y-64554659D01*
X97839480Y-64541908D01*
X97839482Y-64541908D01*
X97779883Y-64535501D01*
X97779881Y-64535500D01*
X97779873Y-64535500D01*
X97779865Y-64535500D01*
X96891499Y-64535500D01*
X96824460Y-64515815D01*
X96778705Y-64463011D01*
X96767499Y-64411500D01*
X96767499Y-64038129D01*
X96767498Y-64038123D01*
X96767497Y-64038116D01*
X96761091Y-63978517D01*
X96748340Y-63944332D01*
X96743357Y-63874642D01*
X96748340Y-63857669D01*
X96761091Y-63823483D01*
X96767500Y-63763873D01*
X96767499Y-62768128D01*
X96761091Y-62708517D01*
X96748340Y-62674332D01*
X96743357Y-62604642D01*
X96748340Y-62587669D01*
X96761091Y-62553483D01*
X96767500Y-62493873D01*
X96767499Y-61498128D01*
X96761091Y-61438517D01*
X96748340Y-61404332D01*
X96743357Y-61334642D01*
X96748340Y-61317669D01*
X96761091Y-61283483D01*
X96767500Y-61223873D01*
X96767499Y-60228128D01*
X96761091Y-60168517D01*
X96748340Y-60134332D01*
X96743357Y-60064642D01*
X96748340Y-60047669D01*
X96761091Y-60013483D01*
X96767500Y-59953873D01*
X96767499Y-58958128D01*
X96761091Y-58898517D01*
X96748340Y-58864332D01*
X96743357Y-58794642D01*
X96748340Y-58777669D01*
X96761091Y-58743483D01*
X96767500Y-58683873D01*
X96767499Y-57688128D01*
X96761091Y-57628517D01*
X96748340Y-57594332D01*
X96743357Y-57524642D01*
X96748340Y-57507669D01*
X96761091Y-57473483D01*
X96767500Y-57413873D01*
X96767499Y-56896000D01*
X100417000Y-56896000D01*
X100771552Y-56896000D01*
X100838591Y-56915685D01*
X100853778Y-56927183D01*
X100893695Y-56962546D01*
X100966150Y-57026736D01*
X101116774Y-57105790D01*
X101116773Y-57105790D01*
X101186478Y-57122970D01*
X101280763Y-57146209D01*
X101341143Y-57181364D01*
X101372932Y-57243583D01*
X101374184Y-57251658D01*
X101381859Y-57314868D01*
X101381860Y-57314874D01*
X101442182Y-57473931D01*
X101516723Y-57581921D01*
X101538817Y-57613929D01*
X101572584Y-57643844D01*
X101575226Y-57646184D01*
X101612353Y-57705373D01*
X101617000Y-57739000D01*
X101617000Y-58096000D01*
X101864828Y-58096000D01*
X101864844Y-58095999D01*
X101924372Y-58089598D01*
X101924376Y-58089597D01*
X102023666Y-58052564D01*
X102093358Y-58047580D01*
X102110334Y-58052564D01*
X102209623Y-58089597D01*
X102209627Y-58089598D01*
X102269155Y-58095999D01*
X102269172Y-58096000D01*
X102517000Y-58096000D01*
X102517000Y-57739000D01*
X102536685Y-57671961D01*
X102558774Y-57646184D01*
X102561416Y-57643844D01*
X102595183Y-57613929D01*
X102664951Y-57512853D01*
X102719233Y-57468864D01*
X102788681Y-57461204D01*
X102851246Y-57492307D01*
X102869047Y-57512851D01*
X102890352Y-57543716D01*
X102938817Y-57613930D01*
X102961229Y-57633784D01*
X102972584Y-57643844D01*
X102975226Y-57646184D01*
X103012353Y-57705373D01*
X103017000Y-57739000D01*
X103017000Y-58096000D01*
X103264828Y-58096000D01*
X103264844Y-58095999D01*
X103324372Y-58089598D01*
X103324376Y-58089597D01*
X103423666Y-58052564D01*
X103493358Y-58047580D01*
X103510334Y-58052564D01*
X103609623Y-58089597D01*
X103609627Y-58089598D01*
X103669155Y-58095999D01*
X103669172Y-58096000D01*
X103917000Y-58096000D01*
X103917000Y-57739000D01*
X103936685Y-57671961D01*
X103958774Y-57646184D01*
X103995183Y-57613929D01*
X104091818Y-57473930D01*
X104121373Y-57396000D01*
X104417000Y-57396000D01*
X104417000Y-58096000D01*
X104664828Y-58096000D01*
X104664844Y-58095999D01*
X104724372Y-58089598D01*
X104724379Y-58089596D01*
X104859086Y-58039354D01*
X104859093Y-58039350D01*
X104974187Y-57953190D01*
X104974190Y-57953187D01*
X105060350Y-57838093D01*
X105060354Y-57838086D01*
X105110596Y-57703379D01*
X105110598Y-57703372D01*
X105116999Y-57643844D01*
X105117000Y-57643827D01*
X105117000Y-57396000D01*
X104417000Y-57396000D01*
X104121373Y-57396000D01*
X104152140Y-57314872D01*
X104159815Y-57251657D01*
X104187436Y-57187481D01*
X104245370Y-57148424D01*
X104253211Y-57146215D01*
X104417225Y-57105790D01*
X104439653Y-57094019D01*
X104567849Y-57026736D01*
X104567850Y-57026734D01*
X104567852Y-57026734D01*
X104680221Y-56927183D01*
X104743454Y-56897463D01*
X104762448Y-56896000D01*
X105117000Y-56896000D01*
X105117000Y-56648172D01*
X105116999Y-56648155D01*
X105110598Y-56588627D01*
X105110597Y-56588623D01*
X105073564Y-56489334D01*
X105068580Y-56419642D01*
X105073564Y-56402666D01*
X105110597Y-56303376D01*
X105110598Y-56303372D01*
X105116999Y-56243844D01*
X105117000Y-56243827D01*
X105117000Y-55996000D01*
X104762448Y-55996000D01*
X104695409Y-55976315D01*
X104680221Y-55964816D01*
X104629767Y-55920118D01*
X104567852Y-55865266D01*
X104549809Y-55855796D01*
X104499597Y-55807212D01*
X104483622Y-55739194D01*
X104506957Y-55673336D01*
X104549809Y-55636203D01*
X104567852Y-55626734D01*
X104680221Y-55527183D01*
X104743454Y-55497463D01*
X104762448Y-55496000D01*
X105117000Y-55496000D01*
X105117000Y-55248172D01*
X105116999Y-55248155D01*
X105110598Y-55188627D01*
X105110597Y-55188623D01*
X105073564Y-55089334D01*
X105068580Y-55019642D01*
X105073564Y-55002666D01*
X105110597Y-54903376D01*
X105110598Y-54903372D01*
X105116999Y-54843844D01*
X105117000Y-54843827D01*
X105117000Y-54596000D01*
X104762448Y-54596000D01*
X104695409Y-54576315D01*
X104680221Y-54564816D01*
X104567849Y-54465263D01*
X104417226Y-54386210D01*
X104315308Y-54361090D01*
X104253235Y-54345790D01*
X104192856Y-54310635D01*
X104161067Y-54248416D01*
X104159816Y-54240349D01*
X104152140Y-54177128D01*
X104149836Y-54171054D01*
X104108725Y-54062650D01*
X104091818Y-54018070D01*
X104081673Y-54003373D01*
X104016511Y-53908970D01*
X103995183Y-53878071D01*
X103995181Y-53878069D01*
X103958773Y-53845814D01*
X103921646Y-53786625D01*
X103917000Y-53752999D01*
X103917000Y-53396000D01*
X104417000Y-53396000D01*
X104417000Y-54096000D01*
X105117000Y-54096000D01*
X105117000Y-53848172D01*
X105116999Y-53848155D01*
X105110598Y-53788627D01*
X105110596Y-53788620D01*
X105060354Y-53653913D01*
X105060350Y-53653906D01*
X104974190Y-53538812D01*
X104974187Y-53538809D01*
X104859093Y-53452649D01*
X104859086Y-53452645D01*
X104724379Y-53402403D01*
X104724372Y-53402401D01*
X104664844Y-53396000D01*
X104417000Y-53396000D01*
X103917000Y-53396000D01*
X103669155Y-53396000D01*
X103609627Y-53402401D01*
X103609616Y-53402403D01*
X103510332Y-53439434D01*
X103440640Y-53444418D01*
X103423668Y-53439434D01*
X103324383Y-53402403D01*
X103324372Y-53402401D01*
X103264844Y-53396000D01*
X103017000Y-53396000D01*
X103017000Y-53752999D01*
X102997315Y-53820038D01*
X102975227Y-53845814D01*
X102938819Y-53878067D01*
X102906182Y-53925351D01*
X102869048Y-53979146D01*
X102814767Y-54023136D01*
X102745318Y-54030795D01*
X102682753Y-53999691D01*
X102664952Y-53979148D01*
X102595183Y-53878071D01*
X102595181Y-53878069D01*
X102595180Y-53878067D01*
X102558773Y-53845814D01*
X102521646Y-53786625D01*
X102517000Y-53752999D01*
X102517000Y-53396000D01*
X102269155Y-53396000D01*
X102209627Y-53402401D01*
X102209616Y-53402403D01*
X102110332Y-53439434D01*
X102040640Y-53444418D01*
X102023668Y-53439434D01*
X101924383Y-53402403D01*
X101924372Y-53402401D01*
X101864844Y-53396000D01*
X101617000Y-53396000D01*
X101617000Y-53752999D01*
X101597315Y-53820038D01*
X101575227Y-53845814D01*
X101538818Y-53878069D01*
X101442182Y-54018068D01*
X101381860Y-54177125D01*
X101381859Y-54177130D01*
X101374184Y-54240342D01*
X101346562Y-54304519D01*
X101288627Y-54343575D01*
X101280763Y-54345791D01*
X101116773Y-54386210D01*
X100966150Y-54465263D01*
X100853779Y-54564816D01*
X100790546Y-54594537D01*
X100771552Y-54596000D01*
X100417000Y-54596000D01*
X100417000Y-54843844D01*
X100423401Y-54903372D01*
X100423403Y-54903383D01*
X100460434Y-55002668D01*
X100465418Y-55072360D01*
X100460434Y-55089332D01*
X100423403Y-55188616D01*
X100423401Y-55188627D01*
X100417000Y-55248155D01*
X100417000Y-55496000D01*
X100771552Y-55496000D01*
X100838591Y-55515685D01*
X100853778Y-55527183D01*
X100966148Y-55626734D01*
X100974524Y-55631130D01*
X100984191Y-55636204D01*
X101034403Y-55684789D01*
X101050377Y-55752808D01*
X101027041Y-55818666D01*
X100984191Y-55855796D01*
X100966149Y-55865265D01*
X100853779Y-55964816D01*
X100790546Y-55994537D01*
X100771552Y-55996000D01*
X100417000Y-55996000D01*
X100417000Y-56243844D01*
X100423401Y-56303372D01*
X100423403Y-56303383D01*
X100460434Y-56402668D01*
X100465418Y-56472360D01*
X100460434Y-56489332D01*
X100423403Y-56588616D01*
X100423401Y-56588627D01*
X100417000Y-56648155D01*
X100417000Y-56896000D01*
X96767499Y-56896000D01*
X96767499Y-56418128D01*
X96761091Y-56358517D01*
X96748340Y-56324332D01*
X96743357Y-56254642D01*
X96748340Y-56237669D01*
X96761091Y-56203483D01*
X96767500Y-56143873D01*
X96767499Y-55148128D01*
X96761091Y-55088517D01*
X96748340Y-55054332D01*
X96743357Y-54984642D01*
X96748340Y-54967669D01*
X96761091Y-54933483D01*
X96767500Y-54873873D01*
X96767499Y-54096000D01*
X100417000Y-54096000D01*
X101117000Y-54096000D01*
X101117000Y-53396000D01*
X100869155Y-53396000D01*
X100809627Y-53402401D01*
X100809620Y-53402403D01*
X100674913Y-53452645D01*
X100674906Y-53452649D01*
X100559812Y-53538809D01*
X100559809Y-53538812D01*
X100473649Y-53653906D01*
X100473645Y-53653913D01*
X100423403Y-53788620D01*
X100423401Y-53788627D01*
X100417000Y-53848155D01*
X100417000Y-54096000D01*
X96767499Y-54096000D01*
X96767499Y-53878128D01*
X96761091Y-53818517D01*
X96748340Y-53784332D01*
X96743357Y-53714642D01*
X96748340Y-53697669D01*
X96761091Y-53663483D01*
X96767500Y-53603873D01*
X96767499Y-52608128D01*
X96761091Y-52548517D01*
X96748340Y-52514332D01*
X96743357Y-52444642D01*
X96748340Y-52427669D01*
X96761091Y-52393483D01*
X96767500Y-52333873D01*
X96767499Y-51338128D01*
X96767498Y-51338126D01*
X96767498Y-51338114D01*
X96766492Y-51328757D01*
X96778896Y-51259997D01*
X96826506Y-51208859D01*
X96889781Y-51191500D01*
X98122143Y-51191500D01*
X98189182Y-51211185D01*
X98195028Y-51215182D01*
X98353265Y-51330148D01*
X98353270Y-51330151D01*
X98526192Y-51407142D01*
X98526197Y-51407144D01*
X98711354Y-51446500D01*
X98711355Y-51446500D01*
X98900644Y-51446500D01*
X98900646Y-51446500D01*
X99085803Y-51407144D01*
X99258730Y-51330151D01*
X99411871Y-51218888D01*
X99538533Y-51078216D01*
X99633179Y-50914284D01*
X99691674Y-50734256D01*
X99711460Y-50546000D01*
X99691674Y-50357744D01*
X99633179Y-50177716D01*
X99538533Y-50013784D01*
X99411871Y-49873112D01*
X99400018Y-49864500D01*
X99258734Y-49761851D01*
X99258729Y-49761848D01*
X99085807Y-49684857D01*
X99085802Y-49684855D01*
X98940001Y-49653865D01*
X98900646Y-49645500D01*
X98711354Y-49645500D01*
X98711353Y-49645500D01*
X98589816Y-49671333D01*
X98520149Y-49666017D01*
X98464416Y-49623880D01*
X98440311Y-49558300D01*
X98440716Y-49537078D01*
X98441460Y-49530000D01*
X98421674Y-49341744D01*
X98363179Y-49161716D01*
X98268533Y-48997784D01*
X98141871Y-48857112D01*
X98141870Y-48857111D01*
X97988734Y-48745851D01*
X97988729Y-48745848D01*
X97815807Y-48668857D01*
X97815802Y-48668855D01*
X97670001Y-48637865D01*
X97630646Y-48629500D01*
X97441354Y-48629500D01*
X97420531Y-48633926D01*
X97256197Y-48668855D01*
X97256192Y-48668857D01*
X97083270Y-48745848D01*
X97083265Y-48745851D01*
X96958444Y-48836539D01*
X96892637Y-48860019D01*
X96824584Y-48844193D01*
X96775889Y-48794087D01*
X96762269Y-48749474D01*
X96761091Y-48738518D01*
X96761091Y-48738517D01*
X96748073Y-48703616D01*
X96743090Y-48633926D01*
X96748075Y-48616949D01*
X96760597Y-48583375D01*
X96760598Y-48583372D01*
X96766999Y-48523844D01*
X96767000Y-48523827D01*
X96767000Y-48276000D01*
X94267000Y-48276000D01*
X94267000Y-48523834D01*
X94268012Y-48533240D01*
X94255609Y-48602000D01*
X94208001Y-48653139D01*
X94144723Y-48670500D01*
X91669500Y-48670500D01*
X91602461Y-48650815D01*
X91556706Y-48598011D01*
X91545500Y-48546500D01*
X91545499Y-47776000D01*
X94267000Y-47776000D01*
X95267000Y-47776000D01*
X95267000Y-47076000D01*
X95767000Y-47076000D01*
X95767000Y-47776000D01*
X96767000Y-47776000D01*
X111767000Y-47776000D01*
X112767000Y-47776000D01*
X112767000Y-47076000D01*
X113267000Y-47076000D01*
X113267000Y-47776000D01*
X114267000Y-47776000D01*
X114267000Y-47528172D01*
X114266999Y-47528155D01*
X114260598Y-47468627D01*
X114260596Y-47468620D01*
X114210354Y-47333913D01*
X114210350Y-47333906D01*
X114124190Y-47218812D01*
X114124187Y-47218809D01*
X114009093Y-47132649D01*
X114009086Y-47132645D01*
X113874379Y-47082403D01*
X113874372Y-47082401D01*
X113814844Y-47076000D01*
X113267000Y-47076000D01*
X112767000Y-47076000D01*
X112219155Y-47076000D01*
X112159627Y-47082401D01*
X112159620Y-47082403D01*
X112024913Y-47132645D01*
X112024906Y-47132649D01*
X111909812Y-47218809D01*
X111909809Y-47218812D01*
X111823649Y-47333906D01*
X111823645Y-47333913D01*
X111773403Y-47468620D01*
X111773401Y-47468627D01*
X111767000Y-47528155D01*
X111767000Y-47776000D01*
X96767000Y-47776000D01*
X96767000Y-47528172D01*
X96766999Y-47528155D01*
X96760598Y-47468627D01*
X96760596Y-47468620D01*
X96710354Y-47333913D01*
X96710350Y-47333906D01*
X96624190Y-47218812D01*
X96624187Y-47218809D01*
X96509093Y-47132649D01*
X96509086Y-47132645D01*
X96374379Y-47082403D01*
X96374372Y-47082401D01*
X96314844Y-47076000D01*
X95767000Y-47076000D01*
X95267000Y-47076000D01*
X94719155Y-47076000D01*
X94659627Y-47082401D01*
X94659620Y-47082403D01*
X94524913Y-47132645D01*
X94524906Y-47132649D01*
X94409812Y-47218809D01*
X94409809Y-47218812D01*
X94323649Y-47333906D01*
X94323645Y-47333913D01*
X94273403Y-47468620D01*
X94273401Y-47468627D01*
X94267000Y-47528155D01*
X94267000Y-47776000D01*
X91545499Y-47776000D01*
X91545499Y-47616129D01*
X91545498Y-47616123D01*
X91545497Y-47616116D01*
X91539467Y-47560013D01*
X91539091Y-47556516D01*
X91488797Y-47421671D01*
X91488793Y-47421664D01*
X91402547Y-47306455D01*
X91402544Y-47306452D01*
X91287335Y-47220206D01*
X91287328Y-47220202D01*
X91152482Y-47169908D01*
X91152483Y-47169908D01*
X91092883Y-47163501D01*
X91092881Y-47163500D01*
X91092873Y-47163500D01*
X91092864Y-47163500D01*
X89297129Y-47163500D01*
X89297123Y-47163501D01*
X89237516Y-47169908D01*
X89102671Y-47220202D01*
X89102664Y-47220206D01*
X88987455Y-47306452D01*
X88987452Y-47306455D01*
X88901206Y-47421664D01*
X88901202Y-47421671D01*
X88850908Y-47556517D01*
X88847008Y-47592797D01*
X88844501Y-47616123D01*
X88844500Y-47616135D01*
X88844500Y-49411870D01*
X88844501Y-49411876D01*
X88850908Y-49471483D01*
X88901202Y-49606328D01*
X88901206Y-49606335D01*
X88987452Y-49721544D01*
X88987455Y-49721547D01*
X89102664Y-49807793D01*
X89102671Y-49807797D01*
X89133510Y-49819299D01*
X89234598Y-49857002D01*
X89290531Y-49898873D01*
X89314949Y-49964337D01*
X89300098Y-50032610D01*
X89278947Y-50060865D01*
X89156886Y-50182926D01*
X89021400Y-50376420D01*
X89021399Y-50376422D01*
X88921570Y-50590507D01*
X88921567Y-50590513D01*
X88864364Y-50803999D01*
X88864364Y-50804000D01*
X89761314Y-50804000D01*
X89735507Y-50844156D01*
X89695000Y-50982111D01*
X89695000Y-51125889D01*
X89735507Y-51263844D01*
X89761314Y-51304000D01*
X88864364Y-51304000D01*
X88921567Y-51517486D01*
X88921570Y-51517492D01*
X89021399Y-51731578D01*
X89156894Y-51925082D01*
X89323917Y-52092105D01*
X89509595Y-52222119D01*
X89553219Y-52276696D01*
X89560412Y-52346195D01*
X89528890Y-52408549D01*
X89509595Y-52425269D01*
X89323594Y-52555508D01*
X89156505Y-52722597D01*
X89020965Y-52916169D01*
X89020964Y-52916171D01*
X88921098Y-53130335D01*
X88921094Y-53130344D01*
X88859938Y-53358586D01*
X88859936Y-53358596D01*
X88839341Y-53593999D01*
X88839341Y-53594000D01*
X88859936Y-53829403D01*
X88859938Y-53829413D01*
X88921094Y-54057655D01*
X88921096Y-54057659D01*
X88921097Y-54057663D01*
X88984103Y-54192779D01*
X89020965Y-54271830D01*
X89020967Y-54271834D01*
X89113787Y-54404394D01*
X89156501Y-54465396D01*
X89156506Y-54465402D01*
X89323597Y-54632493D01*
X89323603Y-54632498D01*
X89509158Y-54762425D01*
X89552783Y-54817002D01*
X89559977Y-54886500D01*
X89528454Y-54948855D01*
X89509158Y-54965575D01*
X89323597Y-55095505D01*
X89156505Y-55262597D01*
X89020965Y-55456169D01*
X89020964Y-55456171D01*
X88921098Y-55670335D01*
X88921094Y-55670344D01*
X88859938Y-55898586D01*
X88859936Y-55898596D01*
X88839341Y-56133999D01*
X88839341Y-56134000D01*
X88859936Y-56369403D01*
X88859938Y-56369413D01*
X88921094Y-56597655D01*
X88921096Y-56597659D01*
X88921097Y-56597663D01*
X88985003Y-56734710D01*
X89020965Y-56811830D01*
X89020967Y-56811834D01*
X89093685Y-56915685D01*
X89156501Y-57005396D01*
X89156506Y-57005402D01*
X89323597Y-57172493D01*
X89323603Y-57172498D01*
X89509158Y-57302425D01*
X89552783Y-57357002D01*
X89559977Y-57426500D01*
X89528454Y-57488855D01*
X89509158Y-57505575D01*
X89323597Y-57635505D01*
X89156505Y-57802597D01*
X89020965Y-57996169D01*
X89020964Y-57996171D01*
X88921098Y-58210335D01*
X88921094Y-58210344D01*
X88859938Y-58438586D01*
X88859936Y-58438596D01*
X88839341Y-58673999D01*
X88839341Y-58674000D01*
X88859936Y-58909403D01*
X88859938Y-58909413D01*
X88921094Y-59137655D01*
X88921096Y-59137659D01*
X88921097Y-59137663D01*
X89013983Y-59336857D01*
X89020965Y-59351830D01*
X89020967Y-59351834D01*
X89079115Y-59434877D01*
X89156501Y-59545396D01*
X89156506Y-59545402D01*
X89323597Y-59712493D01*
X89323603Y-59712498D01*
X89509158Y-59842425D01*
X89552783Y-59897002D01*
X89559977Y-59966500D01*
X89528454Y-60028855D01*
X89509158Y-60045575D01*
X89323597Y-60175505D01*
X89156505Y-60342597D01*
X89020965Y-60536169D01*
X89020964Y-60536171D01*
X88921098Y-60750335D01*
X88921094Y-60750344D01*
X88859938Y-60978586D01*
X88859936Y-60978596D01*
X88839341Y-61213999D01*
X88839341Y-61214000D01*
X88859936Y-61449403D01*
X88859938Y-61449413D01*
X88921094Y-61677655D01*
X88921096Y-61677659D01*
X88921097Y-61677663D01*
X88997099Y-61840649D01*
X89020965Y-61891830D01*
X89020967Y-61891834D01*
X89121668Y-62035649D01*
X89135854Y-62055909D01*
X89156501Y-62085395D01*
X89156506Y-62085402D01*
X89323597Y-62252493D01*
X89323603Y-62252498D01*
X89509158Y-62382425D01*
X89552783Y-62437002D01*
X89559977Y-62506500D01*
X89528454Y-62568855D01*
X89509158Y-62585575D01*
X89323597Y-62715505D01*
X89156505Y-62882597D01*
X89020965Y-63076169D01*
X89020964Y-63076171D01*
X88921098Y-63290335D01*
X88921094Y-63290344D01*
X88859938Y-63518586D01*
X88859936Y-63518596D01*
X88839341Y-63753999D01*
X88839341Y-63754000D01*
X88859936Y-63989403D01*
X88859938Y-63989413D01*
X88921094Y-64217655D01*
X88921096Y-64217659D01*
X88921097Y-64217663D01*
X89003256Y-64393853D01*
X89020965Y-64431830D01*
X89020967Y-64431834D01*
X89098043Y-64541909D01*
X89147864Y-64613061D01*
X89156501Y-64625395D01*
X89156506Y-64625402D01*
X89323597Y-64792493D01*
X89323603Y-64792498D01*
X89509158Y-64922425D01*
X89552783Y-64977002D01*
X89559977Y-65046500D01*
X89528454Y-65108855D01*
X89509158Y-65125575D01*
X89323597Y-65255505D01*
X89156505Y-65422597D01*
X89020965Y-65616169D01*
X89020964Y-65616171D01*
X88921098Y-65830335D01*
X88921094Y-65830344D01*
X88859938Y-66058586D01*
X88859936Y-66058596D01*
X88839341Y-66293999D01*
X88839341Y-66294000D01*
X88859936Y-66529403D01*
X88859938Y-66529413D01*
X88921094Y-66757655D01*
X88921096Y-66757659D01*
X88921097Y-66757663D01*
X89006180Y-66940123D01*
X89020965Y-66971830D01*
X89020967Y-66971834D01*
X89120792Y-67114397D01*
X89156505Y-67165401D01*
X89323599Y-67332495D01*
X89349353Y-67350528D01*
X89517165Y-67468032D01*
X89517167Y-67468033D01*
X89517170Y-67468035D01*
X89731337Y-67567903D01*
X89731343Y-67567904D01*
X89731344Y-67567905D01*
X89786285Y-67582626D01*
X89959592Y-67629063D01*
X90147918Y-67645539D01*
X90194999Y-67649659D01*
X90195000Y-67649659D01*
X90195001Y-67649659D01*
X90234234Y-67646226D01*
X90430408Y-67629063D01*
X90658663Y-67567903D01*
X90872830Y-67468035D01*
X91066401Y-67332495D01*
X91233495Y-67165401D01*
X91369035Y-66971830D01*
X91468903Y-66757663D01*
X91530063Y-66529408D01*
X91550659Y-66294000D01*
X91530063Y-66058592D01*
X91503143Y-65958125D01*
X91504806Y-65888276D01*
X91535235Y-65838353D01*
X92180820Y-65192769D01*
X92242142Y-65159285D01*
X92311834Y-65164269D01*
X92367767Y-65206141D01*
X92392184Y-65271605D01*
X92392500Y-65280451D01*
X92392500Y-66851771D01*
X92391969Y-66859869D01*
X92390910Y-66867913D01*
X92387318Y-66895199D01*
X92387318Y-66895200D01*
X92398211Y-66977938D01*
X92407955Y-67051960D01*
X92407956Y-67051962D01*
X92457505Y-67171585D01*
X92468464Y-67198041D01*
X92564718Y-67323482D01*
X92592995Y-67345180D01*
X92599085Y-67350520D01*
X98546565Y-73298000D01*
X103776884Y-78528319D01*
X103810369Y-78589642D01*
X103805385Y-78659334D01*
X103763513Y-78715267D01*
X103698049Y-78739684D01*
X103689203Y-78740000D01*
X88516000Y-78740000D01*
X88448961Y-78720315D01*
X88403206Y-78667511D01*
X88392000Y-78616000D01*
X88392000Y-46860000D01*
X88411685Y-46792961D01*
X88464489Y-46747206D01*
X88516000Y-46736000D01*
X114554000Y-46736000D01*
X116468500Y-46736000D01*
X116468500Y-48711547D01*
G37*
%TD.AperFunction*%
%TA.AperFunction,Conductor*%
G36*
X141478000Y-78616000D02*
G01*
X141458315Y-78683039D01*
X141405511Y-78728794D01*
X141354000Y-78740000D01*
X130244796Y-78740000D01*
X130177757Y-78720315D01*
X130132002Y-78667511D01*
X130122058Y-78598353D01*
X130151083Y-78534797D01*
X130157115Y-78528319D01*
X132190922Y-76494511D01*
X132196999Y-76489183D01*
X132225282Y-76467482D01*
X132321536Y-76342041D01*
X132382044Y-76195962D01*
X132397500Y-76078561D01*
X132402682Y-76039200D01*
X132398030Y-76003869D01*
X132397500Y-75995771D01*
X132397500Y-70272267D01*
X132417185Y-70205228D01*
X132469989Y-70159473D01*
X132539147Y-70149529D01*
X132602703Y-70178554D01*
X132611375Y-70186835D01*
X132718505Y-70299537D01*
X132877086Y-70409913D01*
X133054637Y-70486106D01*
X133243894Y-70525000D01*
X133640500Y-70525000D01*
X133640500Y-69875000D01*
X134140500Y-69875000D01*
X134140500Y-70525000D01*
X134488676Y-70525000D01*
X134632721Y-70510352D01*
X134817061Y-70452515D01*
X134817071Y-70452510D01*
X134985998Y-70358748D01*
X134986005Y-70358743D01*
X135132605Y-70232892D01*
X135250868Y-70080109D01*
X135250870Y-70080105D01*
X135335957Y-69906643D01*
X135357096Y-69825000D01*
X136740029Y-69825000D01*
X136803185Y-69995527D01*
X136803187Y-69995531D01*
X136905392Y-70159503D01*
X137038502Y-70299534D01*
X137038503Y-70299535D01*
X137197086Y-70409913D01*
X137374637Y-70486106D01*
X137563894Y-70525000D01*
X137810500Y-70525000D01*
X137810500Y-69875000D01*
X138310500Y-69875000D01*
X138310500Y-70525000D01*
X138508676Y-70525000D01*
X138652721Y-70510352D01*
X138837061Y-70452515D01*
X138837071Y-70452510D01*
X139005998Y-70358748D01*
X139006005Y-70358743D01*
X139152605Y-70232892D01*
X139270868Y-70080109D01*
X139270870Y-70080105D01*
X139355957Y-69906643D01*
X139377096Y-69825000D01*
X138626611Y-69825000D01*
X138666110Y-69800543D01*
X138733701Y-69711038D01*
X138764395Y-69603160D01*
X138754046Y-69491479D01*
X138704052Y-69391078D01*
X138631569Y-69325000D01*
X139380971Y-69325000D01*
X139317814Y-69154472D01*
X139317812Y-69154468D01*
X139215607Y-68990496D01*
X139082497Y-68850465D01*
X139082496Y-68850464D01*
X138923913Y-68740086D01*
X138746362Y-68663893D01*
X138557106Y-68625000D01*
X138310500Y-68625000D01*
X138310500Y-69275000D01*
X137810500Y-69275000D01*
X137810500Y-68625000D01*
X137612324Y-68625000D01*
X137468278Y-68639647D01*
X137283938Y-68697484D01*
X137283928Y-68697489D01*
X137115001Y-68791251D01*
X137114994Y-68791256D01*
X136968394Y-68917107D01*
X136850131Y-69069890D01*
X136850129Y-69069894D01*
X136765042Y-69243356D01*
X136743904Y-69325000D01*
X137494389Y-69325000D01*
X137454890Y-69349457D01*
X137387299Y-69438962D01*
X137356605Y-69546840D01*
X137366954Y-69658521D01*
X137416948Y-69758922D01*
X137489431Y-69825000D01*
X136740029Y-69825000D01*
X135357096Y-69825000D01*
X134606611Y-69825000D01*
X134646110Y-69800543D01*
X134713701Y-69711038D01*
X134744395Y-69603160D01*
X134734046Y-69491479D01*
X134684052Y-69391078D01*
X134611569Y-69325000D01*
X135360971Y-69325000D01*
X135297814Y-69154472D01*
X135297812Y-69154468D01*
X135195607Y-68990496D01*
X135062497Y-68850465D01*
X135062496Y-68850464D01*
X134903913Y-68740086D01*
X134834950Y-68710492D01*
X134781106Y-68665965D01*
X134759883Y-68599396D01*
X134778018Y-68531921D01*
X134782546Y-68525032D01*
X134786608Y-68519278D01*
X134873877Y-68395647D01*
X134916480Y-68275775D01*
X134924553Y-68253060D01*
X134924553Y-68253058D01*
X134924554Y-68253056D01*
X134934881Y-68102079D01*
X134933234Y-68094151D01*
X134904094Y-67953921D01*
X134904092Y-67953918D01*
X134904092Y-67953915D01*
X134834471Y-67819553D01*
X134834467Y-67819549D01*
X134834467Y-67819548D01*
X134731181Y-67708956D01*
X134633670Y-67649659D01*
X134601882Y-67630328D01*
X134471543Y-67593808D01*
X134412301Y-67556767D01*
X134382490Y-67493576D01*
X134380999Y-67474407D01*
X134380999Y-67302128D01*
X134380998Y-67302111D01*
X134376820Y-67263253D01*
X134376834Y-67236607D01*
X134376889Y-67236106D01*
X134403699Y-67171585D01*
X134461137Y-67131802D01*
X134500163Y-67125500D01*
X134585257Y-67125500D01*
X134600877Y-67127224D01*
X134600904Y-67126939D01*
X134608660Y-67127671D01*
X134608667Y-67127673D01*
X134677814Y-67125500D01*
X134707350Y-67125500D01*
X134714228Y-67124630D01*
X134720041Y-67124172D01*
X134766627Y-67122709D01*
X134785869Y-67117117D01*
X134804912Y-67113174D01*
X134824792Y-67110664D01*
X134868122Y-67093507D01*
X134873646Y-67091617D01*
X134877396Y-67090527D01*
X134918390Y-67078618D01*
X134935629Y-67068422D01*
X134953103Y-67059862D01*
X134971727Y-67052488D01*
X134971727Y-67052487D01*
X134971732Y-67052486D01*
X135009449Y-67025082D01*
X135014305Y-67021892D01*
X135054420Y-66998170D01*
X135068589Y-66983999D01*
X135083379Y-66971368D01*
X135099587Y-66959594D01*
X135129299Y-66923676D01*
X135133212Y-66919376D01*
X136781787Y-65270801D01*
X136794042Y-65260986D01*
X136793859Y-65260764D01*
X136799866Y-65255792D01*
X136799877Y-65255786D01*
X136833714Y-65219753D01*
X136847227Y-65205364D01*
X136857671Y-65194918D01*
X136868120Y-65184471D01*
X136872379Y-65178978D01*
X136876152Y-65174561D01*
X136908062Y-65140582D01*
X136917713Y-65123024D01*
X136928396Y-65106761D01*
X136940673Y-65090936D01*
X136959185Y-65048153D01*
X136961738Y-65042941D01*
X136984197Y-65002092D01*
X136989180Y-64982680D01*
X136995481Y-64964280D01*
X137003437Y-64945896D01*
X137010729Y-64899852D01*
X137011906Y-64894171D01*
X137023500Y-64849019D01*
X137023500Y-64828983D01*
X137025027Y-64809582D01*
X137025891Y-64804127D01*
X137028160Y-64789804D01*
X137023775Y-64743415D01*
X137023500Y-64737577D01*
X137023500Y-61873569D01*
X137043185Y-61806530D01*
X137095989Y-61760775D01*
X137165147Y-61750831D01*
X137196401Y-61759618D01*
X137374639Y-61836107D01*
X137563894Y-61875000D01*
X137810500Y-61875000D01*
X137810500Y-61225000D01*
X138310500Y-61225000D01*
X138310500Y-61875000D01*
X138508676Y-61875000D01*
X138652721Y-61860352D01*
X138837061Y-61802515D01*
X138837071Y-61802510D01*
X139005998Y-61708748D01*
X139006005Y-61708743D01*
X139152605Y-61582892D01*
X139270868Y-61430109D01*
X139270870Y-61430105D01*
X139355957Y-61256643D01*
X139377096Y-61175000D01*
X138626611Y-61175000D01*
X138666110Y-61150543D01*
X138733701Y-61061038D01*
X138764395Y-60953160D01*
X138754046Y-60841479D01*
X138704052Y-60741078D01*
X138631569Y-60675000D01*
X139380971Y-60675000D01*
X139317814Y-60504472D01*
X139317812Y-60504468D01*
X139215607Y-60340496D01*
X139082497Y-60200465D01*
X139082496Y-60200464D01*
X138923913Y-60090086D01*
X138746362Y-60013893D01*
X138557106Y-59975000D01*
X138310500Y-59975000D01*
X138310500Y-60625000D01*
X137810500Y-60625000D01*
X137810500Y-59975000D01*
X137612324Y-59975000D01*
X137468278Y-59989647D01*
X137283938Y-60047484D01*
X137283926Y-60047489D01*
X137250510Y-60066037D01*
X137182341Y-60081359D01*
X137116710Y-60057394D01*
X137074454Y-60001751D01*
X137068989Y-59932095D01*
X137102050Y-59870542D01*
X137102452Y-59870138D01*
X140337788Y-56634801D01*
X140350042Y-56624986D01*
X140349859Y-56624764D01*
X140355866Y-56619792D01*
X140355877Y-56619786D01*
X140386775Y-56586882D01*
X140403227Y-56569364D01*
X140413671Y-56558918D01*
X140424120Y-56548471D01*
X140428379Y-56542978D01*
X140432152Y-56538561D01*
X140464062Y-56504582D01*
X140473713Y-56487024D01*
X140484396Y-56470761D01*
X140496673Y-56454936D01*
X140515185Y-56412153D01*
X140517738Y-56406941D01*
X140540197Y-56366092D01*
X140545180Y-56346680D01*
X140551481Y-56328280D01*
X140559437Y-56309896D01*
X140566729Y-56263852D01*
X140567906Y-56258171D01*
X140579500Y-56213019D01*
X140579500Y-56192983D01*
X140581027Y-56173582D01*
X140584160Y-56153804D01*
X140579775Y-56107415D01*
X140579500Y-56101577D01*
X140579500Y-54184742D01*
X140581224Y-54169122D01*
X140580939Y-54169095D01*
X140581673Y-54161333D01*
X140580943Y-54138102D01*
X140579500Y-54092171D01*
X140579500Y-54062650D01*
X140578631Y-54055779D01*
X140578173Y-54049952D01*
X140576710Y-54003373D01*
X140571119Y-53984130D01*
X140567173Y-53965078D01*
X140564664Y-53945208D01*
X140547504Y-53901867D01*
X140545624Y-53896379D01*
X140532618Y-53851610D01*
X140529190Y-53845814D01*
X140522423Y-53834371D01*
X140513861Y-53816894D01*
X140506487Y-53798270D01*
X140506486Y-53798268D01*
X140479079Y-53760545D01*
X140475888Y-53755686D01*
X140452172Y-53715583D01*
X140452165Y-53715574D01*
X140438006Y-53701415D01*
X140425368Y-53686619D01*
X140418248Y-53676819D01*
X140413594Y-53670413D01*
X140393640Y-53653906D01*
X140377688Y-53640709D01*
X140373376Y-53636786D01*
X139692803Y-52956212D01*
X139682980Y-52943950D01*
X139682759Y-52944134D01*
X139677786Y-52938123D01*
X139669975Y-52930788D01*
X139627364Y-52890773D01*
X139613575Y-52876984D01*
X139606475Y-52869883D01*
X139600986Y-52865625D01*
X139596561Y-52861847D01*
X139562582Y-52829938D01*
X139562580Y-52829936D01*
X139562577Y-52829935D01*
X139545029Y-52820288D01*
X139528763Y-52809604D01*
X139512933Y-52797325D01*
X139470168Y-52778818D01*
X139464922Y-52776248D01*
X139424093Y-52753803D01*
X139424092Y-52753802D01*
X139404693Y-52748822D01*
X139386281Y-52742518D01*
X139367898Y-52734562D01*
X139367892Y-52734560D01*
X139321874Y-52727272D01*
X139316152Y-52726087D01*
X139271021Y-52714500D01*
X139271019Y-52714500D01*
X139250984Y-52714500D01*
X139231586Y-52712973D01*
X139224162Y-52711797D01*
X139211805Y-52709840D01*
X139211804Y-52709840D01*
X139165416Y-52714225D01*
X139159578Y-52714500D01*
X138993552Y-52714500D01*
X138926513Y-52694815D01*
X138880758Y-52642011D01*
X138870814Y-52572853D01*
X138899839Y-52509297D01*
X138931562Y-52485688D01*
X138930480Y-52483898D01*
X139082377Y-52392072D01*
X139202572Y-52271877D01*
X139290519Y-52126395D01*
X139341090Y-51964106D01*
X139347500Y-51893572D01*
X139347500Y-51812000D01*
X138321500Y-51812000D01*
X138254461Y-51792315D01*
X138208706Y-51739511D01*
X138197500Y-51688000D01*
X138197500Y-50587000D01*
X138697500Y-50587000D01*
X138697500Y-51312000D01*
X139347499Y-51312000D01*
X139347499Y-51230417D01*
X139341091Y-51159897D01*
X139341090Y-51159892D01*
X139290518Y-50997603D01*
X139202572Y-50852122D01*
X139082377Y-50731927D01*
X138936895Y-50643980D01*
X138936896Y-50643980D01*
X138774605Y-50593409D01*
X138774606Y-50593409D01*
X138704072Y-50587000D01*
X138697500Y-50587000D01*
X138197500Y-50587000D01*
X138197499Y-50586999D01*
X138190936Y-50587000D01*
X138190917Y-50587001D01*
X138120397Y-50593408D01*
X138120392Y-50593409D01*
X137958103Y-50643981D01*
X137812622Y-50731927D01*
X137812621Y-50731928D01*
X137710535Y-50834015D01*
X137649212Y-50867500D01*
X137579520Y-50862516D01*
X137535173Y-50834015D01*
X137432688Y-50731530D01*
X137287106Y-50643522D01*
X137129487Y-50594407D01*
X137124696Y-50592914D01*
X137124694Y-50592913D01*
X137124692Y-50592913D01*
X137075278Y-50588423D01*
X137054116Y-50586500D01*
X136540884Y-50586500D01*
X136521645Y-50588248D01*
X136470307Y-50592913D01*
X136307893Y-50643522D01*
X136162311Y-50731530D01*
X136042030Y-50851811D01*
X135954022Y-50997393D01*
X135903413Y-51159807D01*
X135897000Y-51230386D01*
X135897000Y-51893613D01*
X135903413Y-51964192D01*
X135903413Y-51964194D01*
X135903414Y-51964196D01*
X135954022Y-52126606D01*
X136036660Y-52263306D01*
X136042030Y-52272188D01*
X136134780Y-52364938D01*
X136168265Y-52426261D01*
X136171038Y-52448720D01*
X136172000Y-52479312D01*
X136172000Y-52508843D01*
X136172001Y-52508860D01*
X136172868Y-52515731D01*
X136173326Y-52521550D01*
X136174790Y-52568124D01*
X136174791Y-52568127D01*
X136180380Y-52587367D01*
X136184324Y-52606411D01*
X136186836Y-52626292D01*
X136197556Y-52653369D01*
X136203990Y-52669619D01*
X136205882Y-52675147D01*
X136211596Y-52694815D01*
X136218882Y-52719890D01*
X136227557Y-52734560D01*
X136229080Y-52737134D01*
X136237636Y-52754600D01*
X136245014Y-52773232D01*
X136262518Y-52797325D01*
X136272398Y-52810923D01*
X136275606Y-52815807D01*
X136299327Y-52855916D01*
X136299333Y-52855924D01*
X136313490Y-52870080D01*
X136326128Y-52884876D01*
X136337905Y-52901086D01*
X136337906Y-52901087D01*
X136373809Y-52930788D01*
X136378120Y-52934710D01*
X136962039Y-53518630D01*
X137120228Y-53676819D01*
X137153713Y-53738142D01*
X137148729Y-53807834D01*
X137106857Y-53863767D01*
X137041393Y-53888184D01*
X137032547Y-53888500D01*
X136540884Y-53888500D01*
X136521645Y-53890248D01*
X136470307Y-53894913D01*
X136307893Y-53945522D01*
X136162311Y-54033530D01*
X136042030Y-54153811D01*
X135954022Y-54299393D01*
X135903413Y-54461807D01*
X135897000Y-54532386D01*
X135897000Y-54828546D01*
X135877315Y-54895585D01*
X135860681Y-54916227D01*
X133728208Y-57048699D01*
X133715951Y-57058520D01*
X133716134Y-57058741D01*
X133710123Y-57063713D01*
X133662772Y-57114136D01*
X133641889Y-57135019D01*
X133641877Y-57135032D01*
X133637621Y-57140517D01*
X133633837Y-57144947D01*
X133601937Y-57178918D01*
X133601936Y-57178920D01*
X133592284Y-57196476D01*
X133581610Y-57212726D01*
X133569329Y-57228561D01*
X133569324Y-57228568D01*
X133550815Y-57271338D01*
X133548245Y-57276584D01*
X133525803Y-57317406D01*
X133520822Y-57336807D01*
X133514521Y-57355210D01*
X133506562Y-57373602D01*
X133506561Y-57373605D01*
X133499271Y-57419627D01*
X133498087Y-57425346D01*
X133486501Y-57470472D01*
X133486500Y-57470482D01*
X133486500Y-57490516D01*
X133484973Y-57509915D01*
X133481840Y-57529694D01*
X133481840Y-57529695D01*
X133486225Y-57576083D01*
X133486500Y-57581921D01*
X133486500Y-57829255D01*
X133484775Y-57844872D01*
X133485061Y-57844899D01*
X133484326Y-57852665D01*
X133486500Y-57921814D01*
X133486500Y-57951343D01*
X133486501Y-57951360D01*
X133487368Y-57958231D01*
X133487826Y-57964050D01*
X133489290Y-58010624D01*
X133489291Y-58010627D01*
X133494880Y-58029867D01*
X133498824Y-58048911D01*
X133501336Y-58068792D01*
X133518490Y-58112119D01*
X133520382Y-58117647D01*
X133533381Y-58162388D01*
X133543580Y-58179634D01*
X133552138Y-58197103D01*
X133559514Y-58215732D01*
X133586898Y-58253423D01*
X133590106Y-58258307D01*
X133613827Y-58298416D01*
X133613833Y-58298424D01*
X133627990Y-58312580D01*
X133640628Y-58327376D01*
X133652405Y-58343586D01*
X133652406Y-58343587D01*
X133688309Y-58373288D01*
X133692620Y-58377210D01*
X134343921Y-59028511D01*
X134974181Y-59658771D01*
X135007666Y-59720094D01*
X135010500Y-59746452D01*
X135010500Y-59947678D01*
X134990815Y-60014717D01*
X134938011Y-60060472D01*
X134868853Y-60070416D01*
X134837600Y-60061629D01*
X134726362Y-60013893D01*
X134537106Y-59975000D01*
X134140500Y-59975000D01*
X134140500Y-60625000D01*
X133640500Y-60625000D01*
X133640500Y-59975000D01*
X133292324Y-59975000D01*
X133148278Y-59989647D01*
X132963938Y-60047484D01*
X132963928Y-60047489D01*
X132795001Y-60141251D01*
X132794994Y-60141256D01*
X132648394Y-60267107D01*
X132530131Y-60419890D01*
X132530129Y-60419894D01*
X132445042Y-60593356D01*
X132423904Y-60675000D01*
X133174389Y-60675000D01*
X133134890Y-60699457D01*
X133067299Y-60788962D01*
X133036605Y-60896840D01*
X133046954Y-61008521D01*
X133096948Y-61108922D01*
X133169431Y-61175000D01*
X132420029Y-61175000D01*
X132443055Y-61237173D01*
X132447878Y-61306876D01*
X132414251Y-61368122D01*
X132401087Y-61379503D01*
X132383313Y-61392809D01*
X132383308Y-61392814D01*
X132297149Y-61507906D01*
X132297145Y-61507913D01*
X132246903Y-61642620D01*
X132246901Y-61642627D01*
X132240500Y-61702155D01*
X132240500Y-61800000D01*
X133436500Y-61800000D01*
X133503539Y-61819685D01*
X133549294Y-61872489D01*
X133560500Y-61924000D01*
X133560500Y-61925500D01*
X133540815Y-61992539D01*
X133488011Y-62038294D01*
X133436500Y-62049500D01*
X132692629Y-62049500D01*
X132692623Y-62049501D01*
X132633016Y-62055908D01*
X132498171Y-62106202D01*
X132498164Y-62106206D01*
X132375855Y-62197768D01*
X132374060Y-62195370D01*
X132325904Y-62221666D01*
X132299546Y-62224500D01*
X131292083Y-62224500D01*
X131225044Y-62204815D01*
X131179289Y-62152011D01*
X131175901Y-62143833D01*
X131137797Y-62041671D01*
X131137796Y-62041670D01*
X131137796Y-62041669D01*
X131108232Y-62002176D01*
X131083816Y-61936714D01*
X131083500Y-61927867D01*
X131083500Y-60921628D01*
X131103185Y-60854589D01*
X131155989Y-60808834D01*
X131164168Y-60805446D01*
X131170481Y-60803091D01*
X131170483Y-60803091D01*
X131305331Y-60752796D01*
X131420546Y-60666546D01*
X131506796Y-60551331D01*
X131557091Y-60416483D01*
X131563500Y-60356873D01*
X131563499Y-59531128D01*
X131557091Y-59471517D01*
X131543425Y-59434877D01*
X131506797Y-59336671D01*
X131506793Y-59336664D01*
X131420547Y-59221455D01*
X131420544Y-59221452D01*
X131305335Y-59135206D01*
X131305328Y-59135202D01*
X131170482Y-59084908D01*
X131170483Y-59084908D01*
X131110883Y-59078501D01*
X131110881Y-59078500D01*
X131110873Y-59078500D01*
X131110864Y-59078500D01*
X129805129Y-59078500D01*
X129805123Y-59078501D01*
X129745516Y-59084908D01*
X129610671Y-59135202D01*
X129610664Y-59135206D01*
X129495455Y-59221452D01*
X129495452Y-59221455D01*
X129409206Y-59336664D01*
X129409202Y-59336671D01*
X129358908Y-59471517D01*
X129352501Y-59531116D01*
X129352501Y-59531123D01*
X129352500Y-59531135D01*
X129352500Y-60356870D01*
X129352501Y-60356876D01*
X129358908Y-60416483D01*
X129409202Y-60551328D01*
X129409206Y-60551335D01*
X129495452Y-60666544D01*
X129495455Y-60666547D01*
X129610664Y-60752793D01*
X129610673Y-60752798D01*
X129661471Y-60771744D01*
X129745517Y-60803091D01*
X129745518Y-60803091D01*
X129751832Y-60805446D01*
X129807766Y-60847316D01*
X129832184Y-60912781D01*
X129832500Y-60921628D01*
X129832500Y-61754929D01*
X129812815Y-61821968D01*
X129760011Y-61867723D01*
X129690853Y-61877667D01*
X129634191Y-61854197D01*
X129616092Y-61840648D01*
X129616086Y-61840645D01*
X129481379Y-61790403D01*
X129481372Y-61790401D01*
X129421844Y-61784000D01*
X129334000Y-61784000D01*
X129334000Y-63184000D01*
X129421828Y-63184000D01*
X129421844Y-63183999D01*
X129481372Y-63177598D01*
X129481379Y-63177596D01*
X129616086Y-63127354D01*
X129616089Y-63127352D01*
X129719271Y-63050110D01*
X129784735Y-63025692D01*
X129853008Y-63040543D01*
X129867888Y-63050105D01*
X129971076Y-63127352D01*
X129971668Y-63127795D01*
X129971671Y-63127797D01*
X130106516Y-63178091D01*
X130132419Y-63180875D01*
X130166127Y-63184500D01*
X130218546Y-63184499D01*
X130285585Y-63204182D01*
X130306228Y-63220818D01*
X130319194Y-63233784D01*
X130329021Y-63246049D01*
X130329242Y-63245867D01*
X130334215Y-63251879D01*
X130384635Y-63299225D01*
X130405529Y-63320120D01*
X130411006Y-63324369D01*
X130415446Y-63328161D01*
X130435620Y-63347105D01*
X130471017Y-63407344D01*
X130468227Y-63477158D01*
X130428136Y-63534381D01*
X130363472Y-63560845D01*
X130350741Y-63561500D01*
X130166130Y-63561500D01*
X130166123Y-63561501D01*
X130106516Y-63567908D01*
X129971671Y-63618202D01*
X129971668Y-63618204D01*
X129867893Y-63695890D01*
X129802428Y-63720307D01*
X129734155Y-63705455D01*
X129719270Y-63695889D01*
X129616089Y-63618647D01*
X129616086Y-63618645D01*
X129481379Y-63568403D01*
X129481372Y-63568401D01*
X129421844Y-63562000D01*
X129334000Y-63562000D01*
X129334000Y-64121401D01*
X129314315Y-64188440D01*
X129297681Y-64209082D01*
X129095264Y-64411500D01*
X129081083Y-64425681D01*
X129019760Y-64459166D01*
X128993402Y-64462000D01*
X128394000Y-64462000D01*
X128394000Y-64509844D01*
X128400401Y-64569372D01*
X128400403Y-64569379D01*
X128450645Y-64704086D01*
X128450649Y-64704093D01*
X128494140Y-64762189D01*
X128518558Y-64827653D01*
X128503707Y-64895926D01*
X128454302Y-64945332D01*
X128394874Y-64960500D01*
X127966228Y-64960500D01*
X127958129Y-64959969D01*
X127922800Y-64955318D01*
X127922799Y-64955318D01*
X127849531Y-64964964D01*
X127766039Y-64975955D01*
X127766037Y-64975956D01*
X127619960Y-65036463D01*
X127494514Y-65132721D01*
X127472824Y-65160990D01*
X127467471Y-65167094D01*
X126833174Y-65801391D01*
X126771851Y-65834876D01*
X126702160Y-65829892D01*
X126646226Y-65788021D01*
X126621809Y-65722556D01*
X126621493Y-65713710D01*
X126621493Y-64062000D01*
X128394000Y-64062000D01*
X128934000Y-64062000D01*
X128934000Y-63562000D01*
X128846155Y-63562000D01*
X128786627Y-63568401D01*
X128786620Y-63568403D01*
X128651913Y-63618645D01*
X128651906Y-63618649D01*
X128536812Y-63704809D01*
X128536809Y-63704812D01*
X128450649Y-63819906D01*
X128450645Y-63819913D01*
X128400403Y-63954620D01*
X128400401Y-63954627D01*
X128394000Y-64014155D01*
X128394000Y-64062000D01*
X126621493Y-64062000D01*
X126621493Y-62684000D01*
X128394000Y-62684000D01*
X128394000Y-62731844D01*
X128400401Y-62791372D01*
X128400403Y-62791379D01*
X128450645Y-62926086D01*
X128450649Y-62926093D01*
X128536809Y-63041187D01*
X128536812Y-63041190D01*
X128651906Y-63127350D01*
X128651913Y-63127354D01*
X128786620Y-63177596D01*
X128786627Y-63177598D01*
X128846155Y-63183999D01*
X128846172Y-63184000D01*
X128934000Y-63184000D01*
X128934000Y-62684000D01*
X128394000Y-62684000D01*
X126621493Y-62684000D01*
X126621493Y-62284000D01*
X128394000Y-62284000D01*
X128934000Y-62284000D01*
X128934000Y-61784000D01*
X128846155Y-61784000D01*
X128786627Y-61790401D01*
X128786620Y-61790403D01*
X128651913Y-61840645D01*
X128651906Y-61840649D01*
X128536812Y-61926809D01*
X128536809Y-61926812D01*
X128450649Y-62041906D01*
X128450645Y-62041913D01*
X128400403Y-62176620D01*
X128400401Y-62176627D01*
X128394000Y-62236155D01*
X128394000Y-62284000D01*
X126621493Y-62284000D01*
X126621493Y-61356459D01*
X126641178Y-61289420D01*
X126657812Y-61268778D01*
X127080772Y-60845818D01*
X127142095Y-60812333D01*
X127168453Y-60809499D01*
X127750871Y-60809499D01*
X127750872Y-60809499D01*
X127810483Y-60803091D01*
X127945331Y-60752796D01*
X128060546Y-60666546D01*
X128146796Y-60551331D01*
X128197091Y-60416483D01*
X128203500Y-60356873D01*
X128203499Y-59531128D01*
X128197091Y-59471517D01*
X128183425Y-59434877D01*
X128146797Y-59336671D01*
X128146793Y-59336664D01*
X128060547Y-59221455D01*
X128060544Y-59221452D01*
X127945335Y-59135206D01*
X127945328Y-59135202D01*
X127804167Y-59082553D01*
X127748233Y-59040682D01*
X127723816Y-58975218D01*
X127723500Y-58966371D01*
X127723500Y-57617237D01*
X127725224Y-57601623D01*
X127724938Y-57601596D01*
X127725672Y-57593833D01*
X127723500Y-57524702D01*
X127723500Y-57495151D01*
X127723500Y-57495150D01*
X127722629Y-57488259D01*
X127722172Y-57482445D01*
X127721890Y-57473483D01*
X127720709Y-57435872D01*
X127715120Y-57416637D01*
X127711174Y-57397584D01*
X127710974Y-57396000D01*
X127708664Y-57377708D01*
X127691501Y-57334359D01*
X127689614Y-57328846D01*
X127686290Y-57317406D01*
X127676617Y-57284110D01*
X127666421Y-57266869D01*
X127657860Y-57249393D01*
X127655560Y-57243583D01*
X127650486Y-57230768D01*
X127650486Y-57230767D01*
X127637378Y-57212726D01*
X127623083Y-57193050D01*
X127619900Y-57188205D01*
X127596170Y-57148079D01*
X127596165Y-57148073D01*
X127582005Y-57133913D01*
X127569370Y-57119120D01*
X127557593Y-57102912D01*
X127521693Y-57073213D01*
X127517381Y-57069290D01*
X127001272Y-56553181D01*
X126967787Y-56491858D01*
X126972771Y-56422166D01*
X127014643Y-56366233D01*
X127080107Y-56341816D01*
X127088953Y-56341500D01*
X127534131Y-56341500D01*
X127571291Y-56336607D01*
X127645615Y-56326823D01*
X127784331Y-56269365D01*
X127784332Y-56269365D01*
X127784332Y-56269364D01*
X127784336Y-56269363D01*
X127903457Y-56177957D01*
X127994863Y-56058836D01*
X128052323Y-55920115D01*
X128067000Y-55808630D01*
X128067000Y-54943370D01*
X128052323Y-54831885D01*
X128013435Y-54738000D01*
X127994865Y-54693168D01*
X127994865Y-54693167D01*
X127981493Y-54675740D01*
X127959438Y-54646998D01*
X132446000Y-54646998D01*
X132461409Y-54764047D01*
X132461411Y-54764055D01*
X132521743Y-54909710D01*
X132564610Y-54965575D01*
X132617716Y-55034784D01*
X132696851Y-55095506D01*
X132742789Y-55130756D01*
X132742790Y-55130756D01*
X132742791Y-55130757D01*
X132888445Y-55191089D01*
X133005503Y-55206500D01*
X134197496Y-55206499D01*
X134197498Y-55206499D01*
X134314547Y-55191090D01*
X134314546Y-55191090D01*
X134314555Y-55191089D01*
X134460209Y-55130757D01*
X134585284Y-55034784D01*
X134681257Y-54909709D01*
X134741589Y-54764055D01*
X134757000Y-54646997D01*
X134756999Y-51525004D01*
X134756009Y-51517486D01*
X134741590Y-51407952D01*
X134741589Y-51407951D01*
X134741589Y-51407945D01*
X134681257Y-51262291D01*
X134681256Y-51262290D01*
X134681256Y-51262289D01*
X134634227Y-51201000D01*
X134585284Y-51137216D01*
X134522746Y-51089229D01*
X134460210Y-51041243D01*
X134354346Y-50997393D01*
X134314555Y-50980911D01*
X134197497Y-50965500D01*
X133005501Y-50965500D01*
X132888452Y-50980909D01*
X132888444Y-50980911D01*
X132742789Y-51041243D01*
X132617716Y-51137216D01*
X132521743Y-51262289D01*
X132461411Y-51407944D01*
X132461411Y-51407945D01*
X132446000Y-51524995D01*
X132446000Y-54646998D01*
X127959438Y-54646998D01*
X127903457Y-54574043D01*
X127784336Y-54482637D01*
X127784333Y-54482636D01*
X127784331Y-54482634D01*
X127645618Y-54425178D01*
X127645613Y-54425176D01*
X127534131Y-54410500D01*
X127534130Y-54410500D01*
X126288870Y-54410500D01*
X126288869Y-54410500D01*
X126177386Y-54425176D01*
X126177381Y-54425178D01*
X126038668Y-54482634D01*
X126038667Y-54482634D01*
X125919543Y-54574043D01*
X125828134Y-54693167D01*
X125828134Y-54693168D01*
X125770678Y-54831881D01*
X125770676Y-54831886D01*
X125756000Y-54943369D01*
X125756000Y-55595547D01*
X125736315Y-55662586D01*
X125719681Y-55683228D01*
X125702728Y-55700181D01*
X125641405Y-55733666D01*
X125615047Y-55736500D01*
X125164648Y-55736500D01*
X125097609Y-55716815D01*
X125051854Y-55664011D01*
X125041910Y-55594853D01*
X125070935Y-55531297D01*
X125072498Y-55529528D01*
X125086543Y-55513929D01*
X125192533Y-55396216D01*
X125287179Y-55232284D01*
X125345674Y-55052256D01*
X125365460Y-54864000D01*
X125345674Y-54675744D01*
X125287179Y-54495716D01*
X125192533Y-54331784D01*
X125067372Y-54192779D01*
X125040445Y-54144399D01*
X125038618Y-54138110D01*
X125038615Y-54138105D01*
X125038614Y-54138102D01*
X125028419Y-54120864D01*
X125019858Y-54103389D01*
X125012486Y-54084768D01*
X125012484Y-54084765D01*
X125012483Y-54084763D01*
X124985098Y-54047071D01*
X124981890Y-54042187D01*
X124958172Y-54002082D01*
X124958163Y-54002071D01*
X124944005Y-53987913D01*
X124931370Y-53973120D01*
X124919593Y-53956912D01*
X124888324Y-53931044D01*
X124849216Y-53873145D01*
X124847620Y-53803293D01*
X124884041Y-53743667D01*
X124946917Y-53713197D01*
X124967364Y-53711500D01*
X125723443Y-53711500D01*
X125790482Y-53731185D01*
X125821482Y-53763698D01*
X125823190Y-53762388D01*
X125828135Y-53768832D01*
X125828137Y-53768836D01*
X125919543Y-53887957D01*
X126038664Y-53979363D01*
X126038667Y-53979364D01*
X126038668Y-53979365D01*
X126096627Y-54003372D01*
X126177385Y-54036823D01*
X126233127Y-54044161D01*
X126288869Y-54051500D01*
X126288870Y-54051500D01*
X127534131Y-54051500D01*
X127571291Y-54046607D01*
X127645615Y-54036823D01*
X127784331Y-53979365D01*
X127784332Y-53979365D01*
X127784332Y-53979364D01*
X127784336Y-53979363D01*
X127903457Y-53887957D01*
X127994863Y-53768836D01*
X128052323Y-53630115D01*
X128067000Y-53518630D01*
X128067000Y-52653370D01*
X128064509Y-52634452D01*
X128059544Y-52596733D01*
X128052323Y-52541885D01*
X128010459Y-52440815D01*
X127994865Y-52403168D01*
X127994865Y-52403167D01*
X127993660Y-52401596D01*
X127903457Y-52284043D01*
X127784336Y-52192637D01*
X127784333Y-52192636D01*
X127784331Y-52192634D01*
X127645618Y-52135178D01*
X127645613Y-52135176D01*
X127534131Y-52120500D01*
X127534130Y-52120500D01*
X126288870Y-52120500D01*
X126288869Y-52120500D01*
X126177386Y-52135176D01*
X126177381Y-52135178D01*
X126038668Y-52192634D01*
X126038667Y-52192634D01*
X125934377Y-52272660D01*
X125919543Y-52284043D01*
X125828137Y-52403164D01*
X125828136Y-52403166D01*
X125823190Y-52409612D01*
X125820964Y-52407904D01*
X125780270Y-52446712D01*
X125723443Y-52460500D01*
X124072504Y-52460500D01*
X124005465Y-52440815D01*
X123966965Y-52401596D01*
X123961337Y-52392472D01*
X123955468Y-52382956D01*
X123835544Y-52263032D01*
X123828863Y-52258911D01*
X123825399Y-52256774D01*
X123778677Y-52204825D01*
X123766500Y-52151238D01*
X123766500Y-51046000D01*
X125756501Y-51046000D01*
X125756501Y-51228592D01*
X125771163Y-51339976D01*
X125771165Y-51339985D01*
X125828573Y-51478579D01*
X125919900Y-51597599D01*
X126038920Y-51688926D01*
X126177514Y-51746334D01*
X126177516Y-51746335D01*
X126288908Y-51760999D01*
X126661499Y-51760999D01*
X126661500Y-51760998D01*
X126661500Y-51046000D01*
X127161500Y-51046000D01*
X127161500Y-51760999D01*
X127534092Y-51760999D01*
X127645476Y-51746336D01*
X127645485Y-51746334D01*
X127784079Y-51688926D01*
X127903099Y-51597599D01*
X127994426Y-51478579D01*
X128051834Y-51339985D01*
X128051835Y-51339983D01*
X128066500Y-51228591D01*
X128066500Y-51046000D01*
X127161500Y-51046000D01*
X126661500Y-51046000D01*
X125756501Y-51046000D01*
X123766500Y-51046000D01*
X123766500Y-49675638D01*
X123786185Y-49608599D01*
X123825401Y-49570100D01*
X123934656Y-49502712D01*
X124058712Y-49378656D01*
X124150814Y-49229334D01*
X124205999Y-49062797D01*
X124216500Y-48960009D01*
X124216499Y-48120452D01*
X124236183Y-48053414D01*
X124252818Y-48032772D01*
X124633772Y-47651819D01*
X124695095Y-47618334D01*
X124721453Y-47615500D01*
X128304983Y-47615500D01*
X128372022Y-47635185D01*
X128417777Y-47687989D01*
X128422689Y-47700495D01*
X128442186Y-47759333D01*
X128442187Y-47759336D01*
X128477069Y-47815888D01*
X128533178Y-47906857D01*
X128534289Y-47908657D01*
X128556451Y-47930819D01*
X128589936Y-47992142D01*
X128584952Y-48061834D01*
X128543080Y-48117767D01*
X128477616Y-48142184D01*
X128468770Y-48142500D01*
X127703748Y-48142500D01*
X127636709Y-48122815D01*
X127611600Y-48101474D01*
X127605873Y-48095114D01*
X127605869Y-48095110D01*
X127452734Y-47983851D01*
X127452729Y-47983848D01*
X127279807Y-47906857D01*
X127279802Y-47906855D01*
X127134001Y-47875865D01*
X127094646Y-47867500D01*
X126905354Y-47867500D01*
X126872897Y-47874398D01*
X126720197Y-47906855D01*
X126720192Y-47906857D01*
X126547270Y-47983848D01*
X126547265Y-47983851D01*
X126394129Y-48095111D01*
X126267466Y-48235785D01*
X126172821Y-48399715D01*
X126172818Y-48399722D01*
X126114327Y-48579740D01*
X126114326Y-48579744D01*
X126094540Y-48768000D01*
X126114326Y-48956256D01*
X126114327Y-48956259D01*
X126172818Y-49136277D01*
X126172821Y-49136284D01*
X126267467Y-49300216D01*
X126381217Y-49426548D01*
X126394129Y-49440888D01*
X126547265Y-49552148D01*
X126547266Y-49552148D01*
X126547270Y-49552151D01*
X126640637Y-49593721D01*
X126693874Y-49638971D01*
X126714195Y-49705820D01*
X126695150Y-49773044D01*
X126642783Y-49819299D01*
X126590201Y-49831000D01*
X126288907Y-49831000D01*
X126177523Y-49845663D01*
X126177514Y-49845665D01*
X126038920Y-49903073D01*
X125919900Y-49994400D01*
X125828573Y-50113420D01*
X125771165Y-50252014D01*
X125771164Y-50252016D01*
X125756500Y-50363408D01*
X125756500Y-50546000D01*
X128066499Y-50546000D01*
X128066499Y-50363407D01*
X128051836Y-50252023D01*
X128051834Y-50252014D01*
X127994426Y-50113420D01*
X127903099Y-49994400D01*
X127784079Y-49903073D01*
X127645485Y-49845665D01*
X127645483Y-49845664D01*
X127534092Y-49831000D01*
X127409799Y-49831000D01*
X127342760Y-49811315D01*
X127297005Y-49758511D01*
X127287061Y-49689353D01*
X127316086Y-49625797D01*
X127359363Y-49593721D01*
X127452730Y-49552151D01*
X127605871Y-49440888D01*
X127609848Y-49436471D01*
X127611600Y-49434526D01*
X127671087Y-49397879D01*
X127703748Y-49393500D01*
X129353757Y-49393500D01*
X129369377Y-49395224D01*
X129369404Y-49394939D01*
X129377160Y-49395671D01*
X129377167Y-49395673D01*
X129446314Y-49393500D01*
X129475850Y-49393500D01*
X129482728Y-49392630D01*
X129488541Y-49392172D01*
X129535127Y-49390709D01*
X129554369Y-49385117D01*
X129573412Y-49381174D01*
X129593292Y-49378664D01*
X129636622Y-49361507D01*
X129642146Y-49359617D01*
X129645896Y-49358527D01*
X129686890Y-49346618D01*
X129704129Y-49336422D01*
X129721603Y-49327862D01*
X129740227Y-49320488D01*
X129740227Y-49320487D01*
X129740232Y-49320486D01*
X129777949Y-49293082D01*
X129782805Y-49289892D01*
X129822920Y-49266170D01*
X129837089Y-49251999D01*
X129851879Y-49239368D01*
X129868087Y-49227594D01*
X129897799Y-49191676D01*
X129901712Y-49187376D01*
X130862272Y-48226816D01*
X130923593Y-48193333D01*
X130949942Y-48190499D01*
X131527008Y-48190499D01*
X131527016Y-48190498D01*
X131527019Y-48190498D01*
X131583302Y-48184748D01*
X131629797Y-48179999D01*
X131796334Y-48124814D01*
X131945656Y-48032712D01*
X132069712Y-47908656D01*
X132161814Y-47759334D01*
X132216999Y-47592797D01*
X132227500Y-47490009D01*
X132227499Y-46736000D01*
X141478000Y-46736000D01*
X141478000Y-78616000D01*
G37*
%TD.AperFunction*%
%TA.AperFunction,Conductor*%
G36*
X125313006Y-60704750D02*
G01*
X125371054Y-60743636D01*
X125398864Y-60807733D01*
X125391068Y-60862138D01*
X125392731Y-60862622D01*
X125390554Y-60870112D01*
X125383264Y-60916134D01*
X125382080Y-60921853D01*
X125370494Y-60966979D01*
X125370493Y-60966989D01*
X125370493Y-60987023D01*
X125368966Y-61006420D01*
X125368242Y-61010990D01*
X125365833Y-61026201D01*
X125365833Y-61026202D01*
X125370218Y-61072590D01*
X125370493Y-61078428D01*
X125370493Y-66363500D01*
X125350808Y-66430539D01*
X125298004Y-66476294D01*
X125246493Y-66487500D01*
X123826129Y-66487500D01*
X123826123Y-66487501D01*
X123766516Y-66493908D01*
X123631671Y-66544202D01*
X123631664Y-66544206D01*
X123516455Y-66630452D01*
X123516452Y-66630455D01*
X123430206Y-66745664D01*
X123430202Y-66745671D01*
X123379908Y-66880517D01*
X123378330Y-66895199D01*
X123373501Y-66940123D01*
X123373500Y-66940135D01*
X123373500Y-68035870D01*
X123373501Y-68035876D01*
X123379908Y-68095483D01*
X123430202Y-68230328D01*
X123430206Y-68230335D01*
X123516452Y-68345544D01*
X123516455Y-68345547D01*
X123631664Y-68431793D01*
X123631671Y-68431797D01*
X123766517Y-68482091D01*
X123766516Y-68482091D01*
X123773444Y-68482835D01*
X123826127Y-68488500D01*
X125246493Y-68488499D01*
X125313532Y-68508184D01*
X125359287Y-68560987D01*
X125370493Y-68612499D01*
X125370493Y-68950248D01*
X125368768Y-68965865D01*
X125369054Y-68965892D01*
X125368319Y-68973658D01*
X125370493Y-69042807D01*
X125370493Y-69072336D01*
X125370494Y-69072353D01*
X125371361Y-69079224D01*
X125371819Y-69085043D01*
X125373283Y-69131617D01*
X125373284Y-69131620D01*
X125378873Y-69150860D01*
X125382817Y-69169904D01*
X125385329Y-69189785D01*
X125402483Y-69233112D01*
X125404375Y-69238640D01*
X125417374Y-69283381D01*
X125427573Y-69300627D01*
X125436129Y-69318093D01*
X125443507Y-69336725D01*
X125470891Y-69374416D01*
X125474099Y-69379300D01*
X125497820Y-69419409D01*
X125497826Y-69419417D01*
X125511983Y-69433573D01*
X125524621Y-69448369D01*
X125536398Y-69464579D01*
X125546101Y-69472606D01*
X125585207Y-69530507D01*
X125586802Y-69600358D01*
X125550379Y-69659983D01*
X125487502Y-69690451D01*
X125453802Y-69691437D01*
X125421844Y-69688000D01*
X124874000Y-69688000D01*
X124874000Y-70438000D01*
X125874000Y-70438000D01*
X125874000Y-70140172D01*
X125873999Y-70140158D01*
X125870064Y-70103562D01*
X125882468Y-70034803D01*
X125930077Y-69983664D01*
X125997776Y-69966384D01*
X126064071Y-69988447D01*
X126081032Y-70002622D01*
X127008185Y-70929776D01*
X127855340Y-71776931D01*
X127888825Y-71838254D01*
X127891017Y-71852010D01*
X127896001Y-71900798D01*
X127951185Y-72067331D01*
X127951187Y-72067336D01*
X127957175Y-72077044D01*
X128043288Y-72216656D01*
X128167344Y-72340712D01*
X128316666Y-72432814D01*
X128483203Y-72487999D01*
X128585991Y-72498500D01*
X129986008Y-72498499D01*
X130088797Y-72487999D01*
X130255334Y-72432814D01*
X130404656Y-72340712D01*
X130528712Y-72216656D01*
X130528712Y-72216655D01*
X130533819Y-72211549D01*
X130535826Y-72213556D01*
X130582240Y-72180683D01*
X130652039Y-72177535D01*
X130712459Y-72212623D01*
X130744318Y-72274806D01*
X130746500Y-72297965D01*
X130746500Y-73498846D01*
X130726815Y-73565885D01*
X130674011Y-73611640D01*
X130604853Y-73621584D01*
X130541297Y-73592559D01*
X130533638Y-73584548D01*
X130533424Y-73584763D01*
X130404345Y-73455684D01*
X130255124Y-73363643D01*
X130255119Y-73363641D01*
X130088697Y-73308494D01*
X130088690Y-73308493D01*
X129985986Y-73298000D01*
X129536000Y-73298000D01*
X129536000Y-75447999D01*
X129985972Y-75447999D01*
X129985986Y-75447998D01*
X130088697Y-75437505D01*
X130255119Y-75382358D01*
X130255124Y-75382356D01*
X130404345Y-75290315D01*
X130533424Y-75161237D01*
X130535304Y-75163117D01*
X130582230Y-75129874D01*
X130652028Y-75126720D01*
X130712452Y-75161803D01*
X130744316Y-75223983D01*
X130746500Y-75247153D01*
X130746500Y-75552703D01*
X130726815Y-75619742D01*
X130710181Y-75640384D01*
X129234384Y-77116181D01*
X129173061Y-77149666D01*
X129146703Y-77152500D01*
X104787297Y-77152500D01*
X104720258Y-77132815D01*
X104699616Y-77116181D01*
X94079819Y-66496384D01*
X94046334Y-66435061D01*
X94043500Y-66408703D01*
X94043500Y-65417296D01*
X94063185Y-65350257D01*
X94079810Y-65329624D01*
X94161183Y-65248250D01*
X94222501Y-65214769D01*
X94292193Y-65219753D01*
X94348126Y-65261623D01*
X94409455Y-65343547D01*
X94524664Y-65429793D01*
X94524671Y-65429797D01*
X94659517Y-65480091D01*
X94659516Y-65480091D01*
X94666444Y-65480835D01*
X94719127Y-65486500D01*
X96207500Y-65486499D01*
X96274539Y-65506184D01*
X96320294Y-65558987D01*
X96331500Y-65610499D01*
X96331500Y-66583870D01*
X96331501Y-66583876D01*
X96337908Y-66643483D01*
X96388202Y-66778328D01*
X96388206Y-66778335D01*
X96474452Y-66893544D01*
X96474455Y-66893547D01*
X96589664Y-66979793D01*
X96589671Y-66979797D01*
X96724517Y-67030091D01*
X96724516Y-67030091D01*
X96731444Y-67030835D01*
X96784127Y-67036500D01*
X97779872Y-67036499D01*
X97839483Y-67030091D01*
X97873667Y-67017340D01*
X97943358Y-67012357D01*
X97960327Y-67017338D01*
X97994517Y-67030091D01*
X98054127Y-67036500D01*
X99049872Y-67036499D01*
X99109483Y-67030091D01*
X99143667Y-67017340D01*
X99213358Y-67012357D01*
X99230327Y-67017338D01*
X99264517Y-67030091D01*
X99324127Y-67036500D01*
X100319872Y-67036499D01*
X100379483Y-67030091D01*
X100413667Y-67017340D01*
X100483358Y-67012357D01*
X100500327Y-67017338D01*
X100534517Y-67030091D01*
X100594127Y-67036500D01*
X101589872Y-67036499D01*
X101649483Y-67030091D01*
X101683667Y-67017340D01*
X101753358Y-67012357D01*
X101770327Y-67017338D01*
X101804517Y-67030091D01*
X101864127Y-67036500D01*
X102859872Y-67036499D01*
X102919483Y-67030091D01*
X102953667Y-67017340D01*
X103023358Y-67012357D01*
X103040327Y-67017338D01*
X103074517Y-67030091D01*
X103134127Y-67036500D01*
X103922436Y-67036499D01*
X103989475Y-67056183D01*
X104035230Y-67108987D01*
X104045174Y-67178146D01*
X104016149Y-67241702D01*
X103972874Y-67273777D01*
X103941270Y-67287849D01*
X103941268Y-67287849D01*
X103941264Y-67287852D01*
X103788129Y-67399111D01*
X103661466Y-67539785D01*
X103566821Y-67703715D01*
X103566818Y-67703722D01*
X103508327Y-67883739D01*
X103506976Y-67890098D01*
X103505741Y-67889835D01*
X103481757Y-67948104D01*
X103472714Y-67958194D01*
X102563727Y-68867181D01*
X102502404Y-68900666D01*
X102476046Y-68903500D01*
X101898998Y-68903500D01*
X101898980Y-68903501D01*
X101796203Y-68914000D01*
X101796200Y-68914001D01*
X101629668Y-68969185D01*
X101629663Y-68969187D01*
X101480342Y-69061289D01*
X101356289Y-69185342D01*
X101264187Y-69334663D01*
X101264185Y-69334668D01*
X101251014Y-69374416D01*
X101209001Y-69501203D01*
X101209001Y-69501204D01*
X101209000Y-69501204D01*
X101198500Y-69603983D01*
X101198500Y-70604001D01*
X101198501Y-70604019D01*
X101209000Y-70706796D01*
X101209001Y-70706799D01*
X101217244Y-70731673D01*
X101264186Y-70873334D01*
X101356288Y-71022656D01*
X101480344Y-71146712D01*
X101629666Y-71238814D01*
X101796203Y-71293999D01*
X101898991Y-71304500D01*
X102524008Y-71304499D01*
X102524016Y-71304498D01*
X102524019Y-71304498D01*
X102612279Y-71295482D01*
X102626797Y-71293999D01*
X102793334Y-71238814D01*
X102942656Y-71146712D01*
X103036319Y-71053049D01*
X103097642Y-71019564D01*
X103167334Y-71024548D01*
X103211681Y-71053049D01*
X103305344Y-71146712D01*
X103454666Y-71238814D01*
X103621203Y-71293999D01*
X103723991Y-71304500D01*
X104150546Y-71304499D01*
X104217585Y-71324183D01*
X104238227Y-71340818D01*
X104655197Y-71757788D01*
X104665022Y-71770051D01*
X104665243Y-71769869D01*
X104670214Y-71775878D01*
X104693782Y-71798009D01*
X104720635Y-71823226D01*
X104741529Y-71844120D01*
X104747011Y-71848373D01*
X104751443Y-71852157D01*
X104785418Y-71884062D01*
X104802976Y-71893714D01*
X104819235Y-71904395D01*
X104835064Y-71916673D01*
X104877838Y-71935182D01*
X104883056Y-71937738D01*
X104923908Y-71960197D01*
X104943316Y-71965180D01*
X104961717Y-71971480D01*
X104980104Y-71979437D01*
X105023488Y-71986308D01*
X105026119Y-71986725D01*
X105031839Y-71987909D01*
X105076981Y-71999500D01*
X105097016Y-71999500D01*
X105116414Y-72001026D01*
X105136194Y-72004159D01*
X105136195Y-72004160D01*
X105136195Y-72004159D01*
X105136196Y-72004160D01*
X105182584Y-71999775D01*
X105188422Y-71999500D01*
X108799996Y-71999500D01*
X108867035Y-72019185D01*
X108905535Y-72058404D01*
X108917031Y-72077043D01*
X109036955Y-72196967D01*
X109036959Y-72196970D01*
X109181294Y-72285998D01*
X109181297Y-72285999D01*
X109181303Y-72286003D01*
X109342292Y-72339349D01*
X109441655Y-72349500D01*
X109988344Y-72349499D01*
X109988352Y-72349498D01*
X109988355Y-72349498D01*
X110042760Y-72343940D01*
X110087708Y-72339349D01*
X110248697Y-72286003D01*
X110393044Y-72196968D01*
X110402668Y-72187343D01*
X110463987Y-72153856D01*
X110533679Y-72158835D01*
X110578034Y-72187339D01*
X110587267Y-72196572D01*
X110587271Y-72196575D01*
X110731507Y-72285542D01*
X110731518Y-72285547D01*
X110892393Y-72338855D01*
X110991683Y-72348999D01*
X111015000Y-72348998D01*
X111015000Y-71248000D01*
X111034685Y-71180961D01*
X111087489Y-71135206D01*
X111139000Y-71124000D01*
X111391000Y-71124000D01*
X111458039Y-71143685D01*
X111503794Y-71196489D01*
X111515000Y-71248000D01*
X111515000Y-72348999D01*
X111538308Y-72348999D01*
X111538322Y-72348998D01*
X111637607Y-72338855D01*
X111798481Y-72285547D01*
X111798492Y-72285542D01*
X111942728Y-72196575D01*
X111942732Y-72196572D01*
X112062572Y-72076732D01*
X112062575Y-72076728D01*
X112151542Y-71932492D01*
X112151547Y-71932481D01*
X112204855Y-71771606D01*
X112214999Y-71672321D01*
X112214999Y-71559743D01*
X112234683Y-71492703D01*
X112287487Y-71446948D01*
X112356645Y-71437004D01*
X112369833Y-71439637D01*
X112380981Y-71442500D01*
X112401016Y-71442500D01*
X112420414Y-71444026D01*
X112440194Y-71447159D01*
X112440195Y-71447160D01*
X112440195Y-71447159D01*
X112440196Y-71447160D01*
X112486584Y-71442775D01*
X112492422Y-71442500D01*
X114408362Y-71442500D01*
X114475401Y-71462185D01*
X114513899Y-71501401D01*
X114581288Y-71610656D01*
X114705344Y-71734712D01*
X114854666Y-71826814D01*
X115021203Y-71881999D01*
X115123991Y-71892500D01*
X115963547Y-71892499D01*
X116030586Y-71912183D01*
X116051228Y-71928818D01*
X116115181Y-71992771D01*
X116148666Y-72054094D01*
X116151500Y-72080452D01*
X116151500Y-73530480D01*
X116131815Y-73597519D01*
X116115181Y-73618161D01*
X116021531Y-73711810D01*
X116021530Y-73711811D01*
X115933522Y-73857393D01*
X115882913Y-74019807D01*
X115876500Y-74090386D01*
X115876500Y-74753613D01*
X115882913Y-74824192D01*
X115882913Y-74824194D01*
X115882914Y-74824196D01*
X115891172Y-74850697D01*
X115933522Y-74986606D01*
X116021530Y-75132188D01*
X116141811Y-75252469D01*
X116141813Y-75252470D01*
X116141815Y-75252472D01*
X116287394Y-75340478D01*
X116449804Y-75391086D01*
X116520384Y-75397500D01*
X116520387Y-75397500D01*
X117033613Y-75397500D01*
X117033616Y-75397500D01*
X117104196Y-75391086D01*
X117266606Y-75340478D01*
X117412185Y-75252472D01*
X117450657Y-75214000D01*
X117514319Y-75150339D01*
X117575642Y-75116854D01*
X117645334Y-75121838D01*
X117689681Y-75150339D01*
X117791811Y-75252469D01*
X117791813Y-75252470D01*
X117791815Y-75252472D01*
X117937394Y-75340478D01*
X118099804Y-75391086D01*
X118170384Y-75397500D01*
X118170387Y-75397500D01*
X118683613Y-75397500D01*
X118683616Y-75397500D01*
X118754196Y-75391086D01*
X118916606Y-75340478D01*
X119062185Y-75252472D01*
X119182472Y-75132185D01*
X119197486Y-75107349D01*
X119249014Y-75060162D01*
X119303602Y-75047500D01*
X121497235Y-75047500D01*
X121564274Y-75067185D01*
X121602772Y-75106401D01*
X121615719Y-75127391D01*
X121615720Y-75127392D01*
X121734608Y-75246280D01*
X121734612Y-75246283D01*
X121877704Y-75334544D01*
X121877707Y-75334545D01*
X121877713Y-75334549D01*
X122037315Y-75387436D01*
X122135826Y-75397500D01*
X122135831Y-75397500D01*
X122669169Y-75397500D01*
X122669174Y-75397500D01*
X122767685Y-75387436D01*
X122927287Y-75334549D01*
X123070391Y-75246281D01*
X123102672Y-75214000D01*
X123163995Y-75180515D01*
X123233687Y-75185499D01*
X123278034Y-75214000D01*
X123309919Y-75245885D01*
X123452922Y-75334091D01*
X123452927Y-75334093D01*
X123612416Y-75386942D01*
X123710856Y-75396999D01*
X123727500Y-75396998D01*
X123727500Y-74672000D01*
X124227500Y-74672000D01*
X124227500Y-75396999D01*
X124244136Y-75396999D01*
X124244152Y-75396998D01*
X124342583Y-75386943D01*
X124502072Y-75334093D01*
X124502077Y-75334091D01*
X124645080Y-75245885D01*
X124763885Y-75127080D01*
X124852091Y-74984077D01*
X124852093Y-74984072D01*
X124904942Y-74824583D01*
X124914999Y-74726150D01*
X124915000Y-74726137D01*
X124915000Y-74672000D01*
X124227500Y-74672000D01*
X123727500Y-74672000D01*
X123727500Y-74623000D01*
X127886001Y-74623000D01*
X127886001Y-74747986D01*
X127896494Y-74850697D01*
X127951641Y-75017119D01*
X127951643Y-75017124D01*
X128043684Y-75166345D01*
X128167654Y-75290315D01*
X128316875Y-75382356D01*
X128316880Y-75382358D01*
X128483302Y-75437505D01*
X128483309Y-75437506D01*
X128586019Y-75447999D01*
X129035999Y-75447999D01*
X129036000Y-75447998D01*
X129036000Y-74623000D01*
X127886001Y-74623000D01*
X123727500Y-74623000D01*
X123727500Y-73447000D01*
X124227500Y-73447000D01*
X124227500Y-74172000D01*
X124914999Y-74172000D01*
X124914999Y-74123000D01*
X127886000Y-74123000D01*
X129036000Y-74123000D01*
X129036000Y-73298000D01*
X128586028Y-73298000D01*
X128586012Y-73298001D01*
X128483302Y-73308494D01*
X128316880Y-73363641D01*
X128316875Y-73363643D01*
X128167654Y-73455684D01*
X128043684Y-73579654D01*
X127951643Y-73728875D01*
X127951641Y-73728880D01*
X127896494Y-73895302D01*
X127896493Y-73895309D01*
X127886000Y-73998013D01*
X127886000Y-74123000D01*
X124914999Y-74123000D01*
X124914999Y-74117864D01*
X124914998Y-74117847D01*
X124904943Y-74019416D01*
X124852093Y-73859927D01*
X124852091Y-73859922D01*
X124763885Y-73716919D01*
X124645080Y-73598114D01*
X124502077Y-73509908D01*
X124502072Y-73509906D01*
X124342583Y-73457057D01*
X124244150Y-73447000D01*
X124227500Y-73447000D01*
X123727500Y-73447000D01*
X123727500Y-73446999D01*
X123710856Y-73447000D01*
X123612415Y-73457057D01*
X123452927Y-73509906D01*
X123452922Y-73509908D01*
X123309919Y-73598114D01*
X123278033Y-73630000D01*
X123216709Y-73663485D01*
X123147018Y-73658499D01*
X123102673Y-73630000D01*
X123070392Y-73597719D01*
X123070387Y-73597716D01*
X122927295Y-73509455D01*
X122927289Y-73509452D01*
X122927287Y-73509451D01*
X122767685Y-73456564D01*
X122767683Y-73456563D01*
X122669181Y-73446500D01*
X122669174Y-73446500D01*
X122135826Y-73446500D01*
X122135818Y-73446500D01*
X122037316Y-73456563D01*
X122037315Y-73456564D01*
X121958219Y-73482773D01*
X121877715Y-73509450D01*
X121877704Y-73509455D01*
X121734612Y-73597716D01*
X121734608Y-73597719D01*
X121615720Y-73716607D01*
X121615719Y-73716609D01*
X121602772Y-73737598D01*
X121550826Y-73784321D01*
X121497235Y-73796500D01*
X119303602Y-73796500D01*
X119236563Y-73776815D01*
X119197486Y-73736651D01*
X119182471Y-73711814D01*
X119182468Y-73711810D01*
X119062188Y-73591530D01*
X119052499Y-73585673D01*
X118916606Y-73503522D01*
X118754196Y-73452914D01*
X118754194Y-73452913D01*
X118754192Y-73452913D01*
X118704778Y-73448423D01*
X118683616Y-73446500D01*
X118170384Y-73446500D01*
X118151145Y-73448248D01*
X118099807Y-73452913D01*
X117937393Y-73503522D01*
X117791811Y-73591530D01*
X117791810Y-73591531D01*
X117689681Y-73693661D01*
X117628358Y-73727146D01*
X117558666Y-73722162D01*
X117514319Y-73693661D01*
X117438819Y-73618161D01*
X117405334Y-73556838D01*
X117402500Y-73530480D01*
X117402500Y-71852742D01*
X117404224Y-71837122D01*
X117403939Y-71837095D01*
X117404673Y-71829333D01*
X117402500Y-71760172D01*
X117402500Y-71730656D01*
X117402500Y-71730650D01*
X117401631Y-71723779D01*
X117401173Y-71717952D01*
X117399710Y-71671373D01*
X117394119Y-71652130D01*
X117390173Y-71633078D01*
X117387664Y-71613208D01*
X117370504Y-71569867D01*
X117368624Y-71564379D01*
X117355618Y-71519610D01*
X117345422Y-71502370D01*
X117336861Y-71484894D01*
X117329487Y-71466270D01*
X117329486Y-71466268D01*
X117302079Y-71428545D01*
X117298888Y-71423686D01*
X117298149Y-71422437D01*
X117275170Y-71383580D01*
X117275168Y-71383578D01*
X117275165Y-71383574D01*
X117261006Y-71369415D01*
X117248371Y-71354622D01*
X117240736Y-71344114D01*
X117217254Y-71278309D01*
X117217693Y-71258630D01*
X117220019Y-71235870D01*
X118473500Y-71235870D01*
X118473501Y-71235876D01*
X118479908Y-71295483D01*
X118530202Y-71430328D01*
X118530206Y-71430335D01*
X118616452Y-71545544D01*
X118616455Y-71545547D01*
X118731664Y-71631793D01*
X118731671Y-71631797D01*
X118866517Y-71682091D01*
X118866516Y-71682091D01*
X118873444Y-71682835D01*
X118926127Y-71688500D01*
X120521872Y-71688499D01*
X120581483Y-71682091D01*
X120716331Y-71631796D01*
X120831546Y-71545546D01*
X120917796Y-71430331D01*
X120968091Y-71295483D01*
X120974500Y-71235873D01*
X120974500Y-70938000D01*
X123374000Y-70938000D01*
X123374000Y-71235844D01*
X123380401Y-71295372D01*
X123380403Y-71295379D01*
X123430645Y-71430086D01*
X123430649Y-71430093D01*
X123516809Y-71545187D01*
X123516812Y-71545190D01*
X123631906Y-71631350D01*
X123631913Y-71631354D01*
X123766620Y-71681596D01*
X123766627Y-71681598D01*
X123826155Y-71687999D01*
X123826172Y-71688000D01*
X124374000Y-71688000D01*
X124374000Y-70938000D01*
X124874000Y-70938000D01*
X124874000Y-71688000D01*
X125421828Y-71688000D01*
X125421844Y-71687999D01*
X125481372Y-71681598D01*
X125481379Y-71681596D01*
X125616086Y-71631354D01*
X125616093Y-71631350D01*
X125731187Y-71545190D01*
X125731190Y-71545187D01*
X125817350Y-71430093D01*
X125817354Y-71430086D01*
X125867596Y-71295379D01*
X125867598Y-71295372D01*
X125873999Y-71235844D01*
X125874000Y-71235827D01*
X125874000Y-70938000D01*
X124874000Y-70938000D01*
X124374000Y-70938000D01*
X123374000Y-70938000D01*
X120974500Y-70938000D01*
X120974499Y-70438000D01*
X123374000Y-70438000D01*
X124374000Y-70438000D01*
X124374000Y-69688000D01*
X123826155Y-69688000D01*
X123766627Y-69694401D01*
X123766620Y-69694403D01*
X123631913Y-69744645D01*
X123631906Y-69744649D01*
X123516812Y-69830809D01*
X123516809Y-69830812D01*
X123430649Y-69945906D01*
X123430645Y-69945913D01*
X123380403Y-70080620D01*
X123380401Y-70080627D01*
X123374000Y-70140155D01*
X123374000Y-70438000D01*
X120974499Y-70438000D01*
X120974499Y-70140128D01*
X120968091Y-70080517D01*
X120967937Y-70080105D01*
X120917797Y-69945671D01*
X120917793Y-69945664D01*
X120831547Y-69830455D01*
X120831544Y-69830452D01*
X120716335Y-69744206D01*
X120716328Y-69744202D01*
X120581482Y-69693908D01*
X120581483Y-69693908D01*
X120521883Y-69687501D01*
X120521881Y-69687500D01*
X120521873Y-69687500D01*
X120521864Y-69687500D01*
X118926129Y-69687500D01*
X118926123Y-69687501D01*
X118866516Y-69693908D01*
X118731671Y-69744202D01*
X118731664Y-69744206D01*
X118616455Y-69830452D01*
X118616452Y-69830455D01*
X118530206Y-69945664D01*
X118530202Y-69945671D01*
X118479908Y-70080517D01*
X118473501Y-70140116D01*
X118473501Y-70140123D01*
X118473500Y-70140135D01*
X118473500Y-71235870D01*
X117220019Y-71235870D01*
X117224500Y-71192009D01*
X117224499Y-70441992D01*
X117217427Y-70372764D01*
X117230196Y-70304074D01*
X117253101Y-70272487D01*
X119000771Y-68524818D01*
X119062094Y-68491333D01*
X119088452Y-68488499D01*
X120521871Y-68488499D01*
X120521872Y-68488499D01*
X120581483Y-68482091D01*
X120716331Y-68431796D01*
X120831546Y-68345546D01*
X120917796Y-68230331D01*
X120968091Y-68095483D01*
X120974500Y-68035873D01*
X120974499Y-66940128D01*
X120968091Y-66880517D01*
X120960391Y-66859873D01*
X120917797Y-66745671D01*
X120917793Y-66745664D01*
X120831547Y-66630455D01*
X120831544Y-66630452D01*
X120716335Y-66544206D01*
X120716328Y-66544202D01*
X120581482Y-66493908D01*
X120581483Y-66493908D01*
X120521883Y-66487501D01*
X120521881Y-66487500D01*
X120521873Y-66487500D01*
X120521865Y-66487500D01*
X120473500Y-66487500D01*
X120406461Y-66467815D01*
X120360706Y-66415011D01*
X120349500Y-66363500D01*
X120349500Y-65244452D01*
X120369185Y-65177413D01*
X120385819Y-65156771D01*
X124407772Y-61134819D01*
X124469095Y-61101334D01*
X124495453Y-61098500D01*
X124554644Y-61098500D01*
X124554646Y-61098500D01*
X124739803Y-61059144D01*
X124912730Y-60982151D01*
X125065871Y-60870888D01*
X125183662Y-60740067D01*
X125243149Y-60703419D01*
X125313006Y-60704750D01*
G37*
%TD.AperFunction*%
%TA.AperFunction,Conductor*%
G36*
X128395258Y-66676689D02*
G01*
X128451192Y-66718561D01*
X128475609Y-66784025D01*
X128460757Y-66852298D01*
X128451196Y-66867176D01*
X128450650Y-66867905D01*
X128450645Y-66867913D01*
X128400403Y-67002620D01*
X128400401Y-67002627D01*
X128394000Y-67062155D01*
X128394000Y-67110000D01*
X128993402Y-67110000D01*
X129060441Y-67129685D01*
X129081083Y-67146319D01*
X129297681Y-67362917D01*
X129331166Y-67424240D01*
X129334000Y-67450598D01*
X129334000Y-68010000D01*
X129421828Y-68010000D01*
X129421844Y-68009999D01*
X129481372Y-68003598D01*
X129481379Y-68003596D01*
X129616086Y-67953354D01*
X129616089Y-67953352D01*
X129719271Y-67876110D01*
X129784735Y-67851692D01*
X129853008Y-67866543D01*
X129867888Y-67876105D01*
X129971076Y-67953352D01*
X129971668Y-67953795D01*
X129971671Y-67953797D01*
X130016618Y-67970561D01*
X130106517Y-68004091D01*
X130166127Y-68010500D01*
X130741872Y-68010499D01*
X130801483Y-68004091D01*
X130867195Y-67979581D01*
X130936885Y-67974597D01*
X130983409Y-67995443D01*
X131119270Y-68094151D01*
X131292192Y-68171142D01*
X131292197Y-68171144D01*
X131477354Y-68210500D01*
X131601328Y-68210500D01*
X131661067Y-68225839D01*
X131679902Y-68236194D01*
X131679904Y-68236195D01*
X131679908Y-68236197D01*
X131699312Y-68241179D01*
X131717710Y-68247478D01*
X131736105Y-68255438D01*
X131782129Y-68262726D01*
X131787832Y-68263907D01*
X131832981Y-68275500D01*
X131853016Y-68275500D01*
X131872413Y-68277026D01*
X131892196Y-68280160D01*
X131938584Y-68275775D01*
X131944422Y-68275500D01*
X132299546Y-68275500D01*
X132366585Y-68295185D01*
X132375657Y-68302495D01*
X132375855Y-68302232D01*
X132498164Y-68393793D01*
X132498171Y-68393797D01*
X132633017Y-68444091D01*
X132633016Y-68444091D01*
X132639944Y-68444835D01*
X132692627Y-68450500D01*
X133436501Y-68450499D01*
X133503539Y-68470183D01*
X133549294Y-68522987D01*
X133560500Y-68574499D01*
X133560500Y-68576000D01*
X133540815Y-68643039D01*
X133488011Y-68688794D01*
X133436500Y-68700000D01*
X132240500Y-68700000D01*
X132240500Y-68797844D01*
X132246901Y-68857372D01*
X132246903Y-68857379D01*
X132297145Y-68992086D01*
X132297149Y-68992093D01*
X132383309Y-69107187D01*
X132397974Y-69118165D01*
X132439846Y-69174098D01*
X132444831Y-69243790D01*
X132443707Y-69248514D01*
X132397558Y-69426752D01*
X132361698Y-69486717D01*
X132299111Y-69517776D01*
X132229668Y-69510067D01*
X132202030Y-69494047D01*
X132197005Y-69490191D01*
X132190904Y-69484840D01*
X131683157Y-68977093D01*
X131677803Y-68970988D01*
X131656115Y-68942722D01*
X131656112Y-68942720D01*
X131656111Y-68942718D01*
X131530670Y-68846464D01*
X131513005Y-68839147D01*
X131384591Y-68785956D01*
X131384589Y-68785955D01*
X131227830Y-68765318D01*
X131227829Y-68765318D01*
X131192499Y-68769969D01*
X131184401Y-68770500D01*
X128663297Y-68770500D01*
X128596258Y-68750815D01*
X128575616Y-68734181D01*
X127507812Y-67666377D01*
X127474327Y-67605054D01*
X127471493Y-67578696D01*
X127471493Y-67549304D01*
X127483034Y-67510000D01*
X128394000Y-67510000D01*
X128394000Y-67557844D01*
X128400401Y-67617372D01*
X128400403Y-67617379D01*
X128450645Y-67752086D01*
X128450649Y-67752093D01*
X128536809Y-67867187D01*
X128536812Y-67867190D01*
X128651906Y-67953350D01*
X128651913Y-67953354D01*
X128786620Y-68003596D01*
X128786627Y-68003598D01*
X128846155Y-68009999D01*
X128846172Y-68010000D01*
X128934000Y-68010000D01*
X128934000Y-67510000D01*
X128394000Y-67510000D01*
X127483034Y-67510000D01*
X127491178Y-67482265D01*
X127507812Y-67461623D01*
X127877818Y-67091617D01*
X128264246Y-66705188D01*
X128325567Y-66671705D01*
X128395258Y-66676689D01*
G37*
%TD.AperFunction*%
%TA.AperFunction,Conductor*%
G36*
X138640539Y-54633685D02*
G01*
X138686294Y-54686489D01*
X138697500Y-54738000D01*
X138697500Y-55838999D01*
X138704081Y-55838999D01*
X138774602Y-55832591D01*
X138774607Y-55832590D01*
X138936896Y-55782018D01*
X139082377Y-55694072D01*
X139082378Y-55694071D01*
X139116819Y-55659631D01*
X139178142Y-55626146D01*
X139247834Y-55631130D01*
X139303767Y-55673002D01*
X139328184Y-55738466D01*
X139328500Y-55747312D01*
X139328500Y-55823546D01*
X139308815Y-55890585D01*
X139292181Y-55911227D01*
X136231965Y-58971442D01*
X136170642Y-59004927D01*
X136100950Y-58999943D01*
X136065246Y-58979307D01*
X136059695Y-58974715D01*
X136055371Y-58970780D01*
X134903021Y-57818430D01*
X134869536Y-57757107D01*
X134874520Y-57687415D01*
X134903021Y-57643068D01*
X135766905Y-56779185D01*
X136670271Y-55875819D01*
X136731594Y-55842334D01*
X136757952Y-55839500D01*
X137054113Y-55839500D01*
X137054116Y-55839500D01*
X137124696Y-55833086D01*
X137287106Y-55782478D01*
X137432685Y-55694472D01*
X137535173Y-55591983D01*
X137596494Y-55558499D01*
X137666185Y-55563483D01*
X137710534Y-55591984D01*
X137812622Y-55694072D01*
X137958104Y-55782019D01*
X137958103Y-55782019D01*
X138120394Y-55832590D01*
X138120393Y-55832590D01*
X138190908Y-55838998D01*
X138190926Y-55838999D01*
X138197499Y-55838998D01*
X138197500Y-55838998D01*
X138197500Y-54738000D01*
X138217185Y-54670961D01*
X138269989Y-54625206D01*
X138321500Y-54614000D01*
X138573500Y-54614000D01*
X138640539Y-54633685D01*
G37*
%TD.AperFunction*%
%TA.AperFunction,Conductor*%
G36*
X94211258Y-49941185D02*
G01*
X94257013Y-49993989D01*
X94267507Y-50058756D01*
X94266500Y-50068127D01*
X94266500Y-50068129D01*
X94266500Y-51063870D01*
X94266501Y-51063876D01*
X94272908Y-51123481D01*
X94285659Y-51157669D01*
X94290642Y-51227361D01*
X94285659Y-51244331D01*
X94272908Y-51278518D01*
X94266501Y-51338114D01*
X94266501Y-51338123D01*
X94266500Y-51338135D01*
X94266500Y-52333870D01*
X94266501Y-52333876D01*
X94272908Y-52393481D01*
X94285659Y-52427669D01*
X94290642Y-52497361D01*
X94285659Y-52514331D01*
X94272908Y-52548518D01*
X94268733Y-52587358D01*
X94266501Y-52608123D01*
X94266500Y-52608135D01*
X94266500Y-53603870D01*
X94266501Y-53603876D01*
X94272908Y-53663481D01*
X94285659Y-53697669D01*
X94290642Y-53767361D01*
X94285659Y-53784331D01*
X94272908Y-53818518D01*
X94266506Y-53878067D01*
X94266501Y-53878123D01*
X94266500Y-53878135D01*
X94266500Y-54220547D01*
X94246815Y-54287586D01*
X94194011Y-54333341D01*
X94124853Y-54343285D01*
X94061297Y-54314260D01*
X94054819Y-54308228D01*
X92956803Y-53210212D01*
X92946980Y-53197950D01*
X92946759Y-53198134D01*
X92941786Y-53192123D01*
X92891364Y-53144773D01*
X92876926Y-53130335D01*
X92870475Y-53123883D01*
X92864986Y-53119625D01*
X92860561Y-53115847D01*
X92826582Y-53083938D01*
X92826580Y-53083936D01*
X92826577Y-53083935D01*
X92809029Y-53074288D01*
X92792763Y-53063604D01*
X92776933Y-53051325D01*
X92734168Y-53032818D01*
X92728922Y-53030248D01*
X92688093Y-53007803D01*
X92688092Y-53007802D01*
X92668693Y-53002822D01*
X92650281Y-52996518D01*
X92631898Y-52988562D01*
X92631892Y-52988560D01*
X92585874Y-52981272D01*
X92580152Y-52980087D01*
X92535021Y-52968500D01*
X92535019Y-52968500D01*
X92514984Y-52968500D01*
X92495586Y-52966973D01*
X92488162Y-52965797D01*
X92475805Y-52963840D01*
X92475804Y-52963840D01*
X92429416Y-52968225D01*
X92423578Y-52968500D01*
X91470227Y-52968500D01*
X91403188Y-52948815D01*
X91368652Y-52915623D01*
X91233494Y-52722597D01*
X91066402Y-52555506D01*
X91066401Y-52555505D01*
X90898844Y-52438180D01*
X90880405Y-52425269D01*
X90836781Y-52370692D01*
X90829588Y-52301193D01*
X90861110Y-52238839D01*
X90880405Y-52222119D01*
X91066082Y-52092105D01*
X91233105Y-51925082D01*
X91368600Y-51731578D01*
X91468429Y-51517492D01*
X91468432Y-51517486D01*
X91525636Y-51304000D01*
X90628686Y-51304000D01*
X90654493Y-51263844D01*
X90695000Y-51125889D01*
X90695000Y-50982111D01*
X90654493Y-50844156D01*
X90628686Y-50804000D01*
X91525636Y-50804000D01*
X91525635Y-50803999D01*
X91468432Y-50590513D01*
X91468429Y-50590507D01*
X91368600Y-50376422D01*
X91368599Y-50376420D01*
X91233113Y-50182926D01*
X91233108Y-50182920D01*
X91183369Y-50133181D01*
X91149884Y-50071858D01*
X91154868Y-50002166D01*
X91196740Y-49946233D01*
X91262204Y-49921816D01*
X91271050Y-49921500D01*
X94144219Y-49921500D01*
X94211258Y-49941185D01*
G37*
%TD.AperFunction*%
%TD*%
%TA.AperFunction,Conductor*%
%TO.N,GND*%
G36*
X118516393Y-40405685D02*
G01*
X118562148Y-40458489D01*
X118572092Y-40527647D01*
X118543067Y-40591203D01*
X118523666Y-40609266D01*
X118454809Y-40660812D01*
X118368649Y-40775906D01*
X118368645Y-40775913D01*
X118318403Y-40910620D01*
X118318401Y-40910627D01*
X118312000Y-40970155D01*
X118312000Y-41093000D01*
X120362000Y-41093000D01*
X120362000Y-40970172D01*
X120361999Y-40970155D01*
X120355598Y-40910627D01*
X120355596Y-40910620D01*
X120305354Y-40775913D01*
X120305350Y-40775906D01*
X120219190Y-40660812D01*
X120150334Y-40609266D01*
X120108464Y-40553332D01*
X120103480Y-40483641D01*
X120136966Y-40422318D01*
X120198289Y-40388834D01*
X120224646Y-40386000D01*
X122599354Y-40386000D01*
X122666393Y-40405685D01*
X122712148Y-40458489D01*
X122722092Y-40527647D01*
X122693067Y-40591203D01*
X122673666Y-40609266D01*
X122604809Y-40660812D01*
X122518649Y-40775906D01*
X122518645Y-40775913D01*
X122468403Y-40910620D01*
X122468401Y-40910627D01*
X122462000Y-40970155D01*
X122462000Y-41093000D01*
X124512000Y-41093000D01*
X124512000Y-40970172D01*
X124511999Y-40970155D01*
X124505598Y-40910627D01*
X124505596Y-40910620D01*
X124455354Y-40775913D01*
X124455350Y-40775906D01*
X124369190Y-40660812D01*
X124300334Y-40609266D01*
X124258464Y-40553332D01*
X124253480Y-40483641D01*
X124286966Y-40422318D01*
X124348289Y-40388834D01*
X124374646Y-40386000D01*
X129117354Y-40386000D01*
X129184393Y-40405685D01*
X129230148Y-40458489D01*
X129240092Y-40527647D01*
X129211067Y-40591203D01*
X129191666Y-40609266D01*
X129122809Y-40660812D01*
X129036649Y-40775906D01*
X129036645Y-40775913D01*
X128986403Y-40910620D01*
X128986401Y-40910627D01*
X128980000Y-40970155D01*
X128980000Y-41093000D01*
X131030000Y-41093000D01*
X131030000Y-40970172D01*
X131029999Y-40970155D01*
X131023598Y-40910627D01*
X131023596Y-40910620D01*
X130973354Y-40775913D01*
X130973350Y-40775906D01*
X130887190Y-40660812D01*
X130818334Y-40609266D01*
X130776464Y-40553332D01*
X130771480Y-40483641D01*
X130804966Y-40422318D01*
X130866289Y-40388834D01*
X130892646Y-40386000D01*
X133267354Y-40386000D01*
X133334393Y-40405685D01*
X133380148Y-40458489D01*
X133390092Y-40527647D01*
X133361067Y-40591203D01*
X133341666Y-40609266D01*
X133272809Y-40660812D01*
X133186649Y-40775906D01*
X133186645Y-40775913D01*
X133136403Y-40910620D01*
X133136401Y-40910627D01*
X133130000Y-40970155D01*
X133130000Y-41093000D01*
X135180000Y-41093000D01*
X135180000Y-40970172D01*
X135179999Y-40970155D01*
X135173598Y-40910627D01*
X135173596Y-40910620D01*
X135123354Y-40775913D01*
X135123350Y-40775906D01*
X135037190Y-40660812D01*
X134968334Y-40609266D01*
X134926464Y-40553332D01*
X134921480Y-40483641D01*
X134954966Y-40422318D01*
X135016289Y-40388834D01*
X135042646Y-40386000D01*
X141354000Y-40386000D01*
X141421039Y-40405685D01*
X141466794Y-40458489D01*
X141478000Y-40510000D01*
X141478000Y-46736000D01*
X132227499Y-46736000D01*
X132227499Y-46489992D01*
X132216999Y-46387203D01*
X132161814Y-46220666D01*
X132069712Y-46071344D01*
X131945656Y-45947288D01*
X131945655Y-45947287D01*
X131898902Y-45918449D01*
X131852178Y-45866500D01*
X131840000Y-45812911D01*
X131840000Y-44785237D01*
X131841724Y-44769623D01*
X131841438Y-44769596D01*
X131842172Y-44761833D01*
X131840000Y-44692703D01*
X131840000Y-44663151D01*
X131840000Y-44663150D01*
X131839129Y-44656259D01*
X131838672Y-44650445D01*
X131838252Y-44637068D01*
X131837209Y-44603873D01*
X131831621Y-44584639D01*
X131827674Y-44565581D01*
X131825164Y-44545708D01*
X131816029Y-44522636D01*
X131808007Y-44502375D01*
X131806114Y-44496846D01*
X131793118Y-44452114D01*
X131793117Y-44452110D01*
X131782920Y-44434868D01*
X131774363Y-44417402D01*
X131766986Y-44398768D01*
X131739583Y-44361050D01*
X131736400Y-44356205D01*
X131712670Y-44316079D01*
X131712669Y-44316078D01*
X131708697Y-44309361D01*
X131710532Y-44308275D01*
X131689013Y-44253457D01*
X131702697Y-44184940D01*
X131751252Y-44134698D01*
X131812528Y-44118500D01*
X133167680Y-44118500D01*
X133234719Y-44138185D01*
X133266948Y-44168191D01*
X133272454Y-44175546D01*
X133272457Y-44175548D01*
X133387664Y-44261793D01*
X133387671Y-44261797D01*
X133522517Y-44312091D01*
X133522516Y-44312091D01*
X133529444Y-44312835D01*
X133582127Y-44318500D01*
X134727872Y-44318499D01*
X134787483Y-44312091D01*
X134922331Y-44261796D01*
X135037546Y-44175546D01*
X135043052Y-44168191D01*
X135098985Y-44126319D01*
X135142320Y-44118500D01*
X136787126Y-44118500D01*
X136854165Y-44138185D01*
X136874807Y-44154819D01*
X136964955Y-44244967D01*
X136964959Y-44244970D01*
X137109294Y-44333998D01*
X137109297Y-44333999D01*
X137109303Y-44334003D01*
X137270292Y-44387349D01*
X137369655Y-44397500D01*
X137966344Y-44397499D01*
X137966352Y-44397498D01*
X137966355Y-44397498D01*
X138020760Y-44391940D01*
X138065708Y-44387349D01*
X138226697Y-44334003D01*
X138371044Y-44244968D01*
X138490968Y-44125044D01*
X138580003Y-43980697D01*
X138633349Y-43819708D01*
X138643500Y-43720345D01*
X138643499Y-43173656D01*
X138633349Y-43074292D01*
X138580003Y-42913303D01*
X138579999Y-42913297D01*
X138579998Y-42913294D01*
X138490970Y-42768959D01*
X138490967Y-42768955D01*
X138481339Y-42759327D01*
X138447854Y-42698004D01*
X138452838Y-42628312D01*
X138481345Y-42583959D01*
X138490573Y-42574731D01*
X138579542Y-42430492D01*
X138579547Y-42430481D01*
X138632855Y-42269606D01*
X138642999Y-42170322D01*
X138643000Y-42170309D01*
X138643000Y-42147000D01*
X136693001Y-42147000D01*
X136693001Y-42170322D01*
X136703144Y-42269607D01*
X136756452Y-42430481D01*
X136756457Y-42430492D01*
X136845424Y-42574728D01*
X136845427Y-42574732D01*
X136854660Y-42583965D01*
X136888145Y-42645288D01*
X136883161Y-42714980D01*
X136854663Y-42759324D01*
X136845033Y-42768953D01*
X136845031Y-42768956D01*
X136820582Y-42808596D01*
X136768634Y-42855321D01*
X136715043Y-42867500D01*
X135142320Y-42867500D01*
X135075281Y-42847815D01*
X135043052Y-42817809D01*
X135037548Y-42810457D01*
X135037546Y-42810454D01*
X135035064Y-42808596D01*
X134922335Y-42724206D01*
X134922328Y-42724202D01*
X134787482Y-42673908D01*
X134787483Y-42673908D01*
X134727883Y-42667501D01*
X134727881Y-42667500D01*
X134727873Y-42667500D01*
X134727864Y-42667500D01*
X133582129Y-42667500D01*
X133582123Y-42667501D01*
X133522516Y-42673908D01*
X133387671Y-42724202D01*
X133387664Y-42724206D01*
X133272457Y-42810451D01*
X133272451Y-42810457D01*
X133266948Y-42817809D01*
X133211015Y-42859681D01*
X133167680Y-42867500D01*
X130992320Y-42867500D01*
X130925281Y-42847815D01*
X130893052Y-42817809D01*
X130887548Y-42810457D01*
X130887546Y-42810454D01*
X130885064Y-42808596D01*
X130772335Y-42724206D01*
X130772328Y-42724202D01*
X130637482Y-42673908D01*
X130637483Y-42673908D01*
X130577883Y-42667501D01*
X130577881Y-42667500D01*
X130577873Y-42667500D01*
X130577864Y-42667500D01*
X129432129Y-42667500D01*
X129432123Y-42667501D01*
X129372516Y-42673908D01*
X129237671Y-42724202D01*
X129237664Y-42724206D01*
X129122455Y-42810452D01*
X129122452Y-42810455D01*
X129036206Y-42925664D01*
X129036202Y-42925671D01*
X128996020Y-43033407D01*
X128985909Y-43060517D01*
X128979500Y-43120127D01*
X128979500Y-43120134D01*
X128979500Y-43120135D01*
X128979500Y-43865870D01*
X128979501Y-43865876D01*
X128985908Y-43925483D01*
X129036202Y-44060328D01*
X129036206Y-44060335D01*
X129122452Y-44175544D01*
X129122455Y-44175547D01*
X129237664Y-44261793D01*
X129237671Y-44261797D01*
X129262113Y-44270913D01*
X129372517Y-44312091D01*
X129432127Y-44318500D01*
X129894547Y-44318499D01*
X129961586Y-44338183D01*
X129982228Y-44354818D01*
X130552681Y-44925271D01*
X130586166Y-44986594D01*
X130589000Y-45012952D01*
X130589000Y-45812911D01*
X130569315Y-45879950D01*
X130530098Y-45918449D01*
X130483344Y-45947287D01*
X130483343Y-45947288D01*
X130389681Y-46040951D01*
X130328358Y-46074436D01*
X130258666Y-46069452D01*
X130214319Y-46040951D01*
X130120657Y-45947289D01*
X130120656Y-45947288D01*
X129971334Y-45855186D01*
X129804797Y-45800001D01*
X129804795Y-45800000D01*
X129702010Y-45789500D01*
X129076998Y-45789500D01*
X129076980Y-45789501D01*
X128974203Y-45800000D01*
X128974200Y-45800001D01*
X128807668Y-45855185D01*
X128807663Y-45855187D01*
X128658342Y-45947289D01*
X128534289Y-46071342D01*
X128442187Y-46220663D01*
X128442186Y-46220666D01*
X128422689Y-46279505D01*
X128382916Y-46336949D01*
X128318400Y-46363772D01*
X128304983Y-46364500D01*
X124493737Y-46364500D01*
X124478120Y-46362776D01*
X124478093Y-46363062D01*
X124470331Y-46362327D01*
X124401203Y-46364500D01*
X124371650Y-46364500D01*
X124370929Y-46364590D01*
X124364757Y-46365369D01*
X124358945Y-46365826D01*
X124312373Y-46367290D01*
X124312372Y-46367290D01*
X124293129Y-46372881D01*
X124274079Y-46376825D01*
X124254211Y-46379334D01*
X124254209Y-46379335D01*
X124210884Y-46396488D01*
X124205357Y-46398380D01*
X124160610Y-46411381D01*
X124160609Y-46411382D01*
X124143367Y-46421579D01*
X124125899Y-46430137D01*
X124107269Y-46437513D01*
X124107267Y-46437514D01*
X124069576Y-46464898D01*
X124064694Y-46468105D01*
X124024579Y-46491830D01*
X124010408Y-46506000D01*
X123995623Y-46518628D01*
X123979412Y-46530407D01*
X123949709Y-46566310D01*
X123945777Y-46570631D01*
X123780408Y-46736000D01*
X117719500Y-46736000D01*
X117719500Y-45268451D01*
X117739185Y-45201412D01*
X117755815Y-45180774D01*
X118590896Y-44345692D01*
X118652217Y-44312209D01*
X118696659Y-44312608D01*
X118696804Y-44311262D01*
X118713387Y-44313044D01*
X118764127Y-44318500D01*
X119909872Y-44318499D01*
X119969483Y-44312091D01*
X120104331Y-44261796D01*
X120219546Y-44175546D01*
X120225052Y-44168191D01*
X120280985Y-44126319D01*
X120324320Y-44118500D01*
X122499680Y-44118500D01*
X122566719Y-44138185D01*
X122598948Y-44168191D01*
X122604454Y-44175546D01*
X122604457Y-44175548D01*
X122719664Y-44261793D01*
X122719671Y-44261797D01*
X122854517Y-44312091D01*
X122854516Y-44312091D01*
X122861444Y-44312835D01*
X122914127Y-44318500D01*
X124059872Y-44318499D01*
X124119483Y-44312091D01*
X124254331Y-44261796D01*
X124369546Y-44175546D01*
X124375052Y-44168191D01*
X124430985Y-44126319D01*
X124474320Y-44118500D01*
X125865126Y-44118500D01*
X125932165Y-44138185D01*
X125952807Y-44154819D01*
X126042955Y-44244967D01*
X126042959Y-44244970D01*
X126187294Y-44333998D01*
X126187297Y-44333999D01*
X126187303Y-44334003D01*
X126348292Y-44387349D01*
X126447655Y-44397500D01*
X127044344Y-44397499D01*
X127044352Y-44397498D01*
X127044355Y-44397498D01*
X127098760Y-44391940D01*
X127143708Y-44387349D01*
X127304697Y-44334003D01*
X127449044Y-44244968D01*
X127568968Y-44125044D01*
X127658003Y-43980697D01*
X127711349Y-43819708D01*
X127721500Y-43720345D01*
X127721499Y-43173656D01*
X127711349Y-43074292D01*
X127658003Y-42913303D01*
X127657999Y-42913297D01*
X127657998Y-42913294D01*
X127568970Y-42768959D01*
X127568967Y-42768955D01*
X127559339Y-42759327D01*
X127525854Y-42698004D01*
X127530838Y-42628312D01*
X127559345Y-42583959D01*
X127568573Y-42574731D01*
X127657542Y-42430492D01*
X127657547Y-42430481D01*
X127710855Y-42269606D01*
X127720999Y-42170322D01*
X127721000Y-42170309D01*
X127721000Y-42147000D01*
X125771001Y-42147000D01*
X125771001Y-42170322D01*
X125781144Y-42269607D01*
X125834452Y-42430481D01*
X125834457Y-42430492D01*
X125923424Y-42574728D01*
X125923427Y-42574732D01*
X125932660Y-42583965D01*
X125966145Y-42645288D01*
X125961161Y-42714980D01*
X125932663Y-42759324D01*
X125923033Y-42768953D01*
X125923031Y-42768956D01*
X125898582Y-42808596D01*
X125846634Y-42855321D01*
X125793043Y-42867500D01*
X124474320Y-42867500D01*
X124407281Y-42847815D01*
X124375052Y-42817809D01*
X124369548Y-42810457D01*
X124369546Y-42810454D01*
X124367064Y-42808596D01*
X124254335Y-42724206D01*
X124254328Y-42724202D01*
X124119482Y-42673908D01*
X124119483Y-42673908D01*
X124059883Y-42667501D01*
X124059881Y-42667500D01*
X124059873Y-42667500D01*
X124059864Y-42667500D01*
X122914129Y-42667500D01*
X122914123Y-42667501D01*
X122854516Y-42673908D01*
X122719671Y-42724202D01*
X122719664Y-42724206D01*
X122604457Y-42810451D01*
X122604451Y-42810457D01*
X122598948Y-42817809D01*
X122543015Y-42859681D01*
X122499680Y-42867500D01*
X120324320Y-42867500D01*
X120257281Y-42847815D01*
X120225052Y-42817809D01*
X120219548Y-42810457D01*
X120219546Y-42810454D01*
X120217064Y-42808596D01*
X120104335Y-42724206D01*
X120104328Y-42724202D01*
X119969482Y-42673908D01*
X119969483Y-42673908D01*
X119909883Y-42667501D01*
X119909881Y-42667500D01*
X119909873Y-42667500D01*
X119909864Y-42667500D01*
X118764129Y-42667500D01*
X118764123Y-42667501D01*
X118704516Y-42673908D01*
X118569671Y-42724202D01*
X118569664Y-42724206D01*
X118454455Y-42810452D01*
X118454454Y-42810453D01*
X118420997Y-42855145D01*
X118367378Y-42896125D01*
X118358883Y-42899488D01*
X118353356Y-42901381D01*
X118308609Y-42914382D01*
X118291366Y-42924579D01*
X118273905Y-42933133D01*
X118255274Y-42940510D01*
X118255262Y-42940517D01*
X118217570Y-42967902D01*
X118212687Y-42971109D01*
X118172580Y-42994829D01*
X118158414Y-43008995D01*
X118143624Y-43021627D01*
X118127414Y-43033404D01*
X118127411Y-43033407D01*
X118097710Y-43069309D01*
X118093777Y-43073631D01*
X116710208Y-44457199D01*
X116697951Y-44467020D01*
X116698134Y-44467241D01*
X116692123Y-44472213D01*
X116644772Y-44522636D01*
X116623889Y-44543519D01*
X116623877Y-44543532D01*
X116619621Y-44549017D01*
X116615837Y-44553447D01*
X116583937Y-44587418D01*
X116583936Y-44587420D01*
X116574284Y-44604976D01*
X116563610Y-44621226D01*
X116551329Y-44637061D01*
X116551324Y-44637068D01*
X116532815Y-44679838D01*
X116530245Y-44685084D01*
X116507803Y-44725906D01*
X116502822Y-44745307D01*
X116496521Y-44763710D01*
X116488562Y-44782102D01*
X116488561Y-44782105D01*
X116481271Y-44828127D01*
X116480087Y-44833846D01*
X116468501Y-44878972D01*
X116468500Y-44878982D01*
X116468500Y-44899016D01*
X116466973Y-44918413D01*
X116463840Y-44938196D01*
X116467831Y-44980415D01*
X116468225Y-44984583D01*
X116468500Y-44990421D01*
X116468500Y-46736000D01*
X114554000Y-46736000D01*
X114554000Y-41593000D01*
X118312000Y-41593000D01*
X118312000Y-41715844D01*
X118318401Y-41775372D01*
X118318403Y-41775379D01*
X118368645Y-41910086D01*
X118368649Y-41910093D01*
X118454809Y-42025187D01*
X118454812Y-42025190D01*
X118569906Y-42111350D01*
X118569913Y-42111354D01*
X118704620Y-42161596D01*
X118704627Y-42161598D01*
X118764155Y-42167999D01*
X118764172Y-42168000D01*
X119087000Y-42168000D01*
X119087000Y-41593000D01*
X119587000Y-41593000D01*
X119587000Y-42168000D01*
X119909828Y-42168000D01*
X119909844Y-42167999D01*
X119969372Y-42161598D01*
X119969379Y-42161596D01*
X120104086Y-42111354D01*
X120104093Y-42111350D01*
X120219187Y-42025190D01*
X120219190Y-42025187D01*
X120305350Y-41910093D01*
X120305354Y-41910086D01*
X120355596Y-41775379D01*
X120355598Y-41775372D01*
X120361999Y-41715844D01*
X120362000Y-41715827D01*
X120362000Y-41593000D01*
X122462000Y-41593000D01*
X122462000Y-41715844D01*
X122468401Y-41775372D01*
X122468403Y-41775379D01*
X122518645Y-41910086D01*
X122518649Y-41910093D01*
X122604809Y-42025187D01*
X122604812Y-42025190D01*
X122719906Y-42111350D01*
X122719913Y-42111354D01*
X122854620Y-42161596D01*
X122854627Y-42161598D01*
X122914155Y-42167999D01*
X122914172Y-42168000D01*
X123237000Y-42168000D01*
X123237000Y-41593000D01*
X123737000Y-41593000D01*
X123737000Y-42168000D01*
X124059828Y-42168000D01*
X124059844Y-42167999D01*
X124119372Y-42161598D01*
X124119379Y-42161596D01*
X124254086Y-42111354D01*
X124254093Y-42111350D01*
X124369187Y-42025190D01*
X124369190Y-42025187D01*
X124455350Y-41910093D01*
X124455354Y-41910086D01*
X124505596Y-41775379D01*
X124505598Y-41775372D01*
X124511999Y-41715844D01*
X124512000Y-41715827D01*
X124512000Y-41647000D01*
X125771000Y-41647000D01*
X126496000Y-41647000D01*
X126496000Y-40947000D01*
X126996000Y-40947000D01*
X126996000Y-41647000D01*
X127720999Y-41647000D01*
X127720999Y-41623692D01*
X127720998Y-41623677D01*
X127717864Y-41593000D01*
X128980000Y-41593000D01*
X128980000Y-41715844D01*
X128986401Y-41775372D01*
X128986403Y-41775379D01*
X129036645Y-41910086D01*
X129036649Y-41910093D01*
X129122809Y-42025187D01*
X129122812Y-42025190D01*
X129237906Y-42111350D01*
X129237913Y-42111354D01*
X129372620Y-42161596D01*
X129372627Y-42161598D01*
X129432155Y-42167999D01*
X129432172Y-42168000D01*
X129755000Y-42168000D01*
X129755000Y-41593000D01*
X130255000Y-41593000D01*
X130255000Y-42168000D01*
X130577828Y-42168000D01*
X130577844Y-42167999D01*
X130637372Y-42161598D01*
X130637379Y-42161596D01*
X130772086Y-42111354D01*
X130772093Y-42111350D01*
X130887187Y-42025190D01*
X130887190Y-42025187D01*
X130973350Y-41910093D01*
X130973354Y-41910086D01*
X131023596Y-41775379D01*
X131023598Y-41775372D01*
X131029999Y-41715844D01*
X131030000Y-41715827D01*
X131030000Y-41593000D01*
X133130000Y-41593000D01*
X133130000Y-41715844D01*
X133136401Y-41775372D01*
X133136403Y-41775379D01*
X133186645Y-41910086D01*
X133186649Y-41910093D01*
X133272809Y-42025187D01*
X133272812Y-42025190D01*
X133387906Y-42111350D01*
X133387913Y-42111354D01*
X133522620Y-42161596D01*
X133522627Y-42161598D01*
X133582155Y-42167999D01*
X133582172Y-42168000D01*
X133905000Y-42168000D01*
X133905000Y-41593000D01*
X134405000Y-41593000D01*
X134405000Y-42168000D01*
X134727828Y-42168000D01*
X134727844Y-42167999D01*
X134787372Y-42161598D01*
X134787379Y-42161596D01*
X134922086Y-42111354D01*
X134922093Y-42111350D01*
X135037187Y-42025190D01*
X135037190Y-42025187D01*
X135123350Y-41910093D01*
X135123354Y-41910086D01*
X135173596Y-41775379D01*
X135173598Y-41775372D01*
X135179999Y-41715844D01*
X135180000Y-41715827D01*
X135180000Y-41647000D01*
X136693000Y-41647000D01*
X137418000Y-41647000D01*
X137418000Y-40947000D01*
X137918000Y-40947000D01*
X137918000Y-41647000D01*
X138642999Y-41647000D01*
X138642999Y-41623692D01*
X138642998Y-41623677D01*
X138632855Y-41524392D01*
X138579547Y-41363518D01*
X138579542Y-41363507D01*
X138490575Y-41219271D01*
X138490572Y-41219267D01*
X138370732Y-41099427D01*
X138370728Y-41099424D01*
X138226492Y-41010457D01*
X138226481Y-41010452D01*
X138065606Y-40957144D01*
X137966322Y-40947000D01*
X137918000Y-40947000D01*
X137418000Y-40947000D01*
X137417999Y-40946999D01*
X137369693Y-40947000D01*
X137369675Y-40947001D01*
X137270392Y-40957144D01*
X137109518Y-41010452D01*
X137109507Y-41010457D01*
X136965271Y-41099424D01*
X136965267Y-41099427D01*
X136845427Y-41219267D01*
X136845424Y-41219271D01*
X136756457Y-41363507D01*
X136756452Y-41363518D01*
X136703144Y-41524393D01*
X136693000Y-41623677D01*
X136693000Y-41647000D01*
X135180000Y-41647000D01*
X135180000Y-41593000D01*
X134405000Y-41593000D01*
X133905000Y-41593000D01*
X133130000Y-41593000D01*
X131030000Y-41593000D01*
X130255000Y-41593000D01*
X129755000Y-41593000D01*
X128980000Y-41593000D01*
X127717864Y-41593000D01*
X127710855Y-41524392D01*
X127657547Y-41363518D01*
X127657542Y-41363507D01*
X127568575Y-41219271D01*
X127568572Y-41219267D01*
X127448732Y-41099427D01*
X127448728Y-41099424D01*
X127304492Y-41010457D01*
X127304481Y-41010452D01*
X127143606Y-40957144D01*
X127044322Y-40947000D01*
X126996000Y-40947000D01*
X126496000Y-40947000D01*
X126495999Y-40946999D01*
X126447693Y-40947000D01*
X126447675Y-40947001D01*
X126348392Y-40957144D01*
X126187518Y-41010452D01*
X126187507Y-41010457D01*
X126043271Y-41099424D01*
X126043267Y-41099427D01*
X125923427Y-41219267D01*
X125923424Y-41219271D01*
X125834457Y-41363507D01*
X125834452Y-41363518D01*
X125781144Y-41524393D01*
X125771000Y-41623677D01*
X125771000Y-41647000D01*
X124512000Y-41647000D01*
X124512000Y-41593000D01*
X123737000Y-41593000D01*
X123237000Y-41593000D01*
X122462000Y-41593000D01*
X120362000Y-41593000D01*
X119587000Y-41593000D01*
X119087000Y-41593000D01*
X118312000Y-41593000D01*
X114554000Y-41593000D01*
X114554000Y-40510000D01*
X114573685Y-40442961D01*
X114626489Y-40397206D01*
X114678000Y-40386000D01*
X118449354Y-40386000D01*
X118516393Y-40405685D01*
G37*
%TD.AperFunction*%
%TD*%
M02*
