%TF.GenerationSoftware,KiCad,Pcbnew,7.0.9*%
%TF.CreationDate,2024-12-08T03:54:19-04:00*%
%TF.ProjectId,Ejemplo KiCad LM,456a656d-706c-46f2-904b-69436164204c,rev?*%
%TF.SameCoordinates,Original*%
%TF.FileFunction,Legend,Top*%
%TF.FilePolarity,Positive*%
%FSLAX46Y46*%
G04 Gerber Fmt 4.6, Leading zero omitted, Abs format (unit mm)*
G04 Created by KiCad (PCBNEW 7.0.9) date 2024-12-08 03:54:19*
%MOMM*%
%LPD*%
G01*
G04 APERTURE LIST*
%ADD10C,0.127000*%
%ADD11C,0.152400*%
G04 APERTURE END LIST*
D10*
X154952095Y-103872501D02*
X154952095Y-104114406D01*
X154782761Y-103606406D02*
X154952095Y-103872501D01*
X154952095Y-103872501D02*
X155121428Y-103606406D01*
X155556857Y-104114406D02*
X155266571Y-104114406D01*
X155411714Y-104114406D02*
X155411714Y-103606406D01*
X155411714Y-103606406D02*
X155363333Y-103678977D01*
X155363333Y-103678977D02*
X155314952Y-103727358D01*
X155314952Y-103727358D02*
X155266571Y-103751549D01*
X149218952Y-107924406D02*
X149218952Y-108335644D01*
X149218952Y-108335644D02*
X149243142Y-108384025D01*
X149243142Y-108384025D02*
X149267333Y-108408216D01*
X149267333Y-108408216D02*
X149315714Y-108432406D01*
X149315714Y-108432406D02*
X149412476Y-108432406D01*
X149412476Y-108432406D02*
X149460857Y-108408216D01*
X149460857Y-108408216D02*
X149485047Y-108384025D01*
X149485047Y-108384025D02*
X149509238Y-108335644D01*
X149509238Y-108335644D02*
X149509238Y-107924406D01*
X150017237Y-108432406D02*
X149726951Y-108432406D01*
X149872094Y-108432406D02*
X149872094Y-107924406D01*
X149872094Y-107924406D02*
X149823713Y-107996977D01*
X149823713Y-107996977D02*
X149775332Y-108045358D01*
X149775332Y-108045358D02*
X149726951Y-108069549D01*
X160443333Y-103860406D02*
X160273999Y-103618501D01*
X160153047Y-103860406D02*
X160153047Y-103352406D01*
X160153047Y-103352406D02*
X160346571Y-103352406D01*
X160346571Y-103352406D02*
X160394952Y-103376596D01*
X160394952Y-103376596D02*
X160419142Y-103400787D01*
X160419142Y-103400787D02*
X160443333Y-103449168D01*
X160443333Y-103449168D02*
X160443333Y-103521739D01*
X160443333Y-103521739D02*
X160419142Y-103570120D01*
X160419142Y-103570120D02*
X160394952Y-103594311D01*
X160394952Y-103594311D02*
X160346571Y-103618501D01*
X160346571Y-103618501D02*
X160153047Y-103618501D01*
X160636856Y-103400787D02*
X160661047Y-103376596D01*
X160661047Y-103376596D02*
X160709428Y-103352406D01*
X160709428Y-103352406D02*
X160830380Y-103352406D01*
X160830380Y-103352406D02*
X160878761Y-103376596D01*
X160878761Y-103376596D02*
X160902952Y-103400787D01*
X160902952Y-103400787D02*
X160927142Y-103449168D01*
X160927142Y-103449168D02*
X160927142Y-103497549D01*
X160927142Y-103497549D02*
X160902952Y-103570120D01*
X160902952Y-103570120D02*
X160612666Y-103860406D01*
X160612666Y-103860406D02*
X160927142Y-103860406D01*
X145457333Y-104368406D02*
X145287999Y-104126501D01*
X145167047Y-104368406D02*
X145167047Y-103860406D01*
X145167047Y-103860406D02*
X145360571Y-103860406D01*
X145360571Y-103860406D02*
X145408952Y-103884596D01*
X145408952Y-103884596D02*
X145433142Y-103908787D01*
X145433142Y-103908787D02*
X145457333Y-103957168D01*
X145457333Y-103957168D02*
X145457333Y-104029739D01*
X145457333Y-104029739D02*
X145433142Y-104078120D01*
X145433142Y-104078120D02*
X145408952Y-104102311D01*
X145408952Y-104102311D02*
X145360571Y-104126501D01*
X145360571Y-104126501D02*
X145167047Y-104126501D01*
X145941142Y-104368406D02*
X145650856Y-104368406D01*
X145795999Y-104368406D02*
X145795999Y-103860406D01*
X145795999Y-103860406D02*
X145747618Y-103932977D01*
X145747618Y-103932977D02*
X145699237Y-103981358D01*
X145699237Y-103981358D02*
X145650856Y-104005549D01*
X147235333Y-98526406D02*
X146993428Y-98526406D01*
X146993428Y-98526406D02*
X146993428Y-98018406D01*
X147622380Y-98187739D02*
X147622380Y-98526406D01*
X147501428Y-97994216D02*
X147380475Y-98357073D01*
X147380475Y-98357073D02*
X147694952Y-98357073D01*
X154093333Y-101828406D02*
X153851428Y-101828406D01*
X153851428Y-101828406D02*
X153851428Y-101320406D01*
X154214285Y-101320406D02*
X154528761Y-101320406D01*
X154528761Y-101320406D02*
X154359428Y-101513930D01*
X154359428Y-101513930D02*
X154431999Y-101513930D01*
X154431999Y-101513930D02*
X154480380Y-101538120D01*
X154480380Y-101538120D02*
X154504571Y-101562311D01*
X154504571Y-101562311D02*
X154528761Y-101610692D01*
X154528761Y-101610692D02*
X154528761Y-101731644D01*
X154528761Y-101731644D02*
X154504571Y-101780025D01*
X154504571Y-101780025D02*
X154480380Y-101804216D01*
X154480380Y-101804216D02*
X154431999Y-101828406D01*
X154431999Y-101828406D02*
X154286856Y-101828406D01*
X154286856Y-101828406D02*
X154238475Y-101804216D01*
X154238475Y-101804216D02*
X154214285Y-101780025D01*
X152569333Y-101574406D02*
X152327428Y-101574406D01*
X152327428Y-101574406D02*
X152327428Y-101066406D01*
X152714475Y-101114787D02*
X152738666Y-101090596D01*
X152738666Y-101090596D02*
X152787047Y-101066406D01*
X152787047Y-101066406D02*
X152907999Y-101066406D01*
X152907999Y-101066406D02*
X152956380Y-101090596D01*
X152956380Y-101090596D02*
X152980571Y-101114787D01*
X152980571Y-101114787D02*
X153004761Y-101163168D01*
X153004761Y-101163168D02*
X153004761Y-101211549D01*
X153004761Y-101211549D02*
X152980571Y-101284120D01*
X152980571Y-101284120D02*
X152690285Y-101574406D01*
X152690285Y-101574406D02*
X153004761Y-101574406D01*
X152061333Y-99796406D02*
X151819428Y-99796406D01*
X151819428Y-99796406D02*
X151819428Y-99288406D01*
X152496761Y-99796406D02*
X152206475Y-99796406D01*
X152351618Y-99796406D02*
X152351618Y-99288406D01*
X152351618Y-99288406D02*
X152303237Y-99360977D01*
X152303237Y-99360977D02*
X152254856Y-99409358D01*
X152254856Y-99409358D02*
X152206475Y-99433549D01*
X158834666Y-110464406D02*
X158834666Y-110827263D01*
X158834666Y-110827263D02*
X158810475Y-110899835D01*
X158810475Y-110899835D02*
X158762094Y-110948216D01*
X158762094Y-110948216D02*
X158689523Y-110972406D01*
X158689523Y-110972406D02*
X158641142Y-110972406D01*
X159342666Y-110972406D02*
X159052380Y-110972406D01*
X159197523Y-110972406D02*
X159197523Y-110464406D01*
X159197523Y-110464406D02*
X159149142Y-110536977D01*
X159149142Y-110536977D02*
X159100761Y-110585358D01*
X159100761Y-110585358D02*
X159052380Y-110609549D01*
X149025428Y-98478025D02*
X149001237Y-98502216D01*
X149001237Y-98502216D02*
X148928666Y-98526406D01*
X148928666Y-98526406D02*
X148880285Y-98526406D01*
X148880285Y-98526406D02*
X148807713Y-98502216D01*
X148807713Y-98502216D02*
X148759332Y-98453835D01*
X148759332Y-98453835D02*
X148735142Y-98405454D01*
X148735142Y-98405454D02*
X148710951Y-98308692D01*
X148710951Y-98308692D02*
X148710951Y-98236120D01*
X148710951Y-98236120D02*
X148735142Y-98139358D01*
X148735142Y-98139358D02*
X148759332Y-98090977D01*
X148759332Y-98090977D02*
X148807713Y-98042596D01*
X148807713Y-98042596D02*
X148880285Y-98018406D01*
X148880285Y-98018406D02*
X148928666Y-98018406D01*
X148928666Y-98018406D02*
X149001237Y-98042596D01*
X149001237Y-98042596D02*
X149025428Y-98066787D01*
X149509237Y-98526406D02*
X149218951Y-98526406D01*
X149364094Y-98526406D02*
X149364094Y-98018406D01*
X149364094Y-98018406D02*
X149315713Y-98090977D01*
X149315713Y-98090977D02*
X149267332Y-98139358D01*
X149267332Y-98139358D02*
X149218951Y-98163549D01*
X149993047Y-98526406D02*
X149702761Y-98526406D01*
X149847904Y-98526406D02*
X149847904Y-98018406D01*
X149847904Y-98018406D02*
X149799523Y-98090977D01*
X149799523Y-98090977D02*
X149751142Y-98139358D01*
X149751142Y-98139358D02*
X149702761Y-98163549D01*
X144706025Y-100656571D02*
X144730216Y-100680762D01*
X144730216Y-100680762D02*
X144754406Y-100753333D01*
X144754406Y-100753333D02*
X144754406Y-100801714D01*
X144754406Y-100801714D02*
X144730216Y-100874286D01*
X144730216Y-100874286D02*
X144681835Y-100922667D01*
X144681835Y-100922667D02*
X144633454Y-100946857D01*
X144633454Y-100946857D02*
X144536692Y-100971048D01*
X144536692Y-100971048D02*
X144464120Y-100971048D01*
X144464120Y-100971048D02*
X144367358Y-100946857D01*
X144367358Y-100946857D02*
X144318977Y-100922667D01*
X144318977Y-100922667D02*
X144270596Y-100874286D01*
X144270596Y-100874286D02*
X144246406Y-100801714D01*
X144246406Y-100801714D02*
X144246406Y-100753333D01*
X144246406Y-100753333D02*
X144270596Y-100680762D01*
X144270596Y-100680762D02*
X144294787Y-100656571D01*
X144754406Y-100172762D02*
X144754406Y-100463048D01*
X144754406Y-100317905D02*
X144246406Y-100317905D01*
X144246406Y-100317905D02*
X144318977Y-100366286D01*
X144318977Y-100366286D02*
X144367358Y-100414667D01*
X144367358Y-100414667D02*
X144391549Y-100463048D01*
X144246406Y-99858285D02*
X144246406Y-99809904D01*
X144246406Y-99809904D02*
X144270596Y-99761523D01*
X144270596Y-99761523D02*
X144294787Y-99737333D01*
X144294787Y-99737333D02*
X144343168Y-99713142D01*
X144343168Y-99713142D02*
X144439930Y-99688952D01*
X144439930Y-99688952D02*
X144560882Y-99688952D01*
X144560882Y-99688952D02*
X144657644Y-99713142D01*
X144657644Y-99713142D02*
X144706025Y-99737333D01*
X144706025Y-99737333D02*
X144730216Y-99761523D01*
X144730216Y-99761523D02*
X144754406Y-99809904D01*
X144754406Y-99809904D02*
X144754406Y-99858285D01*
X144754406Y-99858285D02*
X144730216Y-99906666D01*
X144730216Y-99906666D02*
X144706025Y-99930857D01*
X144706025Y-99930857D02*
X144657644Y-99955047D01*
X144657644Y-99955047D02*
X144560882Y-99979238D01*
X144560882Y-99979238D02*
X144439930Y-99979238D01*
X144439930Y-99979238D02*
X144343168Y-99955047D01*
X144343168Y-99955047D02*
X144294787Y-99930857D01*
X144294787Y-99930857D02*
X144270596Y-99906666D01*
X144270596Y-99906666D02*
X144246406Y-99858285D01*
X144441333Y-101780025D02*
X144417142Y-101804216D01*
X144417142Y-101804216D02*
X144344571Y-101828406D01*
X144344571Y-101828406D02*
X144296190Y-101828406D01*
X144296190Y-101828406D02*
X144223618Y-101804216D01*
X144223618Y-101804216D02*
X144175237Y-101755835D01*
X144175237Y-101755835D02*
X144151047Y-101707454D01*
X144151047Y-101707454D02*
X144126856Y-101610692D01*
X144126856Y-101610692D02*
X144126856Y-101538120D01*
X144126856Y-101538120D02*
X144151047Y-101441358D01*
X144151047Y-101441358D02*
X144175237Y-101392977D01*
X144175237Y-101392977D02*
X144223618Y-101344596D01*
X144223618Y-101344596D02*
X144296190Y-101320406D01*
X144296190Y-101320406D02*
X144344571Y-101320406D01*
X144344571Y-101320406D02*
X144417142Y-101344596D01*
X144417142Y-101344596D02*
X144441333Y-101368787D01*
X144683237Y-101828406D02*
X144779999Y-101828406D01*
X144779999Y-101828406D02*
X144828380Y-101804216D01*
X144828380Y-101804216D02*
X144852571Y-101780025D01*
X144852571Y-101780025D02*
X144900952Y-101707454D01*
X144900952Y-101707454D02*
X144925142Y-101610692D01*
X144925142Y-101610692D02*
X144925142Y-101417168D01*
X144925142Y-101417168D02*
X144900952Y-101368787D01*
X144900952Y-101368787D02*
X144876761Y-101344596D01*
X144876761Y-101344596D02*
X144828380Y-101320406D01*
X144828380Y-101320406D02*
X144731618Y-101320406D01*
X144731618Y-101320406D02*
X144683237Y-101344596D01*
X144683237Y-101344596D02*
X144659047Y-101368787D01*
X144659047Y-101368787D02*
X144634856Y-101417168D01*
X144634856Y-101417168D02*
X144634856Y-101538120D01*
X144634856Y-101538120D02*
X144659047Y-101586501D01*
X144659047Y-101586501D02*
X144683237Y-101610692D01*
X144683237Y-101610692D02*
X144731618Y-101634882D01*
X144731618Y-101634882D02*
X144828380Y-101634882D01*
X144828380Y-101634882D02*
X144876761Y-101610692D01*
X144876761Y-101610692D02*
X144900952Y-101586501D01*
X144900952Y-101586501D02*
X144925142Y-101538120D01*
X145965333Y-102542025D02*
X145941142Y-102566216D01*
X145941142Y-102566216D02*
X145868571Y-102590406D01*
X145868571Y-102590406D02*
X145820190Y-102590406D01*
X145820190Y-102590406D02*
X145747618Y-102566216D01*
X145747618Y-102566216D02*
X145699237Y-102517835D01*
X145699237Y-102517835D02*
X145675047Y-102469454D01*
X145675047Y-102469454D02*
X145650856Y-102372692D01*
X145650856Y-102372692D02*
X145650856Y-102300120D01*
X145650856Y-102300120D02*
X145675047Y-102203358D01*
X145675047Y-102203358D02*
X145699237Y-102154977D01*
X145699237Y-102154977D02*
X145747618Y-102106596D01*
X145747618Y-102106596D02*
X145820190Y-102082406D01*
X145820190Y-102082406D02*
X145868571Y-102082406D01*
X145868571Y-102082406D02*
X145941142Y-102106596D01*
X145941142Y-102106596D02*
X145965333Y-102130787D01*
X146255618Y-102300120D02*
X146207237Y-102275930D01*
X146207237Y-102275930D02*
X146183047Y-102251739D01*
X146183047Y-102251739D02*
X146158856Y-102203358D01*
X146158856Y-102203358D02*
X146158856Y-102179168D01*
X146158856Y-102179168D02*
X146183047Y-102130787D01*
X146183047Y-102130787D02*
X146207237Y-102106596D01*
X146207237Y-102106596D02*
X146255618Y-102082406D01*
X146255618Y-102082406D02*
X146352380Y-102082406D01*
X146352380Y-102082406D02*
X146400761Y-102106596D01*
X146400761Y-102106596D02*
X146424952Y-102130787D01*
X146424952Y-102130787D02*
X146449142Y-102179168D01*
X146449142Y-102179168D02*
X146449142Y-102203358D01*
X146449142Y-102203358D02*
X146424952Y-102251739D01*
X146424952Y-102251739D02*
X146400761Y-102275930D01*
X146400761Y-102275930D02*
X146352380Y-102300120D01*
X146352380Y-102300120D02*
X146255618Y-102300120D01*
X146255618Y-102300120D02*
X146207237Y-102324311D01*
X146207237Y-102324311D02*
X146183047Y-102348501D01*
X146183047Y-102348501D02*
X146158856Y-102396882D01*
X146158856Y-102396882D02*
X146158856Y-102493644D01*
X146158856Y-102493644D02*
X146183047Y-102542025D01*
X146183047Y-102542025D02*
X146207237Y-102566216D01*
X146207237Y-102566216D02*
X146255618Y-102590406D01*
X146255618Y-102590406D02*
X146352380Y-102590406D01*
X146352380Y-102590406D02*
X146400761Y-102566216D01*
X146400761Y-102566216D02*
X146424952Y-102542025D01*
X146424952Y-102542025D02*
X146449142Y-102493644D01*
X146449142Y-102493644D02*
X146449142Y-102396882D01*
X146449142Y-102396882D02*
X146424952Y-102348501D01*
X146424952Y-102348501D02*
X146400761Y-102324311D01*
X146400761Y-102324311D02*
X146352380Y-102300120D01*
X144949333Y-102542025D02*
X144925142Y-102566216D01*
X144925142Y-102566216D02*
X144852571Y-102590406D01*
X144852571Y-102590406D02*
X144804190Y-102590406D01*
X144804190Y-102590406D02*
X144731618Y-102566216D01*
X144731618Y-102566216D02*
X144683237Y-102517835D01*
X144683237Y-102517835D02*
X144659047Y-102469454D01*
X144659047Y-102469454D02*
X144634856Y-102372692D01*
X144634856Y-102372692D02*
X144634856Y-102300120D01*
X144634856Y-102300120D02*
X144659047Y-102203358D01*
X144659047Y-102203358D02*
X144683237Y-102154977D01*
X144683237Y-102154977D02*
X144731618Y-102106596D01*
X144731618Y-102106596D02*
X144804190Y-102082406D01*
X144804190Y-102082406D02*
X144852571Y-102082406D01*
X144852571Y-102082406D02*
X144925142Y-102106596D01*
X144925142Y-102106596D02*
X144949333Y-102130787D01*
X145118666Y-102082406D02*
X145457333Y-102082406D01*
X145457333Y-102082406D02*
X145239618Y-102590406D01*
X145965333Y-103304025D02*
X145941142Y-103328216D01*
X145941142Y-103328216D02*
X145868571Y-103352406D01*
X145868571Y-103352406D02*
X145820190Y-103352406D01*
X145820190Y-103352406D02*
X145747618Y-103328216D01*
X145747618Y-103328216D02*
X145699237Y-103279835D01*
X145699237Y-103279835D02*
X145675047Y-103231454D01*
X145675047Y-103231454D02*
X145650856Y-103134692D01*
X145650856Y-103134692D02*
X145650856Y-103062120D01*
X145650856Y-103062120D02*
X145675047Y-102965358D01*
X145675047Y-102965358D02*
X145699237Y-102916977D01*
X145699237Y-102916977D02*
X145747618Y-102868596D01*
X145747618Y-102868596D02*
X145820190Y-102844406D01*
X145820190Y-102844406D02*
X145868571Y-102844406D01*
X145868571Y-102844406D02*
X145941142Y-102868596D01*
X145941142Y-102868596D02*
X145965333Y-102892787D01*
X146400761Y-102844406D02*
X146303999Y-102844406D01*
X146303999Y-102844406D02*
X146255618Y-102868596D01*
X146255618Y-102868596D02*
X146231428Y-102892787D01*
X146231428Y-102892787D02*
X146183047Y-102965358D01*
X146183047Y-102965358D02*
X146158856Y-103062120D01*
X146158856Y-103062120D02*
X146158856Y-103255644D01*
X146158856Y-103255644D02*
X146183047Y-103304025D01*
X146183047Y-103304025D02*
X146207237Y-103328216D01*
X146207237Y-103328216D02*
X146255618Y-103352406D01*
X146255618Y-103352406D02*
X146352380Y-103352406D01*
X146352380Y-103352406D02*
X146400761Y-103328216D01*
X146400761Y-103328216D02*
X146424952Y-103304025D01*
X146424952Y-103304025D02*
X146449142Y-103255644D01*
X146449142Y-103255644D02*
X146449142Y-103134692D01*
X146449142Y-103134692D02*
X146424952Y-103086311D01*
X146424952Y-103086311D02*
X146400761Y-103062120D01*
X146400761Y-103062120D02*
X146352380Y-103037930D01*
X146352380Y-103037930D02*
X146255618Y-103037930D01*
X146255618Y-103037930D02*
X146207237Y-103062120D01*
X146207237Y-103062120D02*
X146183047Y-103086311D01*
X146183047Y-103086311D02*
X146158856Y-103134692D01*
X159427333Y-101636025D02*
X159403142Y-101660216D01*
X159403142Y-101660216D02*
X159330571Y-101684406D01*
X159330571Y-101684406D02*
X159282190Y-101684406D01*
X159282190Y-101684406D02*
X159209618Y-101660216D01*
X159209618Y-101660216D02*
X159161237Y-101611835D01*
X159161237Y-101611835D02*
X159137047Y-101563454D01*
X159137047Y-101563454D02*
X159112856Y-101466692D01*
X159112856Y-101466692D02*
X159112856Y-101394120D01*
X159112856Y-101394120D02*
X159137047Y-101297358D01*
X159137047Y-101297358D02*
X159161237Y-101248977D01*
X159161237Y-101248977D02*
X159209618Y-101200596D01*
X159209618Y-101200596D02*
X159282190Y-101176406D01*
X159282190Y-101176406D02*
X159330571Y-101176406D01*
X159330571Y-101176406D02*
X159403142Y-101200596D01*
X159403142Y-101200596D02*
X159427333Y-101224787D01*
X159886952Y-101176406D02*
X159645047Y-101176406D01*
X159645047Y-101176406D02*
X159620856Y-101418311D01*
X159620856Y-101418311D02*
X159645047Y-101394120D01*
X159645047Y-101394120D02*
X159693428Y-101369930D01*
X159693428Y-101369930D02*
X159814380Y-101369930D01*
X159814380Y-101369930D02*
X159862761Y-101394120D01*
X159862761Y-101394120D02*
X159886952Y-101418311D01*
X159886952Y-101418311D02*
X159911142Y-101466692D01*
X159911142Y-101466692D02*
X159911142Y-101587644D01*
X159911142Y-101587644D02*
X159886952Y-101636025D01*
X159886952Y-101636025D02*
X159862761Y-101660216D01*
X159862761Y-101660216D02*
X159814380Y-101684406D01*
X159814380Y-101684406D02*
X159693428Y-101684406D01*
X159693428Y-101684406D02*
X159645047Y-101660216D01*
X159645047Y-101660216D02*
X159620856Y-101636025D01*
X160443333Y-104828025D02*
X160419142Y-104852216D01*
X160419142Y-104852216D02*
X160346571Y-104876406D01*
X160346571Y-104876406D02*
X160298190Y-104876406D01*
X160298190Y-104876406D02*
X160225618Y-104852216D01*
X160225618Y-104852216D02*
X160177237Y-104803835D01*
X160177237Y-104803835D02*
X160153047Y-104755454D01*
X160153047Y-104755454D02*
X160128856Y-104658692D01*
X160128856Y-104658692D02*
X160128856Y-104586120D01*
X160128856Y-104586120D02*
X160153047Y-104489358D01*
X160153047Y-104489358D02*
X160177237Y-104440977D01*
X160177237Y-104440977D02*
X160225618Y-104392596D01*
X160225618Y-104392596D02*
X160298190Y-104368406D01*
X160298190Y-104368406D02*
X160346571Y-104368406D01*
X160346571Y-104368406D02*
X160419142Y-104392596D01*
X160419142Y-104392596D02*
X160443333Y-104416787D01*
X160878761Y-104537739D02*
X160878761Y-104876406D01*
X160757809Y-104344216D02*
X160636856Y-104707073D01*
X160636856Y-104707073D02*
X160951333Y-104707073D01*
X145457333Y-106352025D02*
X145433142Y-106376216D01*
X145433142Y-106376216D02*
X145360571Y-106400406D01*
X145360571Y-106400406D02*
X145312190Y-106400406D01*
X145312190Y-106400406D02*
X145239618Y-106376216D01*
X145239618Y-106376216D02*
X145191237Y-106327835D01*
X145191237Y-106327835D02*
X145167047Y-106279454D01*
X145167047Y-106279454D02*
X145142856Y-106182692D01*
X145142856Y-106182692D02*
X145142856Y-106110120D01*
X145142856Y-106110120D02*
X145167047Y-106013358D01*
X145167047Y-106013358D02*
X145191237Y-105964977D01*
X145191237Y-105964977D02*
X145239618Y-105916596D01*
X145239618Y-105916596D02*
X145312190Y-105892406D01*
X145312190Y-105892406D02*
X145360571Y-105892406D01*
X145360571Y-105892406D02*
X145433142Y-105916596D01*
X145433142Y-105916596D02*
X145457333Y-105940787D01*
X145626666Y-105892406D02*
X145941142Y-105892406D01*
X145941142Y-105892406D02*
X145771809Y-106085930D01*
X145771809Y-106085930D02*
X145844380Y-106085930D01*
X145844380Y-106085930D02*
X145892761Y-106110120D01*
X145892761Y-106110120D02*
X145916952Y-106134311D01*
X145916952Y-106134311D02*
X145941142Y-106182692D01*
X145941142Y-106182692D02*
X145941142Y-106303644D01*
X145941142Y-106303644D02*
X145916952Y-106352025D01*
X145916952Y-106352025D02*
X145892761Y-106376216D01*
X145892761Y-106376216D02*
X145844380Y-106400406D01*
X145844380Y-106400406D02*
X145699237Y-106400406D01*
X145699237Y-106400406D02*
X145650856Y-106376216D01*
X145650856Y-106376216D02*
X145626666Y-106352025D01*
X145457333Y-105336025D02*
X145433142Y-105360216D01*
X145433142Y-105360216D02*
X145360571Y-105384406D01*
X145360571Y-105384406D02*
X145312190Y-105384406D01*
X145312190Y-105384406D02*
X145239618Y-105360216D01*
X145239618Y-105360216D02*
X145191237Y-105311835D01*
X145191237Y-105311835D02*
X145167047Y-105263454D01*
X145167047Y-105263454D02*
X145142856Y-105166692D01*
X145142856Y-105166692D02*
X145142856Y-105094120D01*
X145142856Y-105094120D02*
X145167047Y-104997358D01*
X145167047Y-104997358D02*
X145191237Y-104948977D01*
X145191237Y-104948977D02*
X145239618Y-104900596D01*
X145239618Y-104900596D02*
X145312190Y-104876406D01*
X145312190Y-104876406D02*
X145360571Y-104876406D01*
X145360571Y-104876406D02*
X145433142Y-104900596D01*
X145433142Y-104900596D02*
X145457333Y-104924787D01*
X145650856Y-104924787D02*
X145675047Y-104900596D01*
X145675047Y-104900596D02*
X145723428Y-104876406D01*
X145723428Y-104876406D02*
X145844380Y-104876406D01*
X145844380Y-104876406D02*
X145892761Y-104900596D01*
X145892761Y-104900596D02*
X145916952Y-104924787D01*
X145916952Y-104924787D02*
X145941142Y-104973168D01*
X145941142Y-104973168D02*
X145941142Y-105021549D01*
X145941142Y-105021549D02*
X145916952Y-105094120D01*
X145916952Y-105094120D02*
X145626666Y-105384406D01*
X145626666Y-105384406D02*
X145941142Y-105384406D01*
X158157333Y-107114025D02*
X158133142Y-107138216D01*
X158133142Y-107138216D02*
X158060571Y-107162406D01*
X158060571Y-107162406D02*
X158012190Y-107162406D01*
X158012190Y-107162406D02*
X157939618Y-107138216D01*
X157939618Y-107138216D02*
X157891237Y-107089835D01*
X157891237Y-107089835D02*
X157867047Y-107041454D01*
X157867047Y-107041454D02*
X157842856Y-106944692D01*
X157842856Y-106944692D02*
X157842856Y-106872120D01*
X157842856Y-106872120D02*
X157867047Y-106775358D01*
X157867047Y-106775358D02*
X157891237Y-106726977D01*
X157891237Y-106726977D02*
X157939618Y-106678596D01*
X157939618Y-106678596D02*
X158012190Y-106654406D01*
X158012190Y-106654406D02*
X158060571Y-106654406D01*
X158060571Y-106654406D02*
X158133142Y-106678596D01*
X158133142Y-106678596D02*
X158157333Y-106702787D01*
X158641142Y-107162406D02*
X158350856Y-107162406D01*
X158495999Y-107162406D02*
X158495999Y-106654406D01*
X158495999Y-106654406D02*
X158447618Y-106726977D01*
X158447618Y-106726977D02*
X158399237Y-106775358D01*
X158399237Y-106775358D02*
X158350856Y-106799549D01*
X148251332Y-96857263D02*
X148493237Y-96857263D01*
X148202951Y-97002406D02*
X148372285Y-96494406D01*
X148372285Y-96494406D02*
X148541618Y-97002406D01*
X148710952Y-96736311D02*
X148880285Y-96736311D01*
X148952857Y-97002406D02*
X148710952Y-97002406D01*
X148710952Y-97002406D02*
X148710952Y-96494406D01*
X148710952Y-96494406D02*
X148952857Y-96494406D01*
X149436666Y-97002406D02*
X149146380Y-97002406D01*
X149291523Y-97002406D02*
X149291523Y-96494406D01*
X149291523Y-96494406D02*
X149243142Y-96566977D01*
X149243142Y-96566977D02*
X149194761Y-96615358D01*
X149194761Y-96615358D02*
X149146380Y-96639549D01*
D11*
%TO.C,Y1*%
X156097000Y-103465000D02*
X156097000Y-104815000D01*
X157847000Y-103465000D02*
X157847000Y-104815000D01*
%TO.C,U1*%
X153631000Y-107149000D02*
X152906000Y-107149000D01*
X149411000Y-106424000D02*
X149411000Y-107149000D01*
X149411000Y-102929000D02*
X150136000Y-102929000D01*
X153631000Y-102929000D02*
X152906000Y-102929000D01*
X149411000Y-103654000D02*
X149411000Y-102929000D01*
X153631000Y-103654000D02*
X153631000Y-102929000D01*
X153631000Y-106424000D02*
X153631000Y-107149000D01*
%TO.C,R2*%
X158624000Y-104293641D02*
X158624000Y-103986359D01*
X159384000Y-104293641D02*
X159384000Y-103986359D01*
%TO.C,R1*%
X147219641Y-104520000D02*
X146912359Y-104520000D01*
X147219641Y-103760000D02*
X146912359Y-103760000D01*
%TO.C,J1*%
X157506000Y-111240000D02*
X157206000Y-111240000D01*
X157206000Y-110490000D02*
X157206000Y-109490000D01*
X148206000Y-112640000D02*
X147456000Y-112640000D01*
X157506000Y-109190000D02*
X145656000Y-109190000D01*
X148206000Y-112340000D02*
X148206000Y-112640000D01*
X156906000Y-112340000D02*
X155706000Y-112340000D01*
X145956000Y-111240000D02*
X145956000Y-112340000D01*
X156906000Y-112340000D02*
X156906000Y-112790000D01*
X145956000Y-109490000D02*
X145956000Y-110490000D01*
X145656000Y-112790000D02*
X157506000Y-112790000D01*
X147456000Y-112340000D02*
X146256000Y-112340000D01*
X157506000Y-112790000D02*
X157506000Y-109190000D01*
X157206000Y-109490000D02*
X145956000Y-109490000D01*
X157206000Y-112340000D02*
X156906000Y-112340000D01*
X145956000Y-112340000D02*
X146256000Y-112340000D01*
X157506000Y-110490000D02*
X157206000Y-110490000D01*
X157816000Y-108880000D02*
X155906000Y-108880000D01*
X145656000Y-109190000D02*
X145656000Y-112790000D01*
X154956000Y-112640000D02*
X154956000Y-112340000D01*
X155706000Y-112340000D02*
X155706000Y-112640000D01*
X147456000Y-112640000D02*
X147456000Y-112340000D01*
X157206000Y-111240000D02*
X157206000Y-112340000D01*
X145956000Y-110490000D02*
X145656000Y-110490000D01*
X157816000Y-110790000D02*
X157816000Y-108880000D01*
X145656000Y-111240000D02*
X145956000Y-111240000D01*
X154956000Y-112340000D02*
X148206000Y-112340000D01*
X155706000Y-112640000D02*
X154956000Y-112640000D01*
X146256000Y-112340000D02*
X146256000Y-112790000D01*
%TO.C,C11*%
X149244164Y-99420000D02*
X149459836Y-99420000D01*
X149244164Y-98700000D02*
X149459836Y-98700000D01*
%TO.C,C10*%
X145395836Y-98700000D02*
X145180164Y-98700000D01*
X145395836Y-99420000D02*
X145180164Y-99420000D01*
%TO.C,C9*%
X145224500Y-100629164D02*
X145224500Y-100844836D01*
X145944500Y-100629164D02*
X145944500Y-100844836D01*
%TO.C,C8*%
X147724336Y-101139000D02*
X147508664Y-101139000D01*
X147724336Y-101859000D02*
X147508664Y-101859000D01*
%TO.C,C7*%
X147470336Y-99869000D02*
X147254664Y-99869000D01*
X147470336Y-100589000D02*
X147254664Y-100589000D01*
%TO.C,C6*%
X147724336Y-102663000D02*
X147508664Y-102663000D01*
X147724336Y-103383000D02*
X147508664Y-103383000D01*
%TO.C,C5*%
X159404164Y-102256000D02*
X159619836Y-102256000D01*
X159404164Y-102976000D02*
X159619836Y-102976000D01*
%TO.C,C4*%
X159404164Y-106024000D02*
X159619836Y-106024000D01*
X159404164Y-105304000D02*
X159619836Y-105304000D01*
%TO.C,C3*%
X147173836Y-105812000D02*
X146958164Y-105812000D01*
X147173836Y-106532000D02*
X146958164Y-106532000D01*
%TO.C,C2*%
X147201836Y-104796000D02*
X146986164Y-104796000D01*
X147201836Y-105516000D02*
X146986164Y-105516000D01*
%TO.C,C1*%
X156610164Y-107294000D02*
X156825836Y-107294000D01*
X156610164Y-106574000D02*
X156825836Y-106574000D01*
%TD*%
M02*
