%TF.GenerationSoftware,KiCad,Pcbnew,7.0.9*%
%TF.CreationDate,2024-12-08T03:54:19-04:00*%
%TF.ProjectId,Ejemplo KiCad LM,456a656d-706c-46f2-904b-69436164204c,rev?*%
%TF.SameCoordinates,Original*%
%TF.FileFunction,Copper,L2,Bot*%
%TF.FilePolarity,Positive*%
%FSLAX46Y46*%
G04 Gerber Fmt 4.6, Leading zero omitted, Abs format (unit mm)*
G04 Created by KiCad (PCBNEW 7.0.9) date 2024-12-08 03:54:19*
%MOMM*%
%LPD*%
G01*
G04 APERTURE LIST*
G04 Aperture macros list*
%AMRoundRect*
0 Rectangle with rounded corners*
0 $1 Rounding radius*
0 $2 $3 $4 $5 $6 $7 $8 $9 X,Y pos of 4 corners*
0 Add a 4 corners polygon primitive as box body*
4,1,4,$2,$3,$4,$5,$6,$7,$8,$9,$2,$3,0*
0 Add four circle primitives for the rounded corners*
1,1,$1+$1,$2,$3*
1,1,$1+$1,$4,$5*
1,1,$1+$1,$6,$7*
1,1,$1+$1,$8,$9*
0 Add four rect primitives between the rounded corners*
20,1,$1+$1,$2,$3,$4,$5,0*
20,1,$1+$1,$4,$5,$6,$7,0*
20,1,$1+$1,$6,$7,$8,$9,0*
20,1,$1+$1,$8,$9,$2,$3,0*%
G04 Aperture macros list end*
%TA.AperFunction,ComponentPad*%
%ADD10RoundRect,0.225000X0.225000X0.475000X-0.225000X0.475000X-0.225000X-0.475000X0.225000X-0.475000X0*%
%TD*%
%TA.AperFunction,ComponentPad*%
%ADD11O,0.900000X1.400000*%
%TD*%
%TA.AperFunction,ComponentPad*%
%ADD12R,0.900000X0.500000*%
%TD*%
%TA.AperFunction,ViaPad*%
%ADD13C,0.800000*%
%TD*%
%TA.AperFunction,Conductor*%
%ADD14C,0.254000*%
%TD*%
G04 APERTURE END LIST*
D10*
%TO.P,J1,1,Pin_1*%
%TO.N,VDD*%
X155956000Y-110490000D03*
D11*
%TO.P,J1,2,Pin_2*%
%TO.N,Net-(J1-Pin_2)*%
X154706000Y-110490000D03*
%TO.P,J1,3,Pin_3*%
%TO.N,Net-(J1-Pin_3)*%
X153456000Y-110490000D03*
%TO.P,J1,4,Pin_4*%
%TO.N,Net-(J1-Pin_4)*%
X152206000Y-110490000D03*
%TO.P,J1,5,Pin_5*%
%TO.N,Net-(J1-Pin_5)*%
X150956000Y-110490000D03*
%TO.P,J1,6,Pin_6*%
%TO.N,Net-(J1-Pin_6)*%
X149706000Y-110490000D03*
%TO.P,J1,7,Pin_7*%
%TO.N,Net-(J1-Pin_7)*%
X148456000Y-110490000D03*
%TO.P,J1,8,Pin_8*%
%TO.N,GND*%
X147206000Y-110490000D03*
%TD*%
D12*
%TO.P,AE1,2*%
%TO.N,N/C*%
X145728000Y-97536000D03*
%TD*%
D13*
%TO.N,GND*%
X144018000Y-98044000D03*
X152146000Y-105410000D03*
X150876000Y-105410000D03*
X152146000Y-104394000D03*
X150876000Y-104394000D03*
X158496000Y-100838000D03*
X159512000Y-100838000D03*
X155448000Y-100838000D03*
X157480000Y-100838000D03*
X160528000Y-100838000D03*
X156464000Y-100838000D03*
X153416000Y-100838000D03*
X154432000Y-100838000D03*
X158496000Y-99822000D03*
X159512000Y-99822000D03*
X155448000Y-99822000D03*
X157480000Y-99822000D03*
X160528000Y-99822000D03*
X156464000Y-99822000D03*
X153416000Y-99822000D03*
X154432000Y-99822000D03*
X151384000Y-98806000D03*
X152400000Y-98806000D03*
X153416000Y-98806000D03*
X154432000Y-98806000D03*
X155448000Y-98806000D03*
X156464000Y-98806000D03*
X157480000Y-98806000D03*
X158496000Y-98806000D03*
X159512000Y-98806000D03*
X160528000Y-98806000D03*
%TO.N,VDD*%
X148336000Y-104812500D03*
X149860000Y-102870000D03*
%TO.N,Net-(J1-Pin_7)*%
X153416000Y-107188000D03*
%TO.N,Net-(J1-Pin_3)*%
X152913714Y-108198286D03*
%TO.N,Net-(U1-VDD_PA)*%
X148844000Y-102362000D03*
X153416000Y-102108000D03*
%TD*%
D14*
%TO.N,VDD*%
X155448000Y-106426000D02*
X155956000Y-106934000D01*
X149109948Y-106426000D02*
X155448000Y-106426000D01*
X155956000Y-106934000D02*
X155956000Y-110490000D01*
X148336000Y-104812500D02*
X148336000Y-105652052D01*
X148336000Y-105652052D02*
X149109948Y-106426000D01*
X148336000Y-104394000D02*
X148336000Y-104812500D01*
X149860000Y-102870000D02*
X148336000Y-104394000D01*
%TO.N,Net-(J1-Pin_7)*%
X148456000Y-108338000D02*
X148456000Y-110490000D01*
X149606000Y-107188000D02*
X148456000Y-108338000D01*
X153416000Y-107188000D02*
X149606000Y-107188000D01*
%TO.N,Net-(J1-Pin_3)*%
X153456000Y-108740572D02*
X153456000Y-110490000D01*
X152913714Y-108198286D02*
X153456000Y-108740572D01*
%TO.N,Net-(U1-VDD_PA)*%
X149098000Y-102108000D02*
X153416000Y-102108000D01*
X148844000Y-102362000D02*
X149098000Y-102108000D01*
%TD*%
%TA.AperFunction,Conductor*%
%TO.N,GND*%
G36*
X144850903Y-98063685D02*
G01*
X144883130Y-98093688D01*
X144920455Y-98143547D01*
X145035664Y-98229793D01*
X145035671Y-98229797D01*
X145170517Y-98280091D01*
X145170516Y-98280091D01*
X145177444Y-98280835D01*
X145230127Y-98286500D01*
X146225872Y-98286499D01*
X146285483Y-98280091D01*
X146420331Y-98229796D01*
X146535546Y-98143546D01*
X146572870Y-98093688D01*
X146628804Y-98051818D01*
X146672136Y-98044000D01*
X161165500Y-98044000D01*
X161232539Y-98063685D01*
X161278294Y-98116489D01*
X161289500Y-98168000D01*
X161289500Y-112906000D01*
X161269815Y-112973039D01*
X161217011Y-113018794D01*
X161165500Y-113030000D01*
X143634500Y-113030000D01*
X143567461Y-113010315D01*
X143521706Y-112957511D01*
X143510500Y-112906000D01*
X143510500Y-110740000D01*
X146256000Y-110740000D01*
X146256000Y-110788176D01*
X146270647Y-110932221D01*
X146328484Y-111116561D01*
X146328489Y-111116571D01*
X146422251Y-111285498D01*
X146422256Y-111285505D01*
X146548107Y-111432105D01*
X146700890Y-111550368D01*
X146700894Y-111550370D01*
X146874363Y-111635460D01*
X146956000Y-111656596D01*
X146956000Y-110740000D01*
X146256000Y-110740000D01*
X143510500Y-110740000D01*
X143510500Y-110461840D01*
X146902105Y-110461840D01*
X146912454Y-110573521D01*
X146962448Y-110673922D01*
X147045334Y-110749484D01*
X147149920Y-110790000D01*
X147233802Y-110790000D01*
X147316250Y-110774588D01*
X147411610Y-110715543D01*
X147456000Y-110656761D01*
X147456000Y-111660470D01*
X147626524Y-111597315D01*
X147626538Y-111597309D01*
X147766106Y-111510315D01*
X147833411Y-111491558D01*
X147900172Y-111512166D01*
X147907599Y-111517490D01*
X147950622Y-111550793D01*
X147950623Y-111550793D01*
X147950627Y-111550796D01*
X148124184Y-111635930D01*
X148124188Y-111635931D01*
X148124186Y-111635931D01*
X148311317Y-111684383D01*
X148311320Y-111684383D01*
X148311326Y-111684385D01*
X148504390Y-111694176D01*
X148695474Y-111664903D01*
X148876753Y-111597764D01*
X149016530Y-111510641D01*
X149083835Y-111491885D01*
X149150596Y-111512494D01*
X149158022Y-111517817D01*
X149200076Y-111550370D01*
X149200627Y-111550796D01*
X149374184Y-111635930D01*
X149374188Y-111635931D01*
X149374186Y-111635931D01*
X149561317Y-111684383D01*
X149561320Y-111684383D01*
X149561326Y-111684385D01*
X149754390Y-111694176D01*
X149945474Y-111664903D01*
X150126753Y-111597764D01*
X150266530Y-111510641D01*
X150333835Y-111491885D01*
X150400596Y-111512494D01*
X150408022Y-111517817D01*
X150450076Y-111550370D01*
X150450627Y-111550796D01*
X150624184Y-111635930D01*
X150624188Y-111635931D01*
X150624186Y-111635931D01*
X150811317Y-111684383D01*
X150811320Y-111684383D01*
X150811326Y-111684385D01*
X151004390Y-111694176D01*
X151195474Y-111664903D01*
X151376753Y-111597764D01*
X151516530Y-111510641D01*
X151583835Y-111491885D01*
X151650596Y-111512494D01*
X151658022Y-111517817D01*
X151700076Y-111550370D01*
X151700627Y-111550796D01*
X151874184Y-111635930D01*
X151874188Y-111635931D01*
X151874186Y-111635931D01*
X152061317Y-111684383D01*
X152061320Y-111684383D01*
X152061326Y-111684385D01*
X152254390Y-111694176D01*
X152445474Y-111664903D01*
X152626753Y-111597764D01*
X152766530Y-111510641D01*
X152833835Y-111491885D01*
X152900596Y-111512494D01*
X152908022Y-111517817D01*
X152950076Y-111550370D01*
X152950627Y-111550796D01*
X153124184Y-111635930D01*
X153124188Y-111635931D01*
X153124186Y-111635931D01*
X153311317Y-111684383D01*
X153311320Y-111684383D01*
X153311326Y-111684385D01*
X153504390Y-111694176D01*
X153695474Y-111664903D01*
X153876753Y-111597764D01*
X154016530Y-111510641D01*
X154083835Y-111491885D01*
X154150596Y-111512494D01*
X154158022Y-111517817D01*
X154200076Y-111550370D01*
X154200627Y-111550796D01*
X154374184Y-111635930D01*
X154374188Y-111635931D01*
X154374186Y-111635931D01*
X154561317Y-111684383D01*
X154561320Y-111684383D01*
X154561326Y-111684385D01*
X154754390Y-111694176D01*
X154945474Y-111664903D01*
X155126753Y-111597764D01*
X155184927Y-111561503D01*
X155252230Y-111542747D01*
X155315615Y-111561197D01*
X155422294Y-111626998D01*
X155422297Y-111626999D01*
X155422303Y-111627003D01*
X155583292Y-111680349D01*
X155682655Y-111690500D01*
X156229344Y-111690499D01*
X156229352Y-111690498D01*
X156229355Y-111690498D01*
X156289217Y-111684383D01*
X156328708Y-111680349D01*
X156489697Y-111627003D01*
X156634044Y-111537968D01*
X156753968Y-111418044D01*
X156843003Y-111273697D01*
X156896349Y-111112708D01*
X156906500Y-111013345D01*
X156906499Y-109966656D01*
X156896349Y-109867292D01*
X156843003Y-109706303D01*
X156842999Y-109706297D01*
X156842998Y-109706294D01*
X156753970Y-109561959D01*
X156753969Y-109561958D01*
X156753968Y-109561956D01*
X156634044Y-109442032D01*
X156634043Y-109442031D01*
X156634041Y-109442029D01*
X156630593Y-109439303D01*
X156590214Y-109382283D01*
X156583500Y-109342034D01*
X156583500Y-107016963D01*
X156585228Y-107001313D01*
X156584946Y-107001287D01*
X156585680Y-106993524D01*
X156583925Y-106937693D01*
X156583500Y-106924153D01*
X156583500Y-106894524D01*
X156582627Y-106887614D01*
X156582168Y-106881785D01*
X156580700Y-106835057D01*
X156578987Y-106829162D01*
X156575082Y-106815720D01*
X156571138Y-106796674D01*
X156568616Y-106776707D01*
X156551403Y-106733233D01*
X156549515Y-106727716D01*
X156536467Y-106682805D01*
X156526223Y-106665484D01*
X156517661Y-106648007D01*
X156510253Y-106629298D01*
X156510253Y-106629297D01*
X156482764Y-106591462D01*
X156479561Y-106586585D01*
X156455764Y-106546346D01*
X156455759Y-106546339D01*
X156441531Y-106532112D01*
X156428896Y-106517320D01*
X156417063Y-106501033D01*
X156417060Y-106501031D01*
X156417060Y-106501030D01*
X156417059Y-106501029D01*
X156381035Y-106471228D01*
X156376713Y-106467294D01*
X155950376Y-106040957D01*
X155940531Y-106028668D01*
X155940313Y-106028849D01*
X155935340Y-106022838D01*
X155910450Y-105999465D01*
X155884741Y-105975322D01*
X155874268Y-105964849D01*
X155863797Y-105954377D01*
X155858296Y-105950111D01*
X155853848Y-105946312D01*
X155819768Y-105914308D01*
X155819763Y-105914304D01*
X155802122Y-105904606D01*
X155785857Y-105893922D01*
X155769963Y-105881593D01*
X155769962Y-105881592D01*
X155754804Y-105875032D01*
X155727054Y-105863023D01*
X155721807Y-105860453D01*
X155680837Y-105837929D01*
X155680828Y-105837926D01*
X155661334Y-105832920D01*
X155642933Y-105826620D01*
X155624459Y-105818626D01*
X155624452Y-105818624D01*
X155578287Y-105811313D01*
X155572563Y-105810128D01*
X155527279Y-105798500D01*
X155527272Y-105798500D01*
X155507142Y-105798500D01*
X155487743Y-105796973D01*
X155467868Y-105793825D01*
X155467867Y-105793825D01*
X155421321Y-105798225D01*
X155415483Y-105798500D01*
X149421229Y-105798500D01*
X149354190Y-105778815D01*
X149333548Y-105762181D01*
X149079267Y-105507900D01*
X149045782Y-105446577D01*
X149050766Y-105376885D01*
X149066639Y-105347321D01*
X149068523Y-105344726D01*
X149068533Y-105344716D01*
X149163179Y-105180784D01*
X149221674Y-105000756D01*
X149241460Y-104812500D01*
X149221674Y-104624244D01*
X149189117Y-104524047D01*
X149187123Y-104454207D01*
X149219366Y-104398051D01*
X149810600Y-103806819D01*
X149871923Y-103773334D01*
X149898281Y-103770500D01*
X149954644Y-103770500D01*
X149954646Y-103770500D01*
X150139803Y-103731144D01*
X150312730Y-103654151D01*
X150465871Y-103542888D01*
X150592533Y-103402216D01*
X150687179Y-103238284D01*
X150745674Y-103058256D01*
X150765460Y-102870000D01*
X150765460Y-102869997D01*
X150765460Y-102863502D01*
X150767359Y-102863502D01*
X150778282Y-102803742D01*
X150826010Y-102752714D01*
X150889039Y-102735500D01*
X152714053Y-102735500D01*
X152781092Y-102755185D01*
X152806199Y-102776523D01*
X152810129Y-102780888D01*
X152810132Y-102780891D01*
X152810135Y-102780893D01*
X152963265Y-102892148D01*
X152963270Y-102892151D01*
X153136192Y-102969142D01*
X153136197Y-102969144D01*
X153321354Y-103008500D01*
X153321355Y-103008500D01*
X153510644Y-103008500D01*
X153510646Y-103008500D01*
X153695803Y-102969144D01*
X153868730Y-102892151D01*
X154021871Y-102780888D01*
X154148533Y-102640216D01*
X154243179Y-102476284D01*
X154301674Y-102296256D01*
X154321460Y-102108000D01*
X154301674Y-101919744D01*
X154243179Y-101739716D01*
X154148533Y-101575784D01*
X154021871Y-101435112D01*
X154021870Y-101435111D01*
X153868734Y-101323851D01*
X153868729Y-101323848D01*
X153695807Y-101246857D01*
X153695802Y-101246855D01*
X153550001Y-101215865D01*
X153510646Y-101207500D01*
X153321354Y-101207500D01*
X153288897Y-101214398D01*
X153136197Y-101246855D01*
X153136192Y-101246857D01*
X152963270Y-101323848D01*
X152963265Y-101323851D01*
X152810135Y-101435106D01*
X152810132Y-101435108D01*
X152808175Y-101437281D01*
X152806200Y-101439474D01*
X152746714Y-101476121D01*
X152714053Y-101480500D01*
X149180967Y-101480500D01*
X149165319Y-101478772D01*
X149165293Y-101479054D01*
X149157525Y-101478319D01*
X149088154Y-101480500D01*
X149058517Y-101480500D01*
X149054637Y-101480744D01*
X149054593Y-101480058D01*
X149018891Y-101478555D01*
X148938647Y-101461500D01*
X148938646Y-101461500D01*
X148749354Y-101461500D01*
X148716897Y-101468398D01*
X148564197Y-101500855D01*
X148564192Y-101500857D01*
X148391270Y-101577848D01*
X148391265Y-101577851D01*
X148238129Y-101689111D01*
X148111466Y-101829785D01*
X148016821Y-101993715D01*
X148016818Y-101993722D01*
X147958327Y-102173740D01*
X147958326Y-102173744D01*
X147938540Y-102362000D01*
X147958326Y-102550256D01*
X147958327Y-102550259D01*
X148016818Y-102730277D01*
X148016821Y-102730284D01*
X148111467Y-102894216D01*
X148178931Y-102969142D01*
X148238129Y-103034888D01*
X148391265Y-103146148D01*
X148391267Y-103146149D01*
X148391270Y-103146151D01*
X148437598Y-103166777D01*
X148490834Y-103212027D01*
X148511155Y-103278876D01*
X148492110Y-103346099D01*
X148474842Y-103367737D01*
X147950953Y-103891626D01*
X147938669Y-103901469D01*
X147938849Y-103901687D01*
X147932838Y-103906659D01*
X147885322Y-103957258D01*
X147864375Y-103978205D01*
X147860106Y-103983709D01*
X147856315Y-103988147D01*
X147824308Y-104022230D01*
X147824305Y-104022234D01*
X147814606Y-104039877D01*
X147803928Y-104056133D01*
X147791592Y-104072037D01*
X147791587Y-104072045D01*
X147790592Y-104074345D01*
X147789199Y-104076083D01*
X147787621Y-104078752D01*
X147787241Y-104078527D01*
X147749686Y-104125402D01*
X147730127Y-104139613D01*
X147603466Y-104280285D01*
X147508821Y-104444215D01*
X147508818Y-104444222D01*
X147450327Y-104624240D01*
X147450326Y-104624244D01*
X147430540Y-104812500D01*
X147450326Y-105000756D01*
X147450327Y-105000759D01*
X147508818Y-105180777D01*
X147508821Y-105180784D01*
X147603467Y-105344716D01*
X147676651Y-105425994D01*
X147706880Y-105488984D01*
X147708500Y-105508965D01*
X147708500Y-105569084D01*
X147706772Y-105584733D01*
X147707054Y-105584760D01*
X147706319Y-105592527D01*
X147708500Y-105661911D01*
X147708500Y-105691529D01*
X147709371Y-105698432D01*
X147709829Y-105704251D01*
X147711298Y-105750994D01*
X147716916Y-105770327D01*
X147720862Y-105789381D01*
X147723383Y-105809339D01*
X147723386Y-105809351D01*
X147740595Y-105852817D01*
X147742487Y-105858345D01*
X147755530Y-105903239D01*
X147755530Y-105903240D01*
X147765777Y-105920567D01*
X147774335Y-105938037D01*
X147781745Y-105956753D01*
X147809229Y-105994581D01*
X147812437Y-105999465D01*
X147836234Y-106039704D01*
X147836240Y-106039712D01*
X147850469Y-106053940D01*
X147863109Y-106068739D01*
X147874934Y-106085016D01*
X147874936Y-106085017D01*
X147874937Y-106085019D01*
X147910957Y-106114817D01*
X147915268Y-106118739D01*
X148263823Y-106467294D01*
X148607572Y-106811043D01*
X148617419Y-106823333D01*
X148617637Y-106823154D01*
X148622605Y-106829160D01*
X148673205Y-106876677D01*
X148694149Y-106897620D01*
X148694155Y-106897626D01*
X148699645Y-106901883D01*
X148704095Y-106905683D01*
X148738181Y-106937693D01*
X148738183Y-106937694D01*
X148742317Y-106939967D01*
X148791584Y-106989511D01*
X148806244Y-107057826D01*
X148781643Y-107123221D01*
X148770266Y-107136313D01*
X148070953Y-107835626D01*
X148058669Y-107845469D01*
X148058849Y-107845687D01*
X148052838Y-107850659D01*
X148005322Y-107901258D01*
X147984375Y-107922205D01*
X147980106Y-107927709D01*
X147976315Y-107932147D01*
X147944308Y-107966230D01*
X147944305Y-107966234D01*
X147934606Y-107983877D01*
X147923928Y-108000133D01*
X147911594Y-108016034D01*
X147911589Y-108016042D01*
X147893025Y-108058943D01*
X147890454Y-108064191D01*
X147867927Y-108105167D01*
X147862920Y-108124668D01*
X147856621Y-108143064D01*
X147849893Y-108158612D01*
X147848625Y-108161544D01*
X147848624Y-108161546D01*
X147841312Y-108207716D01*
X147840127Y-108213438D01*
X147828500Y-108258723D01*
X147828500Y-108278858D01*
X147826973Y-108298257D01*
X147823825Y-108318131D01*
X147828225Y-108364677D01*
X147828500Y-108370515D01*
X147828500Y-109288274D01*
X147808815Y-109355313D01*
X147756011Y-109401068D01*
X147686853Y-109411012D01*
X147649892Y-109399602D01*
X147537647Y-109344543D01*
X147537643Y-109344542D01*
X147456000Y-109323403D01*
X147456000Y-110319027D01*
X147449552Y-110306078D01*
X147366666Y-110230516D01*
X147262080Y-110190000D01*
X147178198Y-110190000D01*
X147095750Y-110205412D01*
X147000390Y-110264457D01*
X146932799Y-110353962D01*
X146902105Y-110461840D01*
X143510500Y-110461840D01*
X143510500Y-110240000D01*
X146256000Y-110240000D01*
X146956000Y-110240000D01*
X146956000Y-109319528D01*
X146785472Y-109382685D01*
X146785468Y-109382687D01*
X146621496Y-109484892D01*
X146481465Y-109618002D01*
X146481464Y-109618003D01*
X146371086Y-109776586D01*
X146294893Y-109954137D01*
X146256000Y-110143393D01*
X146256000Y-110240000D01*
X143510500Y-110240000D01*
X143510500Y-98168000D01*
X143530185Y-98100961D01*
X143582989Y-98055206D01*
X143634500Y-98044000D01*
X144783864Y-98044000D01*
X144850903Y-98063685D01*
G37*
%TD.AperFunction*%
%TD*%
M02*
