%TF.GenerationSoftware,KiCad,Pcbnew,7.0.9*%
%TF.CreationDate,2024-12-08T03:54:19-04:00*%
%TF.ProjectId,Ejemplo KiCad LM,456a656d-706c-46f2-904b-69436164204c,rev?*%
%TF.SameCoordinates,Original*%
%TF.FileFunction,Soldermask,Top*%
%TF.FilePolarity,Negative*%
%FSLAX46Y46*%
G04 Gerber Fmt 4.6, Leading zero omitted, Abs format (unit mm)*
G04 Created by KiCad (PCBNEW 7.0.9) date 2024-12-08 03:54:19*
%MOMM*%
%LPD*%
G01*
G04 APERTURE LIST*
G04 Aperture macros list*
%AMRoundRect*
0 Rectangle with rounded corners*
0 $1 Rounding radius*
0 $2 $3 $4 $5 $6 $7 $8 $9 X,Y pos of 4 corners*
0 Add a 4 corners polygon primitive as box body*
4,1,4,$2,$3,$4,$5,$6,$7,$8,$9,$2,$3,0*
0 Add four circle primitives for the rounded corners*
1,1,$1+$1,$2,$3*
1,1,$1+$1,$4,$5*
1,1,$1+$1,$6,$7*
1,1,$1+$1,$8,$9*
0 Add four rect primitives between the rounded corners*
20,1,$1+$1,$2,$3,$4,$5,0*
20,1,$1+$1,$4,$5,$6,$7,0*
20,1,$1+$1,$6,$7,$8,$9,0*
20,1,$1+$1,$8,$9,$2,$3,0*%
G04 Aperture macros list end*
%ADD10R,1.800000X1.000000*%
%ADD11RoundRect,0.062500X0.062500X-0.350000X0.062500X0.350000X-0.062500X0.350000X-0.062500X-0.350000X0*%
%ADD12RoundRect,0.062500X0.350000X-0.062500X0.350000X0.062500X-0.350000X0.062500X-0.350000X-0.062500X0*%
%ADD13R,2.500000X2.500000*%
%ADD14RoundRect,0.135000X0.185000X-0.135000X0.185000X0.135000X-0.185000X0.135000X-0.185000X-0.135000X0*%
%ADD15RoundRect,0.135000X0.135000X0.185000X-0.135000X0.185000X-0.135000X-0.185000X0.135000X-0.185000X0*%
%ADD16RoundRect,0.147500X-0.147500X-0.172500X0.147500X-0.172500X0.147500X0.172500X-0.147500X0.172500X0*%
%ADD17RoundRect,0.147500X0.147500X0.172500X-0.147500X0.172500X-0.147500X-0.172500X0.147500X-0.172500X0*%
%ADD18RoundRect,0.147500X-0.172500X0.147500X-0.172500X-0.147500X0.172500X-0.147500X0.172500X0.147500X0*%
%ADD19RoundRect,0.225000X0.225000X0.475000X-0.225000X0.475000X-0.225000X-0.475000X0.225000X-0.475000X0*%
%ADD20O,0.900000X1.400000*%
%ADD21RoundRect,0.140000X-0.140000X-0.170000X0.140000X-0.170000X0.140000X0.170000X-0.140000X0.170000X0*%
%ADD22RoundRect,0.140000X0.140000X0.170000X-0.140000X0.170000X-0.140000X-0.170000X0.140000X-0.170000X0*%
%ADD23RoundRect,0.140000X-0.170000X0.140000X-0.170000X-0.140000X0.170000X-0.140000X0.170000X0.140000X0*%
G04 APERTURE END LIST*
D10*
%TO.C,Y1*%
X156972000Y-105390000D03*
X156972000Y-102890000D03*
%TD*%
D11*
%TO.C,U1*%
X150521000Y-106976500D03*
X151021000Y-106976500D03*
X151521000Y-106976500D03*
X152021000Y-106976500D03*
X152521000Y-106976500D03*
D12*
X153458500Y-106039000D03*
X153458500Y-105539000D03*
X153458500Y-105039000D03*
X153458500Y-104539000D03*
X153458500Y-104039000D03*
D11*
X152521000Y-103101500D03*
X152021000Y-103101500D03*
X151521000Y-103101500D03*
X151021000Y-103101500D03*
X150521000Y-103101500D03*
D12*
X149583500Y-104039000D03*
X149583500Y-104539000D03*
X149583500Y-105039000D03*
X149583500Y-105539000D03*
X149583500Y-106039000D03*
D13*
X151521000Y-105039000D03*
%TD*%
D14*
%TO.C,R2*%
X159004000Y-104650000D03*
X159004000Y-103630000D03*
%TD*%
D15*
%TO.C,R1*%
X147576000Y-104140000D03*
X146556000Y-104140000D03*
%TD*%
D16*
%TO.C,L4*%
X146835000Y-99060000D03*
X147805000Y-99060000D03*
%TD*%
D17*
%TO.C,L3*%
X150133500Y-101499000D03*
X149163500Y-101499000D03*
%TD*%
%TO.C,L2*%
X150133500Y-100229000D03*
X149163500Y-100229000D03*
%TD*%
D18*
%TO.C,L1*%
X151638000Y-100607000D03*
X151638000Y-101577000D03*
%TD*%
D19*
%TO.C,J1*%
X155956000Y-110490000D03*
D20*
X154706000Y-110490000D03*
X153456000Y-110490000D03*
X152206000Y-110490000D03*
X150956000Y-110490000D03*
X149706000Y-110490000D03*
X148456000Y-110490000D03*
X147206000Y-110490000D03*
%TD*%
D21*
%TO.C,C11*%
X148872000Y-99060000D03*
X149832000Y-99060000D03*
%TD*%
D22*
%TO.C,C10*%
X145768000Y-99060000D03*
X144808000Y-99060000D03*
%TD*%
D23*
%TO.C,C9*%
X145584500Y-100257000D03*
X145584500Y-101217000D03*
%TD*%
D22*
%TO.C,C8*%
X148096500Y-101499000D03*
X147136500Y-101499000D03*
%TD*%
%TO.C,C7*%
X147842500Y-100229000D03*
X146882500Y-100229000D03*
%TD*%
%TO.C,C6*%
X148096500Y-103023000D03*
X147136500Y-103023000D03*
%TD*%
D21*
%TO.C,C5*%
X159992000Y-102616000D03*
X159032000Y-102616000D03*
%TD*%
%TO.C,C4*%
X159032000Y-105664000D03*
X159992000Y-105664000D03*
%TD*%
D22*
%TO.C,C3*%
X147546000Y-106172000D03*
X146586000Y-106172000D03*
%TD*%
%TO.C,C2*%
X147574000Y-105156000D03*
X146614000Y-105156000D03*
%TD*%
D21*
%TO.C,C1*%
X156238000Y-106934000D03*
X157198000Y-106934000D03*
%TD*%
M02*
